<svg xmlns="http://www.w3.org/2000/svg" width="186" height="181" viewBox="0 0 186 181" fill="none">
  <path d="M122.946 57.1973H62.6943V141.266H122.946V57.1973Z" fill="#B19CD9"/>
  <path opacity="0.7" d="M122.946 57.1973H62.6943V141.266H122.946V57.1973Z" fill="white"/>
  <path d="M114.329 112.799H71.3115V114.966H114.329V112.799Z" fill="#B19CD9"/>
  <path d="M105.987 114.965H79.6787V139.545H105.987V114.965Z" fill="#455A64"/>
  <path d="M104.216 116.781H81.4492V139.548H104.216V116.781Z" fill="#37474F"/>
  <g opacity="0.5">
    <path d="M104.216 126.281V130.508L95.1808 139.547H90.9541L104.216 126.281Z" fill="#455A64"/>
    <path d="M87.3952 116.781L81.4536 122.723V118.496L83.1641 116.781H87.3952Z" fill="#455A64"/>
    <path d="M100.097 116.781L81.4536 135.429V133.318L97.9857 116.781H100.097Z" fill="#455A64"/>
    <path d="M104.216 132.705V134.821L99.4891 139.547H97.3735L104.216 132.705Z" fill="#455A64"/>
    <path d="M104.216 118.896V119.28L83.9569 139.548H83.5605L104.216 118.896Z" fill="#455A64"/>
    <path d="M89.8597 116.781L81.4536 125.187V124.795L89.4676 116.781H89.8597Z" fill="#455A64"/>
    <path d="M97.0292 116.781L81.4536 132.357V131.96L96.6328 116.781H97.0292Z" fill="#455A64"/>
  </g>
  <path d="M93.5694 116.781H92.1045V139.548H93.5694V116.781Z" fill="#455A64"/>
  <path d="M81.4879 66.3652H72.0952V80.924H81.4879V66.3652Z" fill="#455A64"/>
  <path d="M80.5226 67.4336H73.0645V79.8596H80.5226V67.4336Z" fill="#37474F"/>
  <path d="M82.8323 80.9238H70.751V83.0178H82.8323V80.9238Z" fill="#B19CD9"/>
  <g opacity="0.5">
    <path d="M80.523 67.4336V68.9675L73.0605 76.4299V73.5906L79.2218 67.4336H80.523Z" fill="#455A64"/>
    <path d="M80.5233 76.6465V78.064L78.7266 79.8607H77.3091L80.5233 76.6465Z" fill="#455A64"/>
    <path d="M75.5725 67.4336L73.0605 69.9455V68.5237L74.1506 67.4336H75.5725Z" fill="#455A64"/>
    <path d="M80.5233 74.4219V74.8786L75.5383 79.8593H75.0815L80.5233 74.4219Z" fill="#455A64"/>
  </g>
  <path d="M81.4879 74.7422H72.0952V75.8064H81.4879V74.7422Z" fill="#455A64"/>
  <path d="M97.5163 66.3652H88.1235V80.924H97.5163V66.3652Z" fill="#455A64"/>
  <path d="M96.5509 67.4336H89.0928V79.8596H96.5509V67.4336Z" fill="#37474F"/>
  <path d="M98.8601 80.9238H86.7788V83.0178H98.8601V80.9238Z" fill="#B19CD9"/>
  <g opacity="0.5">
    <path d="M96.5509 67.4336V68.9675L89.0884 76.4299V73.5906L95.2497 67.4336H96.5509Z" fill="#455A64"/>
    <path d="M96.5506 76.6465V78.064L94.7539 79.8607H93.332L96.5506 76.6465Z" fill="#455A64"/>
    <path d="M91.6003 67.4336L89.0884 69.9455V68.5237L90.1785 67.4336H91.6003Z" fill="#455A64"/>
    <path d="M96.5511 74.4219V74.8786L91.5661 79.8593H91.1094L96.5511 74.4219Z" fill="#455A64"/>
  </g>
  <path d="M97.5163 74.7422H88.1235V75.8064H97.5163V74.7422Z" fill="#455A64"/>
  <path d="M113.544 66.3652H104.151V80.924H113.544V66.3652Z" fill="#455A64"/>
  <path d="M112.579 67.4336H105.121V79.8596H112.579V67.4336Z" fill="#37474F"/>
  <path d="M114.888 80.9238H102.807V83.0178H114.888V80.9238Z" fill="#B19CD9"/>
  <g opacity="0.5">
    <path d="M112.579 67.4336V68.9675L105.116 76.4299V73.5906L111.277 67.4336H112.579Z" fill="#455A64"/>
    <path d="M112.579 76.6465V78.064L110.782 79.8607H109.365L112.579 76.6465Z" fill="#455A64"/>
    <path d="M107.628 67.4336L105.116 69.9455V68.5237L106.206 67.4336H107.628Z" fill="#455A64"/>
    <path d="M112.579 74.4219V74.8786L107.594 79.8593H107.137L112.579 74.4219Z" fill="#455A64"/>
  </g>
  <path d="M113.544 74.7422H104.151V75.8064H113.544V74.7422Z" fill="#455A64"/>
  <path d="M81.4879 88.3535H72.0952V102.912H81.4879V88.3535Z" fill="#455A64"/>
  <path d="M80.5226 89.416H73.0645V101.842H80.5226V89.416Z" fill="#37474F"/>
  <path d="M82.8323 102.91H70.751V105.004H82.8323V102.91Z" fill="#B19CD9"/>
  <g opacity="0.5">
    <path d="M80.523 89.416V90.9542L73.0605 98.4123V95.5773L79.2218 89.416H80.523Z" fill="#455A64"/>
    <path d="M80.5233 98.627V100.049L78.7266 101.845H77.3091L80.5233 98.627Z" fill="#455A64"/>
    <path d="M75.5725 89.416L73.0605 91.9279V90.5104L74.1506 89.416H75.5725Z" fill="#455A64"/>
    <path d="M80.5233 96.4043V96.861L75.5383 101.846H75.0815L80.5233 96.4043Z" fill="#455A64"/>
  </g>
  <path d="M81.4879 96.7285H72.0952V97.7927H81.4879V96.7285Z" fill="#455A64"/>
  <path d="M97.5163 88.3535H88.1235V102.912H97.5163V88.3535Z" fill="#455A64"/>
  <path d="M96.5509 89.416H89.0928V101.842H96.5509V89.416Z" fill="#37474F"/>
  <path d="M98.8601 102.91H86.7788V105.004H98.8601V102.91Z" fill="#B19CD9"/>
  <g opacity="0.5">
    <path d="M96.5509 89.416V90.9542L89.0884 98.4123V95.5773L95.2497 89.416H96.5509Z" fill="#455A64"/>
    <path d="M96.5506 98.627V100.049L94.7539 101.845H93.332L96.5506 98.627Z" fill="#455A64"/>
    <path d="M91.6003 89.416L89.0884 91.9279V90.5104L90.1785 89.416H91.6003Z" fill="#455A64"/>
    <path d="M96.5511 96.4043V96.861L91.5661 101.846H91.1094L96.5511 96.4043Z" fill="#455A64"/>
  </g>
  <path d="M97.5163 96.7285H88.1235V97.7927H97.5163V96.7285Z" fill="#455A64"/>
  <path d="M113.544 88.3535H104.151V102.912H113.544V88.3535Z" fill="#455A64"/>
  <path d="M112.579 89.416H105.121V101.842H112.579V89.416Z" fill="#37474F"/>
  <path d="M114.888 102.91H102.807V105.004H114.888V102.91Z" fill="#B19CD9"/>
  <g opacity="0.5">
    <path d="M112.579 89.416V90.9542L105.116 98.4123V95.5773L111.277 89.416H112.579Z" fill="#455A64"/>
    <path d="M112.578 98.627V100.049L110.782 101.845H109.364L112.578 98.627Z" fill="#455A64"/>
    <path d="M107.628 89.416L105.116 91.9279V90.5104L106.206 89.416H107.628Z" fill="#455A64"/>
    <path d="M112.578 96.4043V96.861L107.593 101.846H107.137L112.578 96.4043Z" fill="#455A64"/>
  </g>
  <path d="M113.544 96.7285H104.151V97.7927H113.544V96.7285Z" fill="#455A64"/>
  <path opacity="0.5" d="M122.946 108.438H62.6943V109.174L122.946 108.804V108.438Z" fill="#B19CD9"/>
  <path d="M122.946 107.414H62.6943V108.44H122.946V107.414Z" fill="white"/>
  <path opacity="0.5" d="M122.946 85.7832H62.6943V86.5243L122.946 86.1537V85.7832Z" fill="#B19CD9"/>
  <path d="M122.946 84.7598H62.6943V85.7852H122.946V84.7598Z" fill="white"/>
  <path opacity="0.5" d="M122.946 63.1328H62.6943V63.8739L122.946 63.5034V63.1328Z" fill="#B19CD9"/>
  <path d="M122.946 62.1074H62.6943V63.1329H122.946V62.1074Z" fill="white"/>
  <path d="M62.6936 57.1973H60.1084V141.266H62.6936V57.1973Z" fill="#B19CD9"/>
  <path opacity="0.8" d="M62.6936 57.1973H60.1084V141.266H62.6936V57.1973Z" fill="white"/>
  <path d="M125.53 57.1973H122.945V141.266H125.53V57.1973Z" fill="#B19CD9"/>
  <path opacity="0.8" d="M125.53 57.1973H122.945V141.266H125.53V57.1973Z" fill="white"/>
  <path d="M112.505 114.965H110.282V139.545H112.505V114.965Z" fill="#B19CD9"/>
  <path opacity="0.9" d="M112.505 114.965H110.282V139.545H112.505V114.965Z" fill="white"/>
  <path d="M75.357 114.965H73.1338V139.545H75.357V114.965Z" fill="#B19CD9"/>
  <path opacity="0.9" d="M75.357 114.965H73.1338V139.545H75.357V114.965Z" fill="white"/>
  <path d="M116.832 140.414H68.8037V141.28H116.832V140.414Z" fill="#EBEBEB"/>
  <path d="M114.491 139.547H71.147V140.413H114.491V139.547Z" fill="#EBEBEB"/>
  <path d="M114.491 140.194L71.147 139.979V140.414H114.491V140.194Z" fill="#DBDBDB"/>
  <path d="M60.113 80.4883H6.48828V141.27H60.113V80.4883Z" fill="#B19CD9"/>
  <path opacity="0.7" d="M60.113 80.4883H6.48828V141.27H60.113V80.4883Z" fill="white"/>
  <path opacity="0.5" d="M60.113 132.08H6.48828V141.27H60.113V132.08Z" fill="#B19CD9"/>
  <path d="M21.965 88.248H12.5723V102.807H21.965V88.248Z" fill="#455A64"/>
  <path d="M21.0002 89.3125H13.542V101.738H21.0002V89.3125Z" fill="#37474F"/>
  <path d="M23.3093 102.809H11.228V104.903H23.3093V102.809Z" fill="#B19CD9"/>
  <g opacity="0.5">
    <path d="M21.0002 89.3184V90.8522L13.542 98.3147V95.4753L19.699 89.3184H21.0002Z" fill="#455A64"/>
    <path d="M20.9999 98.5312V99.9488L19.2032 101.745H17.7856L20.9999 98.5312Z" fill="#455A64"/>
    <path d="M16.0539 89.3184L13.542 91.8303V90.4084L14.6278 89.3184H16.0539Z" fill="#455A64"/>
    <path d="M21.0004 96.3066V96.759L16.0197 101.744H15.563L21.0004 96.3066Z" fill="#455A64"/>
  </g>
  <path d="M21.965 96.625H12.5723V97.6892H21.965V96.625Z" fill="#455A64"/>
  <path d="M37.9928 88.248H28.6001V102.807H37.9928V88.248Z" fill="#455A64"/>
  <path d="M37.0275 89.3125H29.5693V101.738H37.0275V89.3125Z" fill="#37474F"/>
  <path d="M39.3372 102.809H27.2559V104.903H39.3372V102.809Z" fill="#B19CD9"/>
  <g opacity="0.5">
    <path d="M37.0275 89.3184V90.8522L29.5693 98.3147V95.4753L35.7263 89.3184H37.0275Z" fill="#455A64"/>
    <path d="M37.0272 98.5312V99.9488L35.2305 101.745H33.813L37.0272 98.5312Z" fill="#455A64"/>
    <path d="M32.0812 89.3184L29.5693 91.8303V90.4084L30.6551 89.3184H32.0812Z" fill="#455A64"/>
    <path d="M37.0278 96.3066V96.759L32.0427 101.744H31.5903L37.0278 96.3066Z" fill="#455A64"/>
  </g>
  <path d="M37.9928 96.625H28.6001V97.6892H37.9928V96.625Z" fill="#455A64"/>
  <path d="M54.0207 88.248H44.6279V102.807H54.0207V88.248Z" fill="#455A64"/>
  <path d="M53.0553 89.3125H45.5972V101.738H53.0553V89.3125Z" fill="#37474F"/>
  <path d="M55.365 102.809H43.2837V104.903H55.365V102.809Z" fill="#B19CD9"/>
  <g opacity="0.5">
    <path d="M53.0553 89.3184V90.8522L45.5972 98.3147V95.4753L51.7542 89.3184H53.0553Z" fill="#455A64"/>
    <path d="M53.0555 98.5312V99.9488L51.2588 101.745H49.8413L53.0555 98.5312Z" fill="#455A64"/>
    <path d="M48.1091 89.3184L45.5972 91.8303V90.4084L46.6872 89.3184H48.1091Z" fill="#455A64"/>
    <path d="M53.0556 96.3066V96.759L48.0749 101.744H47.6182L53.0556 96.3066Z" fill="#455A64"/>
  </g>
  <path d="M54.0207 96.625H44.6279V97.6892H54.0207V96.625Z" fill="#455A64"/>
  <path d="M21.965 110.232H12.5723V124.791H21.965V110.232Z" fill="#455A64"/>
  <path d="M21.0002 111.301H13.542V123.727H21.0002V111.301Z" fill="#37474F"/>
  <path d="M23.3093 124.795H11.228V126.889H23.3093V124.795Z" fill="#B19CD9"/>
  <g opacity="0.5">
    <path d="M21.0002 111.301V112.839L13.542 120.297V117.462L19.699 111.301H21.0002Z" fill="#455A64"/>
    <path d="M20.9999 120.514V121.936L19.2032 123.728H17.7856L20.9999 120.514Z" fill="#455A64"/>
    <path d="M16.0539 111.301L13.542 113.813V112.395L14.6278 111.301H16.0539Z" fill="#455A64"/>
    <path d="M21.0004 118.289V118.746L16.0197 123.727H15.563L21.0004 118.289Z" fill="#455A64"/>
  </g>
  <path d="M21.965 118.605H12.5723V119.67H21.965V118.605Z" fill="#455A64"/>
  <path d="M37.9928 110.232H28.6001V124.791H37.9928V110.232Z" fill="#455A64"/>
  <path d="M37.0275 111.301H29.5693V123.727H37.0275V111.301Z" fill="#37474F"/>
  <path d="M39.3372 124.795H27.2559V126.889H39.3372V124.795Z" fill="#B19CD9"/>
  <g opacity="0.5">
    <path d="M37.0275 111.301V112.839L29.5693 120.297V117.462L35.7263 111.301H37.0275Z" fill="#455A64"/>
    <path d="M37.0272 120.514V121.936L35.2305 123.728H33.813L37.0272 120.514Z" fill="#455A64"/>
    <path d="M32.0812 111.301L29.5693 113.813V112.395L30.6551 111.301H32.0812Z" fill="#455A64"/>
    <path d="M37.0278 118.289V118.746L32.0427 123.727H31.5903L37.0278 118.289Z" fill="#455A64"/>
  </g>
  <path d="M37.9928 118.605H28.6001V119.67H37.9928V118.605Z" fill="#455A64"/>
  <path d="M54.0207 110.232H44.6279V124.791H54.0207V110.232Z" fill="#455A64"/>
  <path d="M53.0553 111.301H45.5972V123.727H53.0553V111.301Z" fill="#37474F"/>
  <path d="M55.365 124.795H43.2837V126.889H55.365V124.795Z" fill="#B19CD9"/>
  <g opacity="0.5">
    <path d="M53.0553 111.301V112.839L45.5972 120.297V117.462L51.7542 111.301H53.0553Z" fill="#455A64"/>
    <path d="M53.0555 120.514V121.936L51.2588 123.728H49.8413L53.0555 120.514Z" fill="#455A64"/>
    <path d="M48.1091 111.301L45.5972 113.813V112.395L46.6872 111.301H48.1091Z" fill="#455A64"/>
    <path d="M53.0556 118.289V118.746L48.0749 123.727H47.6182L53.0556 118.289Z" fill="#455A64"/>
  </g>
  <path d="M54.0207 118.605H44.6279V119.67H54.0207V118.605Z" fill="#455A64"/>
  <path d="M60.1088 77.459H4.65723V80.4879H60.1088V77.459Z" fill="#B19CD9"/>
  <path opacity="0.5" d="M60.1087 107.754H6.48828V108.491L60.1087 108.12V107.754Z" fill="#B19CD9"/>
  <path d="M60.113 106.729H6.48828V107.754H60.113V106.729Z" fill="white"/>
  <path opacity="0.5" d="M56.1748 80.4883H60.1086V141.27H58.8461L56.1748 80.4883Z" fill="#B19CD9"/>
  <path d="M125.526 141.27H179.151V80.4882H125.526V141.27Z" fill="#B19CD9"/>
  <path opacity="0.7" d="M125.526 141.27H179.151V80.4882H125.526V141.27Z" fill="white"/>
  <path d="M141.007 88.248H131.614V102.807H141.007V88.248Z" fill="#455A64"/>
  <path d="M140.042 89.3125H132.583V101.738H140.042V89.3125Z" fill="#37474F"/>
  <path d="M142.351 102.809H130.27V104.903H142.351V102.809Z" fill="#B19CD9"/>
  <g opacity="0.5">
    <path d="M140.042 89.3184V90.8522L132.583 98.3147V95.4753L138.74 89.3184H140.042Z" fill="#455A64"/>
    <path d="M140.041 98.5312V99.9488L138.245 101.745H136.827L140.041 98.5312Z" fill="#455A64"/>
    <path d="M135.095 89.3184L132.583 91.8303V90.4084L133.674 89.3184H135.095Z" fill="#455A64"/>
    <path d="M140.042 96.3066V96.759L135.061 101.744H134.604L140.042 96.3066Z" fill="#455A64"/>
  </g>
  <path d="M141.007 96.625H131.614V97.6892H141.007V96.625Z" fill="#455A64"/>
  <path d="M157.035 88.248H147.642V102.807H157.035V88.248Z" fill="#455A64"/>
  <path d="M156.07 89.3125H148.612V101.738H156.07V89.3125Z" fill="#37474F"/>
  <path d="M158.379 102.809H146.298V104.903H158.379V102.809Z" fill="#B19CD9"/>
  <g opacity="0.5">
    <path d="M156.07 89.3184V90.8522L148.612 98.3147V95.4753L154.769 89.3184H156.07Z" fill="#455A64"/>
    <path d="M156.07 98.5312V99.9488L154.273 101.745H152.855L156.07 98.5312Z" fill="#455A64"/>
    <path d="M151.124 89.3184L148.612 91.8303V90.4084L149.702 89.3184H151.124Z" fill="#455A64"/>
    <path d="M156.07 96.3066V96.759L151.09 101.744H150.633L156.07 96.3066Z" fill="#455A64"/>
  </g>
  <path d="M157.035 96.625H147.642V97.6892H157.035V96.625Z" fill="#455A64"/>
  <path d="M173.063 88.248H163.67V102.807H173.063V88.248Z" fill="#455A64"/>
  <path d="M172.097 89.3125H164.639V101.738H172.097V89.3125Z" fill="#37474F"/>
  <path d="M174.407 102.809H162.326V104.903H174.407V102.809Z" fill="#B19CD9"/>
  <g opacity="0.5">
    <path d="M172.097 89.3184V90.8522L164.639 98.3147V95.4753L170.796 89.3184H172.097Z" fill="#455A64"/>
    <path d="M172.097 98.5312V99.9488L170.3 101.745H168.883L172.097 98.5312Z" fill="#455A64"/>
    <path d="M167.151 89.3184L164.639 91.8303V90.4084L165.729 89.3184H167.151Z" fill="#455A64"/>
    <path d="M172.098 96.3066V96.759L167.117 101.744H166.66L172.098 96.3066Z" fill="#455A64"/>
  </g>
  <path d="M173.063 96.625H163.67V97.6892H173.063V96.625Z" fill="#455A64"/>
  <path d="M141.007 110.232H131.614V124.791H141.007V110.232Z" fill="#455A64"/>
  <path d="M140.042 111.301H132.583V123.727H140.042V111.301Z" fill="#37474F"/>
  <path d="M142.351 124.795H130.27V126.889H142.351V124.795Z" fill="#B19CD9"/>
  <g opacity="0.5">
    <path d="M140.042 111.301V112.839L132.583 120.297V117.462L138.74 111.301H140.042Z" fill="#455A64"/>
    <path d="M140.041 120.514V121.936L138.245 123.728H136.827L140.041 120.514Z" fill="#455A64"/>
    <path d="M135.095 111.301L132.583 113.813V112.395L133.674 111.301H135.095Z" fill="#455A64"/>
    <path d="M140.042 118.289V118.746L135.061 123.727H134.604L140.042 118.289Z" fill="#455A64"/>
  </g>
  <path d="M141.007 118.605H131.614V119.67H141.007V118.605Z" fill="#455A64"/>
  <path d="M157.035 110.232H147.642V124.791H157.035V110.232Z" fill="#455A64"/>
  <path d="M156.07 111.301H148.612V123.727H156.07V111.301Z" fill="#37474F"/>
  <path d="M158.379 124.795H146.298V126.889H158.379V124.795Z" fill="#B19CD9"/>
  <g opacity="0.5">
    <path d="M156.07 111.301V112.839L148.612 120.297V117.462L154.769 111.301H156.07Z" fill="#455A64"/>
    <path d="M156.07 120.514V121.936L154.273 123.728H152.855L156.07 120.514Z" fill="#455A64"/>
    <path d="M151.124 111.301L148.612 113.813V112.395L149.702 111.301H151.124Z" fill="#455A64"/>
    <path d="M156.07 118.289V118.746L151.09 123.727H150.633L156.07 118.289Z" fill="#455A64"/>
  </g>
  <path d="M157.035 118.605H147.642V119.67H157.035V118.605Z" fill="#455A64"/>
  <path d="M173.063 110.232H163.67V124.791H173.063V110.232Z" fill="#455A64"/>
  <path d="M172.097 111.301H164.639V123.727H172.097V111.301Z" fill="#37474F"/>
  <path d="M174.407 124.795H162.326V126.889H174.407V124.795Z" fill="#B19CD9"/>
  <g opacity="0.5">
    <path d="M172.097 111.301V112.839L164.639 120.297V117.462L170.796 111.301H172.097Z" fill="#455A64"/>
    <path d="M172.097 120.514V121.936L170.3 123.728H168.883L172.097 120.514Z" fill="#455A64"/>
    <path d="M167.151 111.301L164.639 113.813V112.395L165.729 111.301H167.151Z" fill="#455A64"/>
    <path d="M172.098 118.289V118.746L167.117 123.727H166.66L172.098 118.289Z" fill="#455A64"/>
  </g>
  <path d="M173.063 118.605H163.67V119.67H173.063V118.605Z" fill="#455A64"/>
  <path d="M125.53 80.4883H180.982V77.4593H125.53V80.4883Z" fill="#B19CD9"/>
  <path opacity="0.5" d="M179.155 132.08H125.53V141.27H179.155V132.08Z" fill="#B19CD9"/>
  <path opacity="0.5" d="M179.151 107.754H125.53V108.491L179.151 108.12V107.754Z" fill="#B19CD9"/>
  <path d="M179.155 106.729H125.53V107.754H179.155V106.729Z" fill="white"/>
  <path opacity="0.5" d="M129.464 80.4883H125.53V141.27H126.793L129.464 80.4883Z" fill="#B19CD9"/>
  <path d="M117.96 48.7734H67.6831V58.5669H117.96V48.7734Z" fill="#B19CD9"/>
  <path d="M117.956 57.3906H67.6792V57.6061H117.956V57.3906Z" fill="white"/>
  <path d="M117.956 49.7344H67.6792V49.9498H117.956V49.7344Z" fill="white"/>
  <path d="M72.6206 55.4355V52.0318C72.6297 51.953 72.6675 51.8804 72.7267 51.8277C72.7859 51.775 72.8623 51.7459 72.9416 51.7459C73.0209 51.7459 73.0973 51.775 73.1565 51.8277C73.2157 51.8804 73.2535 51.953 73.2626 52.0318V53.4191H74.762V52.0318C74.7614 51.9897 74.7692 51.948 74.7851 51.9091C74.8009 51.8701 74.8243 51.8347 74.8541 51.805C74.8838 51.7753 74.9192 51.7518 74.9581 51.736C74.9971 51.7202 75.0388 51.7123 75.0808 51.7129C75.1658 51.7129 75.2473 51.7464 75.3078 51.806C75.3683 51.8657 75.4028 51.9468 75.404 52.0318V55.4442C75.404 55.4864 75.3956 55.5282 75.3793 55.5672C75.363 55.6061 75.3391 55.6415 75.3091 55.6712C75.279 55.7008 75.2433 55.7242 75.2041 55.74C75.165 55.7557 75.123 55.7636 75.0808 55.763C75.0388 55.7636 74.9971 55.7557 74.9581 55.7399C74.9192 55.7241 74.8838 55.7006 74.8541 55.6709C74.8243 55.6412 74.8009 55.6058 74.7851 55.5669C74.7692 55.5279 74.7614 55.4862 74.762 55.4442V54.0568H73.2626V55.4442C73.2535 55.5229 73.2157 55.5955 73.1565 55.6482C73.0973 55.7009 73.0209 55.7301 72.9416 55.7301C72.8623 55.7301 72.7859 55.7009 72.7267 55.6482C72.6675 55.5955 72.6297 55.5229 72.6206 55.4442V55.4355Z" fill="white"/>
  <path d="M76.4771 52.0318C76.4765 51.9897 76.4843 51.948 76.5002 51.9091C76.516 51.8701 76.5394 51.8347 76.5692 51.805C76.5989 51.7753 76.6343 51.7518 76.6732 51.736C76.7122 51.7202 76.7539 51.7123 76.7959 51.7129C76.8809 51.7129 76.9624 51.7464 77.0229 51.806C77.0834 51.8657 77.1179 51.9468 77.1191 52.0318V55.4442C77.1179 55.5291 77.0834 55.6102 77.0229 55.6699C76.9624 55.7296 76.8809 55.763 76.7959 55.763C76.7539 55.7636 76.7122 55.7557 76.6732 55.7399C76.6343 55.7241 76.5989 55.7006 76.5692 55.6709C76.5394 55.6412 76.516 55.6058 76.5002 55.5669C76.4843 55.5279 76.4765 55.4862 76.4771 55.4442V52.0318Z" fill="white"/>
  <path d="M78.0195 53.6757C78.0223 53.3968 78.0804 53.1213 78.1906 52.865C78.3007 52.6088 78.4605 52.3769 78.6609 52.1829C78.8613 51.9889 79.0983 51.8367 79.358 51.735C79.6177 51.6332 79.895 51.5841 80.1738 51.5904C80.6491 51.5828 81.1132 51.7344 81.4923 52.0212C81.5316 52.0459 81.5652 52.0785 81.5912 52.1169C81.6171 52.1554 81.6347 52.1988 81.6427 52.2445C81.6508 52.2902 81.6492 52.337 81.6381 52.382C81.627 52.4271 81.6065 52.4693 81.5781 52.5059C81.5496 52.5425 81.5138 52.5727 81.4729 52.5947C81.4321 52.6166 81.387 52.6297 81.3408 52.6332C81.2946 52.6366 81.2481 52.6304 81.2044 52.6148C81.1608 52.5991 81.1208 52.5746 81.0873 52.5426C80.8247 52.3425 80.5039 52.2336 80.1738 52.2324C79.9799 52.23 79.7876 52.2669 79.6084 52.341C79.4292 52.4151 79.2668 52.5247 79.1311 52.6632C78.9939 52.791 78.8844 52.9458 78.8096 53.1177C78.7347 53.2897 78.6961 53.4753 78.6961 53.6628C78.6961 53.8504 78.7347 54.0359 78.8096 54.2079C78.8844 54.3799 78.9939 54.5346 79.1311 54.6624C79.2668 54.801 79.4292 54.9106 79.6084 54.9846C79.7876 55.0587 79.9799 55.0956 80.1738 55.0933C80.4527 55.0904 80.7261 55.0147 80.9666 54.8735V54.0807H80.1394C80.0521 54.0808 79.9684 54.0464 79.9063 53.9851C79.8442 53.9238 79.8087 53.8405 79.8076 53.7533C79.8076 53.7099 79.8162 53.667 79.8329 53.627C79.8497 53.587 79.8742 53.5507 79.905 53.5202C79.9359 53.4897 79.9725 53.4657 80.0127 53.4495C80.053 53.4333 80.096 53.4253 80.1394 53.4258H81.2898C81.3335 53.4247 81.377 53.4323 81.4177 53.4482C81.4584 53.4642 81.4956 53.4881 81.5269 53.5186C81.5582 53.5492 81.5831 53.5857 81.6001 53.626C81.6171 53.6663 81.6258 53.7096 81.6258 53.7533V55.0459C81.6286 55.0788 81.6286 55.112 81.6258 55.145C81.6241 55.1549 81.6241 55.1651 81.6258 55.1751C81.6059 55.2329 81.5663 55.2817 81.5138 55.313C81.2005 55.5486 80.8288 55.6943 80.4388 55.7343C80.0488 55.7743 79.6553 55.7071 79.3007 55.54C78.946 55.3729 78.6437 55.1121 78.4263 54.7859C78.2089 54.4597 78.0847 54.0803 78.0669 53.6887L78.0195 53.6757Z" fill="white"/>
  <path d="M82.6511 55.4355V52.0318C82.6506 51.9897 82.6584 51.948 82.6742 51.9091C82.6901 51.8701 82.7135 51.8347 82.7432 51.805C82.773 51.7753 82.8083 51.7518 82.8473 51.736C82.8862 51.7202 82.928 51.7123 82.97 51.7129C83.0549 51.7129 83.1365 51.7464 83.197 51.806C83.2575 51.8657 83.292 51.9468 83.2931 52.0318V53.4191H84.7882V52.0318C84.7973 51.953 84.8351 51.8804 84.8943 51.8277C84.9535 51.775 85.0299 51.7459 85.1092 51.7459C85.1885 51.7459 85.2649 51.775 85.3241 51.8277C85.3833 51.8804 85.4211 51.953 85.4302 52.0318V55.4442C85.4211 55.5229 85.3833 55.5955 85.3241 55.6482C85.2649 55.7009 85.1885 55.7301 85.1092 55.7301C85.0299 55.7301 84.9535 55.7009 84.8943 55.6482C84.8351 55.5955 84.7973 55.5229 84.7882 55.4442V54.0568H83.2931V55.4442C83.2931 55.4864 83.2847 55.5282 83.2685 55.5672C83.2522 55.6061 83.2283 55.6415 83.1982 55.6712C83.1682 55.7008 83.1325 55.7242 83.0933 55.74C83.0541 55.7557 83.0122 55.7636 82.97 55.763C82.9272 55.7636 82.8848 55.7555 82.8452 55.7392C82.8057 55.7228 82.7699 55.6986 82.7401 55.6679C82.7102 55.6373 82.6869 55.6009 82.6717 55.5609C82.6564 55.5209 82.6494 55.4783 82.6511 55.4355Z" fill="white"/>
  <path d="M88.3603 54.7444C88.4123 54.6821 88.4869 54.6431 88.5677 54.6358C88.6485 54.6285 88.7288 54.6536 88.7911 54.7056C89.1037 54.9655 89.4924 55.1168 89.8984 55.1365C90.1553 55.1396 90.4073 55.0661 90.6223 54.9254C90.6958 54.8796 90.7567 54.8162 90.7996 54.741C90.8425 54.6658 90.8659 54.5811 90.8679 54.4945C90.8686 54.4291 90.8506 54.3648 90.8162 54.3092C90.7725 54.2395 90.7136 54.1805 90.6438 54.1369C90.3984 53.9987 90.1297 53.9067 89.851 53.8655C89.5936 53.8225 89.343 53.7457 89.1057 53.6371C88.8891 53.5471 88.7025 53.3977 88.5671 53.2062C88.479 53.0639 88.4327 52.8997 88.4335 52.7323C88.4361 52.5618 88.4797 52.3945 88.5607 52.2445C88.6417 52.0945 88.7577 51.9662 88.8988 51.8706C89.1916 51.666 89.5413 51.559 89.8984 51.5647C90.3559 51.5885 90.7957 51.7491 91.1608 52.0257C91.193 52.0473 91.2205 52.0751 91.2418 52.1075C91.2631 52.1398 91.2778 52.1761 91.2851 52.2142C91.2923 52.2522 91.2919 52.2914 91.2838 52.3293C91.2758 52.3672 91.2604 52.4031 91.2384 52.435C91.2179 52.4683 91.1908 52.4971 91.1588 52.5196C91.1267 52.542 91.0905 52.5578 91.0522 52.5659C91.0139 52.5739 90.9744 52.5741 90.9361 52.5664C90.8977 52.5588 90.8613 52.5434 90.8291 52.5212C90.5635 52.3064 90.239 52.1772 89.8984 52.1506C89.6675 52.1471 89.4414 52.2165 89.2521 52.3488C89.1868 52.3855 89.1322 52.4386 89.0937 52.5028C89.0552 52.567 89.034 52.6402 89.0324 52.7151C89.0277 52.771 89.0413 52.827 89.0712 52.8745C89.1129 52.9341 89.1655 52.9852 89.2263 53.0253C89.4489 53.1561 89.6947 53.2424 89.9501 53.2795C90.2248 53.3288 90.4924 53.4113 90.7472 53.5251C90.9827 53.624 91.1836 53.7904 91.3246 54.0033C91.4161 54.1509 91.4653 54.3209 91.4668 54.4945C91.4609 54.6729 91.4124 54.8473 91.3255 55.0032C91.2386 55.1591 91.1156 55.2919 90.967 55.3907C90.6553 55.6125 90.2809 55.7287 89.8984 55.7225C89.3543 55.6947 88.834 55.4906 88.4163 55.1408C88.3624 55.0915 88.3273 55.025 88.3171 54.9527C88.3068 54.8803 88.3221 54.8067 88.3603 54.7444Z" fill="white"/>
  <path d="M92.1694 53.6713C92.1796 53.1151 92.408 52.5852 92.8054 52.1959C93.2028 51.8065 93.7373 51.589 94.2936 51.5903C94.7744 51.5808 95.2446 51.7324 95.6292 52.0211C95.6955 52.0773 95.7381 52.1565 95.7485 52.2428C95.7589 52.3291 95.7363 52.4161 95.6852 52.4865C95.631 52.554 95.5528 52.598 95.4669 52.6092C95.381 52.6204 95.294 52.5981 95.2242 52.5468C94.9601 52.3367 94.631 52.2254 94.2936 52.2322C93.9038 52.2378 93.5308 52.3919 93.2509 52.6631C92.9802 52.9294 92.8254 53.2917 92.82 53.6713C92.8214 53.8589 92.8602 54.0443 92.9342 54.2167C93.0082 54.3891 93.1159 54.545 93.2509 54.6752C93.5311 54.9461 93.9039 55.1001 94.2936 55.1061C94.6312 55.1099 94.9599 54.9973 95.2242 54.7872C95.2956 54.7394 95.382 54.7195 95.4671 54.7315C95.5521 54.7434 95.6298 54.7863 95.6852 54.8519C95.736 54.9215 95.7585 55.0078 95.7481 55.0934C95.7377 55.179 95.6952 55.2574 95.6292 55.3129C95.2446 55.6016 94.7744 55.7532 94.2936 55.7437C93.7384 55.7461 93.2045 55.5302 92.8072 55.1425C92.4098 54.7548 92.1807 54.2264 92.1694 53.6713Z" fill="white"/>
  <path d="M96.8093 55.4355V52.0318C96.8088 51.9897 96.8166 51.948 96.8324 51.9091C96.8483 51.8701 96.8717 51.8347 96.9014 51.805C96.9312 51.7753 96.9665 51.7518 97.0055 51.736C97.0444 51.7202 97.0862 51.7123 97.1282 51.7129C97.1704 51.7123 97.2123 51.7202 97.2515 51.7359C97.2907 51.7517 97.3264 51.7751 97.3564 51.8048C97.3865 51.8344 97.4104 51.8698 97.4266 51.9087C97.4429 51.9477 97.4513 51.9895 97.4513 52.0318V53.4191H98.9507V52.0318C98.9501 51.9897 98.958 51.948 98.9738 51.9091C98.9896 51.8701 99.0131 51.8347 99.0428 51.805C99.0725 51.7753 99.1079 51.7518 99.1469 51.736C99.1858 51.7202 99.2275 51.7123 99.2696 51.7129C99.3545 51.7129 99.4361 51.7464 99.4965 51.806C99.557 51.8657 99.5916 51.9468 99.5927 52.0318V55.4442C99.5927 55.4864 99.5843 55.5282 99.568 55.5672C99.5517 55.6061 99.5279 55.6415 99.4978 55.6711C99.4677 55.7008 99.4321 55.7242 99.3929 55.74C99.3537 55.7557 99.3118 55.7636 99.2696 55.763C99.2275 55.7636 99.1858 55.7557 99.1469 55.7399C99.1079 55.7241 99.0725 55.7006 99.0428 55.6709C99.0131 55.6412 98.9896 55.6058 98.9738 55.5669C98.958 55.5279 98.9501 55.4862 98.9507 55.4442V54.0568H97.4513V55.4442C97.4519 55.4866 97.4439 55.5286 97.4279 55.5679C97.4118 55.6071 97.3879 55.6427 97.3577 55.6725C97.3275 55.7023 97.2916 55.7256 97.2522 55.7412C97.2128 55.7567 97.1706 55.7642 97.1282 55.763C97.0854 55.7636 97.0429 55.7555 97.0034 55.7392C96.9639 55.7228 96.9281 55.6986 96.8983 55.6679C96.8684 55.6373 96.8451 55.6009 96.8298 55.5609C96.8146 55.5209 96.8076 55.4783 96.8093 55.4355Z" fill="white"/>
  <path d="M103.932 52.2079C104.305 52.6046 104.515 53.128 104.518 53.6728C104.518 54.217 104.308 54.7403 103.932 55.1335C103.757 55.3273 103.544 55.4826 103.306 55.5894C103.068 55.6962 102.81 55.7522 102.549 55.7539C102.283 55.7531 102.019 55.6976 101.776 55.5909C101.532 55.4841 101.312 55.3284 101.131 55.1335C100.759 54.739 100.553 54.2155 100.558 53.6728C100.555 53.1292 100.76 52.6049 101.131 52.2079C101.313 52.0135 101.532 51.8585 101.776 51.7525C102.02 51.6465 102.283 51.5918 102.549 51.5918C102.809 51.5929 103.067 51.6483 103.305 51.7544C103.543 51.8604 103.757 52.0149 103.932 52.2079ZM103.859 53.6728C103.857 53.2977 103.716 52.9366 103.462 52.6603C103.345 52.5316 103.202 52.4288 103.043 52.3584C102.884 52.2881 102.712 52.2517 102.538 52.2517C102.364 52.2517 102.192 52.2881 102.033 52.3584C101.874 52.4288 101.731 52.5316 101.614 52.6603C101.357 52.9345 101.215 53.297 101.217 53.6728C101.213 54.0465 101.355 54.407 101.614 54.6768C101.729 54.8079 101.872 54.9129 102.031 54.9848C102.19 55.0567 102.363 55.0939 102.538 55.0939C102.713 55.0939 102.886 55.0567 103.045 54.9848C103.204 54.9129 103.347 54.8079 103.462 54.6768C103.717 54.4048 103.859 54.0457 103.859 53.6728Z" fill="white"/>
  <path d="M108.792 52.2079C109.165 52.6046 109.375 53.128 109.378 53.6728C109.378 54.217 109.168 54.7403 108.792 55.1335C108.617 55.3273 108.404 55.4826 108.166 55.5894C107.928 55.6962 107.67 55.7522 107.409 55.7539C107.143 55.7527 106.881 55.6971 106.638 55.5904C106.395 55.4836 106.176 55.3281 105.996 55.1335C105.621 54.74 105.416 54.2158 105.423 53.6728C105.417 53.1289 105.623 52.6039 105.996 52.2079C106.176 52.0138 106.395 51.859 106.638 51.753C106.881 51.647 107.144 51.5921 107.409 51.5918C107.669 51.5929 107.927 51.6483 108.165 51.7544C108.403 51.8604 108.617 52.0149 108.792 52.2079ZM108.719 53.6728C108.719 53.2982 108.579 52.937 108.327 52.6603C108.209 52.5315 108.066 52.4286 107.906 52.3582C107.747 52.2878 107.575 52.2515 107.4 52.2515C107.226 52.2515 107.053 52.2878 106.894 52.3582C106.734 52.4286 106.591 52.5315 106.474 52.6603C106.22 52.9361 106.08 53.2979 106.082 53.6728C106.078 54.0456 106.218 54.4053 106.474 54.6768C106.59 54.808 106.732 54.913 106.892 54.985C107.052 55.057 107.225 55.0942 107.4 55.0942C107.575 55.0942 107.749 55.057 107.908 54.985C108.068 54.913 108.21 54.808 108.327 54.6768C108.58 54.4043 108.721 54.0452 108.719 53.6728Z" fill="white"/>
  <path d="M110.484 55.4355V52.0317C110.484 51.9472 110.518 51.8661 110.578 51.8063C110.638 51.7465 110.719 51.7129 110.803 51.7129C110.888 51.7129 110.97 51.7463 111.03 51.806C111.091 51.8657 111.125 51.9468 111.126 52.0317V55.121H112.695C112.774 55.1301 112.846 55.1679 112.899 55.2271C112.952 55.2862 112.981 55.3627 112.981 55.442C112.981 55.5212 112.952 55.5977 112.899 55.6569C112.846 55.7161 112.774 55.7538 112.695 55.763H110.803C110.761 55.763 110.719 55.7545 110.679 55.7379C110.64 55.7213 110.604 55.6971 110.575 55.6666C110.545 55.636 110.522 55.5999 110.506 55.5602C110.491 55.5205 110.483 55.4781 110.484 55.4355Z" fill="white"/>
  <g opacity="0.5">
    <path d="M13.857 128.48H10.3584V129.687H13.857V128.48Z" fill="#B19CD9"/>
    <path d="M11.9046 131.214C10.8706 131.214 9.4358 131.261 8.41036 131.261H8.37158V129.969H8.42759C9.45735 129.969 10.9093 129.969 11.9219 129.995H11.952V130.016L11.9219 131.227L11.9046 131.214ZM11.9046 131.214L11.8788 130.016L11.9046 130.046C11.323 130.046 10.7413 130.046 10.1596 130.046H8.41036L8.46206 129.99V131.201L8.41467 131.149C9.41857 131.149 10.8878 131.179 11.9089 131.201L11.9046 131.214Z" fill="#B19CD9"/>
    <path d="M71.1007 94.9014C70.0623 94.9014 68.6275 94.9488 67.6021 94.9488H67.5547V93.6562H67.6107C68.6405 93.6562 70.0924 93.6563 71.1093 93.6821H71.1351V93.708L71.1093 94.9187L71.1007 94.9014ZM71.1007 94.9014L71.0705 93.6907L71.1007 93.7209C70.5147 93.7209 69.933 93.7209 69.3514 93.7209H67.6021L67.6538 93.6649V94.8756L67.6064 94.8239C68.6103 94.8239 70.0838 94.8584 71.105 94.8756L71.1007 94.9014Z" fill="#B19CD9"/>
    <path d="M69.1485 95.2148H65.6499V96.4212H69.1485V95.2148Z" fill="#B19CD9"/>
    <path d="M67.2056 94.8991C66.1673 94.8991 64.7325 94.9465 63.7071 94.9465H63.6597V94.8991V93.6884V93.6367H63.7157C64.7454 93.6367 66.1974 93.6367 67.2143 93.6626H67.2401V93.6884L67.2143 94.8991H67.2056ZM67.2056 94.8991L67.1755 93.6884L67.2056 93.7186C66.6197 93.7186 66.038 93.7186 65.4564 93.7186H63.7071L63.7588 93.6626V94.8733L63.7114 94.8216C64.7153 94.8216 66.1888 94.856 67.2099 94.8733L67.2056 94.8991Z" fill="#B19CD9"/>
    <path d="M175.494 86.1553C174.455 86.1553 173.021 86.207 171.995 86.2027H171.948V84.9102H172.004C173.034 84.9102 174.486 84.9102 175.502 84.9403H175.528V84.9662L175.502 86.1726L175.494 86.1553ZM175.494 86.1553L175.464 84.9489L175.494 84.9748H173.744H171.995L172.047 84.9231V86.1295L171.999 86.0821C173.003 86.0821 174.477 86.1123 175.498 86.1295L175.494 86.1553Z" fill="#B19CD9"/>
    <path d="M175.494 110.837C174.455 110.837 173.021 110.888 171.995 110.888H171.948V109.574H172.004C173.034 109.574 174.486 109.574 175.502 109.604H175.528V109.63L175.502 110.837H175.494ZM175.494 110.837L175.464 109.63L175.494 109.656L173.744 109.678H171.995L172.047 109.626V110.832L171.999 110.785C173.003 110.785 174.477 110.815 175.498 110.832L175.494 110.837Z" fill="#B19CD9"/>
    <path d="M177.419 83.418H173.921V84.6244H177.419V83.418Z" fill="#B19CD9"/>
    <path d="M133.131 85.9199H129.633V87.1263H133.131V85.9199Z" fill="#B19CD9"/>
    <path d="M133.144 130.899C132.106 130.899 130.671 130.951 129.646 130.947H129.598V130.899V129.693V129.637H129.654C130.684 129.637 132.136 129.637 133.153 129.663H133.179V129.693L133.153 130.899H133.144ZM133.144 130.899L133.114 129.693L133.144 129.719C132.558 129.719 131.976 129.719 131.395 129.719H129.646L129.697 129.667V130.873L129.65 130.822C130.654 130.822 132.127 130.856 133.148 130.873L133.144 130.899Z" fill="#B19CD9"/>
    <path d="M135.07 128.162H131.572V129.369H135.07V128.162Z" fill="#B19CD9"/>
    <path d="M173.533 84.6299C172.499 84.6299 171.064 84.6817 170.039 84.6773H169.987V83.3848H170.043C171.073 83.3848 172.525 83.3848 173.538 83.4106H173.568V83.4365L173.538 84.6429L173.533 84.6299ZM173.533 84.6299L173.507 83.4235L173.533 83.4494L171.788 83.4709H170.039L170.091 83.4192V84.6256L170.043 84.5782C171.047 84.5782 172.516 84.6084 173.538 84.6256L173.533 84.6299Z" fill="#B19CD9"/>
    <path d="M29.4151 97.3307C28.3767 97.3307 26.942 97.3824 25.9165 97.3824H25.8691V96.0898H25.9252C26.9549 96.0898 28.4069 96.0898 29.4237 96.1157H29.4496V96.1415L29.4237 97.3479L29.4151 97.3307ZM29.4151 97.3307L29.3893 96.1243L29.4151 96.1502L27.6658 96.1717H25.9165L25.9725 96.1157V97.3221L25.9252 97.2747C26.9291 97.2747 28.4026 97.3049 29.4237 97.3221L29.4151 97.3307Z" fill="#B19CD9"/>
    <path d="M69.1617 130.482C68.1233 130.482 66.6886 130.533 65.6631 130.529H65.6157V129.236H65.676C66.7058 129.236 68.1578 129.236 69.1746 129.262H69.2005V129.292L69.1746 130.499L69.1617 130.482ZM69.1617 130.482L69.1358 129.275L69.1617 129.301L67.4124 129.323H65.676L65.7321 129.271V130.477L65.676 130.447C66.6799 130.447 68.1535 130.477 69.1746 130.494L69.1617 130.482Z" fill="#B19CD9"/>
    <path d="M25.5196 97.3307C24.4812 97.3307 23.0465 97.3824 22.021 97.3824H21.9736V96.0898H22.0253C23.0551 96.0898 24.5071 96.0898 25.5239 96.1157H25.5498V96.1415L25.5239 97.3479L25.5196 97.3307ZM25.5196 97.3307L25.4938 96.1243L25.5196 96.1502L23.7703 96.1717H22.021L22.077 96.1157V97.3221L22.0296 97.2747C23.0335 97.2747 24.5071 97.3049 25.5282 97.3221L25.5196 97.3307Z" fill="#B19CD9"/>
    <path d="M118.926 118.12C117.892 118.12 116.453 118.168 115.432 118.168H115.38V116.875H115.436C116.466 116.875 117.914 116.875 118.931 116.901H118.961V116.927L118.931 118.137L118.926 118.12ZM118.926 118.12L118.9 116.909L118.926 116.94C118.345 116.94 117.763 116.94 117.177 116.94H115.454L115.505 116.884V118.094L115.458 118.043C116.462 118.043 117.931 118.077 118.952 118.094L118.926 118.12Z" fill="#B19CD9"/>
    <path d="M118.926 68.5577C117.892 68.5577 116.453 68.6094 115.432 68.6051H115.38V67.3125H115.436C116.466 67.3125 117.914 67.3125 118.931 67.3384H118.961V67.3642L118.931 68.5706L118.926 68.5577ZM118.926 68.5577L118.9 67.3513L118.926 67.3771H117.177H115.454L115.505 67.3254V68.5318L115.458 68.4844C116.462 68.4844 117.931 68.5146 118.952 68.5318L118.926 68.5577Z" fill="#B19CD9"/>
    <path d="M120.878 68.8711H117.379V70.0775H120.878V68.8711Z" fill="#B19CD9"/>
    <path d="M42.8404 82.4141H39.3418V83.6205H42.8404V82.4141Z" fill="#B19CD9"/>
  </g>
  <path d="M0 144.506C59.4586 144.243 126.173 144.243 185.64 144.506C126.181 144.773 59.4672 144.773 0 144.506Z" fill="#263238"/>
  <path d="M0 180.181C59.4586 179.918 126.173 179.914 185.64 180.181C126.181 180.448 59.4672 180.444 0 180.181Z" fill="#263238"/>
  <path d="M182.71 141.273H2.92578V144.406H182.71V141.273Z" fill="#C7C7C7"/>
  <path d="M15.5325 141.273C15.814 142.299 15.814 143.381 15.5325 144.406C15.3811 143.899 15.3084 143.371 15.3171 142.842C15.3102 142.311 15.3829 141.783 15.5325 141.273Z" fill="#263238"/>
  <path d="M29.5827 141.273C29.7323 141.783 29.805 142.311 29.7981 142.842C29.8068 143.371 29.7341 143.899 29.5827 144.406C29.3012 143.381 29.3012 142.299 29.5827 141.273Z" fill="#263238"/>
  <path d="M43.6375 141.273C43.919 142.299 43.919 143.381 43.6375 144.406C43.4861 143.899 43.4134 143.371 43.4221 142.842C43.4152 142.311 43.4878 141.783 43.6375 141.273Z" fill="#263238"/>
  <path d="M57.6876 141.273C57.8373 141.783 57.9099 142.311 57.9031 142.842C57.9118 143.371 57.8391 143.899 57.6876 144.406C57.4062 143.381 57.4062 142.299 57.6876 141.273Z" fill="#263238"/>
  <path d="M71.7425 141.273C72.0239 142.299 72.0239 143.381 71.7425 144.406C71.591 143.899 71.5184 143.371 71.5271 142.842C71.5202 142.311 71.5928 141.783 71.7425 141.273Z" fill="#263238"/>
  <path d="M85.7926 141.273C85.9423 141.783 86.0149 142.311 86.0081 142.842C86.0167 143.371 85.9441 143.899 85.7926 144.406C85.5112 143.381 85.5112 142.299 85.7926 141.273Z" fill="#263238"/>
  <path d="M99.847 141.273C100.128 142.299 100.128 143.381 99.847 144.406C99.6955 143.899 99.6229 143.371 99.6316 142.842C99.6247 142.311 99.6973 141.783 99.847 141.273Z" fill="#263238"/>
  <path d="M113.898 141.273C114.047 141.783 114.12 142.311 114.113 142.842C114.122 143.371 114.049 143.899 113.898 144.406C113.616 143.381 113.616 142.299 113.898 141.273Z" fill="#263238"/>
  <path d="M127.952 141.273C128.233 142.299 128.233 143.381 127.952 144.406C127.801 143.899 127.728 143.371 127.737 142.842C127.73 142.311 127.802 141.783 127.952 141.273Z" fill="#263238"/>
  <path d="M142.003 141.273C142.152 141.783 142.225 142.311 142.218 142.842C142.227 143.371 142.154 143.899 142.003 144.406C141.721 143.381 141.721 142.299 142.003 141.273Z" fill="#263238"/>
  <path d="M156.057 141.273C156.338 142.299 156.338 143.381 156.057 144.406C155.905 143.899 155.833 143.371 155.842 142.842C155.835 142.311 155.907 141.783 156.057 141.273Z" fill="#263238"/>
  <path d="M170.108 141.273C170.257 141.783 170.33 142.311 170.323 142.842C170.332 143.371 170.259 143.899 170.108 144.406C169.826 143.381 169.826 142.299 170.108 141.273Z" fill="#263238"/>
  <path d="M79.95 144.506H105.69L154.321 180.181H31.3491L79.95 144.506Z" fill="#EBEBEB"/>
  <path d="M23.2019 141.273C23.2019 141.273 22.84 139.584 22.1161 139.321C21.3923 139.058 20.9485 139.821 20.9485 139.821C20.9485 139.821 20.7804 138.201 19.7507 137.718C18.7209 137.236 17.954 138.227 17.954 138.227C17.954 138.227 17.1655 136.176 15.7566 136.176C14.3477 136.176 13.6411 139.192 13.6411 139.192C13.6411 139.192 12.8095 138.3 11.9564 138.804C11.1033 139.308 11.0947 141.29 11.0947 141.29L23.2019 141.273Z" fill="#37474F"/>
  <path d="M143.343 141.273C143.343 141.273 142.981 139.584 142.257 139.321C141.533 139.058 141.093 139.821 141.093 139.821C141.093 139.821 140.921 138.201 139.896 137.718C138.87 137.236 138.099 138.227 138.099 138.227C138.099 138.227 137.311 136.176 135.902 136.176C134.493 136.176 133.782 139.192 133.782 139.192C133.782 139.192 132.955 138.3 132.101 138.804C131.248 139.308 131.24 141.29 131.24 141.29L143.343 141.273Z" fill="#455A64"/>
  <path d="M55.206 141.274H42.4741C42.4741 141.274 42.905 139.481 43.7365 139.352C43.9907 139.33 44.2457 139.385 44.4674 139.511C44.6891 139.638 44.8671 139.829 44.9774 140.059C44.9774 140.059 44.9386 137.555 46.5156 137.129C48.0925 136.702 49.411 138.913 49.411 138.913C49.411 138.913 50.4019 137.655 51.7462 137.732C53.0905 137.81 53.4395 139.886 53.4395 139.886C53.4395 139.886 54.6631 139.175 55.206 141.274Z" fill="#37474F"/>
  <path d="M11.8874 141.273H5.1875C5.1875 141.273 5.1875 140.278 5.85964 140.011C6.03876 139.934 6.23811 139.917 6.4277 139.963C6.61729 140.008 6.78688 140.115 6.91094 140.265C6.91094 140.265 7.17807 138.43 8.40602 138.43C9.63397 138.43 10.2242 140.011 10.2242 140.011C10.3284 139.86 10.4745 139.743 10.6445 139.674C10.8144 139.605 11.0009 139.587 11.1808 139.623C11.8615 139.714 11.8874 141.273 11.8874 141.273Z" fill="#455A64"/>
  <path d="M60.4626 141.273H53.7627C53.7627 141.273 53.7627 140.278 54.4348 140.011C54.614 139.934 54.8133 139.917 55.0029 139.963C55.1925 140.008 55.3621 140.115 55.4861 140.265C55.4861 140.265 55.7576 138.43 56.9855 138.43C58.2135 138.43 58.7822 140.011 58.7822 140.011C58.8864 139.86 59.0324 139.743 59.2024 139.674C59.3724 139.605 59.5588 139.587 59.7387 139.623C60.4367 139.714 60.4626 141.273 60.4626 141.273Z" fill="#455A64"/>
  <path d="M170.676 141.273H163.977C163.977 141.273 163.977 140.278 164.649 140.011C164.828 139.934 165.027 139.917 165.217 139.963C165.406 140.008 165.576 140.115 165.7 140.265C165.7 140.265 165.967 138.43 167.195 138.43C168.423 138.43 169.013 140.011 169.013 140.011C169.117 139.86 169.263 139.742 169.433 139.673C169.603 139.604 169.79 139.587 169.97 139.623C170.651 139.714 170.676 141.273 170.676 141.273Z" fill="#455A64"/>
  <path d="M180.453 141.272H169.405C169.405 141.272 169.431 139.63 170.517 139.191C170.812 139.067 171.14 139.042 171.45 139.119C171.761 139.197 172.038 139.373 172.24 139.621C172.24 139.621 172.671 136.605 174.709 136.605C176.747 136.605 177.699 139.191 177.699 139.191C177.871 138.941 178.112 138.748 178.392 138.634C178.672 138.52 178.979 138.49 179.276 138.549C180.409 138.695 180.453 141.272 180.453 141.272Z" fill="#37474F"/>
</svg>