<svg xmlns="http://www.w3.org/2000/svg" width="167" height="165" viewBox="0 0 167 165" fill="none">
  <path d="M0 144.463C53.4379 144.241 113.386 144.237 166.824 144.463C113.386 144.688 53.4379 144.684 0 144.463Z" fill="#263238"/>
  <path d="M35.8691 150.702L35.9382 149.844L98.057 147.234L126.208 155.334L126.139 156.192L65.0818 162.35L35.8691 150.702Z" fill="#B19CD9"/>
  <path opacity="0.1" d="M35.8691 150.702L35.9382 149.844L98.057 147.234L126.208 155.334L126.139 156.192L65.0818 162.35L35.8691 150.702Z" fill="black"/>
  <path d="M35.938 149.843L98.1767 145.713L126.208 155.332L65.1507 161.49L35.938 149.843Z" fill="#B19CD9"/>
  <path d="M39.8203 149.296L66.5683 159.991L123.787 154.24L96.6826 145.01C96.6826 145.01 79.6951 145.021 78.899 145.093C78.1029 145.166 70.5271 146.235 70.5271 146.235C70.5271 146.235 59.9995 146.464 59.2797 146.537C58.5599 146.609 39.8203 149.292 39.8203 149.292V149.296Z" fill="white"/>
  <path d="M39.8205 149.295L66.5794 159.961C66.5067 159.961 123.791 154.152 123.776 154.148L123.754 154.326C123.754 154.326 96.5955 145.049 96.6791 145.071C94.1963 145.071 82.4836 145.082 80.2843 145.107C79.7935 145.129 79.1283 145.089 78.652 145.169L77.0271 145.387L70.5309 146.267C69.1496 146.3 62.1118 146.456 60.8721 146.496C60.3487 146.525 59.4689 146.51 58.9455 146.605C56.3645 146.965 42.6705 148.891 39.8169 149.291L39.8205 149.295ZM39.8205 149.295C42.7723 148.87 56.3354 146.943 58.9418 146.565C59.4617 146.467 60.3269 146.481 60.8721 146.452C62.0427 146.412 69.1968 146.234 70.5237 146.201L77.0235 145.307L78.6484 145.085C79.1174 145.002 79.808 145.042 80.2879 145.02C82.429 144.991 94.2908 144.958 96.6828 144.947C96.7082 144.944 123.794 154.148 123.816 154.152L124.212 154.286L123.794 154.326C123.794 154.326 66.5613 160.023 66.5576 160.015L39.8205 149.291V149.295Z" fill="#EBEBEB"/>
  <path d="M70.5273 146.234C72.6285 147.161 74.7406 148.077 76.8672 148.986L83.2725 151.698L89.7323 154.374C91.8916 155.261 94.0691 156.137 96.2539 157.009C94.1527 156.082 92.0406 155.166 89.914 154.257L83.5087 151.545L77.0489 148.87C74.8896 147.983 72.7121 147.107 70.5273 146.234Z" fill="#DBDBDB"/>
  <path d="M45.8767 149.612C47.916 149.346 49.9445 149.074 51.9693 148.79L58.0329 147.929L59.5451 147.711C59.796 147.678 60.0541 147.638 60.294 147.612C60.5485 147.591 60.8211 147.583 61.0828 147.569L64.2528 147.405C66.3648 147.292 68.4733 147.162 70.5781 147.023C68.4442 147.085 66.3139 147.162 64.1837 147.249L60.9956 147.387C60.7302 147.402 60.4649 147.405 60.1958 147.427C59.9196 147.456 59.6724 147.492 59.4143 147.521L57.8911 147.729C55.8772 148.027 53.8596 148.321 51.8566 148.634C49.8536 148.943 47.8579 149.27 45.873 149.608L45.8767 149.612Z" fill="#DBDBDB"/>
  <path d="M47.7419 150.305C49.7813 150.039 51.8097 149.767 53.8346 149.483L59.8981 148.622L61.4104 148.404C61.6612 148.371 61.9193 148.331 62.1592 148.305C62.4137 148.284 62.6863 148.276 62.9481 148.262L66.118 148.095C68.2301 147.982 70.3385 147.851 72.4433 147.713C70.3094 147.775 68.1792 147.851 66.0489 147.938L62.8608 148.076C62.5955 148.091 62.3301 148.095 62.0611 148.116C61.7848 148.145 61.5376 148.182 61.2795 148.215L59.7563 148.425C57.7424 148.723 55.7249 149.018 53.7219 149.331C51.7189 149.64 49.7231 149.967 47.7383 150.305H47.7419Z" fill="#DBDBDB"/>
  <path d="M49.6101 150.997C51.6022 150.739 53.587 150.474 55.5646 150.194L61.49 149.354L62.9695 149.143C63.4748 149.078 63.9365 148.99 64.4454 148.972L67.5427 148.805C69.6111 148.692 71.6723 148.572 73.7335 148.441C71.6468 148.496 69.5638 148.565 67.4845 148.649C66.4448 148.685 65.4088 148.736 64.3691 148.79C63.8347 148.809 63.3258 148.899 62.835 148.958L61.3482 149.165C59.3816 149.456 57.4076 149.746 55.4519 150.052C53.4925 150.357 51.544 150.673 49.6064 151.004L49.6101 150.997Z" fill="#DBDBDB"/>
  <path d="M51.4785 151.691C53.4415 151.437 55.3973 151.175 57.3494 150.899L63.1912 150.07C64.1618 149.939 65.1433 149.772 66.0994 149.677L69.1457 149.51C71.1815 149.397 73.2172 149.281 75.2456 149.146C73.1881 149.197 71.1342 149.266 69.0876 149.346C68.0624 149.386 67.0446 149.434 66.0158 149.488C64.9761 149.59 64.0346 149.739 63.0494 149.874C61.1082 150.161 59.167 150.444 57.2404 150.75C55.31 151.048 53.3906 151.364 51.4785 151.688V151.691Z" fill="#DBDBDB"/>
  <path d="M53.3472 152.385C55.3029 152.13 57.255 151.869 59.1962 151.596L65.0163 150.771C65.9832 150.64 66.9611 150.476 67.9135 150.374C68.9132 150.309 69.9384 150.265 70.9489 150.207C72.9774 150.095 75.0059 149.978 77.027 149.844C74.9768 149.895 72.9301 149.964 70.8908 150.044C69.8693 150.084 68.8551 150.131 67.8299 150.189C66.7975 150.295 65.856 150.44 64.8781 150.578C62.9442 150.865 61.0102 151.149 59.0908 151.451C57.1678 151.749 55.2557 152.065 53.3508 152.385H53.3472Z" fill="#DBDBDB"/>
  <path d="M55.2158 153.079C57.1643 152.824 59.1092 152.566 61.0467 152.293L66.8486 151.472C67.8119 151.341 68.7861 151.181 69.7349 151.072C70.7273 151.007 71.7525 150.963 72.7594 150.905C74.7806 150.792 76.8018 150.676 78.8194 150.545C76.7764 150.596 74.737 150.661 72.7013 150.745C71.6798 150.785 70.6728 150.832 69.6477 150.89C68.6262 151.003 67.6847 151.145 66.7104 151.283C64.7837 151.57 62.8534 151.85 60.9413 152.152C59.0219 152.45 57.117 152.762 55.2195 153.086L55.2158 153.079Z" fill="#DBDBDB"/>
  <path d="M57.0806 153.769C59.0036 153.518 60.923 153.264 62.8351 152.995L68.5606 152.184C69.5131 152.053 70.4691 151.901 71.4143 151.784C72.3667 151.701 73.3955 151.668 74.3843 151.61C76.38 151.497 78.3757 151.381 80.3642 151.25C78.3467 151.297 76.3327 151.366 74.3261 151.443C73.3191 151.49 72.3304 151.519 71.3089 151.599C70.3201 151.719 69.3785 151.853 68.4225 151.992C66.5213 152.275 64.6164 152.551 62.7297 152.853C60.8358 153.148 58.9563 153.457 57.0806 153.773V153.769Z" fill="#DBDBDB"/>
  <path d="M58.9487 154.465C60.8718 154.214 62.7912 153.959 64.7033 153.69L70.4288 152.88C71.3812 152.749 72.3373 152.596 73.2824 152.48C74.2349 152.396 75.2636 152.363 76.2524 152.305C78.2482 152.193 80.2439 152.076 82.2324 151.945C80.2148 151.993 78.2009 152.062 76.1943 152.138C75.1873 152.185 74.1985 152.214 73.177 152.294C72.1882 152.414 71.2467 152.549 70.2906 152.687C68.3894 152.97 66.4846 153.247 64.5979 153.548C62.7039 153.843 60.8245 154.152 58.9487 154.468V154.465Z" fill="#DBDBDB"/>
  <path d="M60.4863 155.224C62.4384 154.965 64.3833 154.704 66.3209 154.431L72.13 153.602L75.0272 153.192C75.976 153.097 77.0303 153.068 78.0336 153.006C80.0584 152.893 82.0832 152.773 84.1044 152.643C82.0578 152.693 80.0148 152.759 77.9754 152.839C76.9539 152.89 75.9506 152.912 74.9109 153.006C73.9258 153.133 72.9588 153.268 71.9918 153.413C70.0652 153.704 68.1312 153.984 66.2154 154.293C64.296 154.591 62.3876 154.907 60.4863 155.231V155.224Z" fill="#DBDBDB"/>
  <path d="M62.355 155.937C64.2998 155.679 66.241 155.413 68.1713 155.137L73.9586 154.301L76.8486 153.887C77.7902 153.785 78.8444 153.759 79.8441 153.698C81.8653 153.585 83.8828 153.465 85.9004 153.334C83.8574 153.381 81.818 153.45 79.7859 153.53C78.7644 153.585 77.7647 153.599 76.7287 153.701C75.7508 153.832 74.7838 153.963 73.8205 154.112C71.9011 154.403 69.9744 154.686 68.0659 154.995C66.1538 155.297 64.2526 155.613 62.355 155.94V155.937Z" fill="#DBDBDB"/>
  <path d="M64.2275 156.7C66.1106 156.438 67.9936 156.176 69.8658 155.896C71.7452 155.627 73.6028 155.333 75.4749 155.06L78.2777 154.642C78.7503 154.566 79.1829 154.522 79.6918 154.5L81.1641 154.42C83.1271 154.308 85.0901 154.191 87.0495 154.061C85.061 154.104 83.0798 154.17 81.1023 154.25L79.6227 154.319C79.3755 154.333 79.1283 154.34 78.8775 154.366C78.6194 154.391 78.3904 154.428 78.1505 154.46C77.2053 154.591 76.2711 154.729 75.3368 154.875C73.4756 155.166 71.607 155.449 69.7604 155.762C67.9064 156.064 66.067 156.38 64.2275 156.703V156.7Z" fill="#DBDBDB"/>
  <path d="M66.092 157.35C68.0041 157.128 69.9163 156.902 71.8175 156.663C73.726 156.434 75.6163 156.175 77.5175 155.939C78.4663 155.826 79.4224 155.688 80.3567 155.59L83.2757 155.35C85.217 155.179 87.1582 155.005 89.0885 154.809C87.1182 154.918 85.1552 155.045 83.1958 155.179L80.2658 155.397C79.2734 155.496 78.3427 155.623 77.3903 155.746C75.5 156.001 73.5988 156.245 71.7193 156.521C69.8327 156.783 67.9605 157.066 66.0884 157.35H66.092Z" fill="#DBDBDB"/>
  <path d="M94.1196 154.559C95.9409 154.363 97.7367 154.137 99.5252 153.901L100.87 153.734C101.314 153.672 101.75 153.639 102.223 153.607L104.996 153.407L110.536 152.992C112.383 152.854 114.222 152.694 116.066 152.549C114.208 152.658 112.343 152.756 110.485 152.876L104.92 153.232L102.143 153.418C101.688 153.447 101.197 153.479 100.747 153.538C100.292 153.592 99.8487 153.658 99.4016 153.719C97.6131 153.967 95.8536 154.246 94.1196 154.563V154.559Z" fill="#DBDBDB"/>
  <path d="M92.3237 153.709C94.1086 153.564 95.8826 153.4 97.6421 153.211C98.5254 153.127 99.4052 153.022 100.278 152.953L102.957 152.749L108.311 152.328C110.096 152.19 111.87 152.026 113.652 151.877C111.856 151.99 110.053 152.088 108.261 152.211L102.88 152.575C101.103 152.706 99.2707 152.804 97.533 153.029C95.7772 153.226 94.0432 153.455 92.3237 153.709Z" fill="#DBDBDB"/>
  <path d="M90.583 152.938C92.357 152.796 94.1201 152.636 95.865 152.451L98.486 152.189L101.158 152.025L106.509 151.687C108.294 151.575 110.068 151.44 111.845 151.316C110.05 151.4 108.25 151.469 106.458 151.564L101.082 151.844L98.3951 151.996C97.4972 152.069 96.6357 152.174 95.7632 152.272C94.0183 152.465 92.2952 152.694 90.5866 152.941L90.583 152.938Z" fill="#DBDBDB"/>
  <path d="M89.0923 152.356C90.8517 152.163 92.5639 151.905 94.287 151.676C94.7305 151.625 95.1231 151.552 95.5739 151.541L96.9262 151.476L99.6344 151.352C103.244 151.185 106.847 151.007 110.449 150.811C106.818 150.916 103.193 151.036 99.5763 151.178L96.8644 151.29L95.5085 151.349C95.0504 151.363 94.5815 151.421 94.1598 151.483C92.4367 151.734 90.7427 152.014 89.0996 152.356H89.0923Z" fill="#DBDBDB"/>
  <path d="M87.46 151.658C89.2194 151.466 90.9316 151.207 92.6547 150.978C93.0982 150.928 93.4908 150.855 93.9416 150.844L95.2939 150.779L98.0021 150.655C101.612 150.488 105.214 150.31 108.817 150.113C105.185 150.219 101.561 150.339 97.944 150.48L95.2321 150.593L93.8761 150.651C93.4181 150.666 92.9492 150.724 92.5275 150.786C90.8044 151.037 89.1104 151.317 87.4672 151.658H87.46Z" fill="#DBDBDB"/>
  <path d="M85.8281 150.961C87.5876 150.768 89.2998 150.51 91.0229 150.281C91.4664 150.23 91.859 150.158 92.3097 150.147L93.662 150.081L96.3703 149.958C99.9801 149.79 103.583 149.612 107.185 149.416C103.554 149.521 99.9292 149.641 96.3121 149.783L93.6002 149.896L92.2443 149.954C91.7863 149.969 91.3173 150.027 90.892 150.089C89.1689 150.339 87.4749 150.619 85.8318 150.961H85.8281Z" fill="#DBDBDB"/>
  <path d="M84.1958 150.262C85.9553 150.069 87.6674 149.811 89.3905 149.582C89.834 149.531 90.2266 149.458 90.6774 149.447L92.0297 149.382L94.738 149.258C98.3477 149.091 101.954 148.913 105.553 148.717C101.921 148.822 98.2969 148.942 94.6798 149.084L91.9679 149.197L90.612 149.255C90.1539 149.269 89.685 149.328 89.2633 149.389C87.5402 149.64 85.8462 149.92 84.2031 150.262H84.1958Z" fill="#DBDBDB"/>
  <path d="M82.0693 149.647C83.8288 149.454 85.541 149.196 87.2641 148.967C87.7076 148.916 88.1002 148.843 88.551 148.832L89.9033 148.767L92.6115 148.643C96.2213 148.476 99.8238 148.298 103.426 148.102C99.7947 148.207 96.1704 148.327 92.5533 148.469L89.8415 148.581L88.4855 148.64C88.0275 148.654 87.5585 148.712 87.1368 148.774C85.4137 149.025 83.7197 149.305 82.0766 149.647H82.0693Z" fill="#DBDBDB"/>
  <path d="M80.0005 149.041C81.7599 148.848 83.4721 148.59 85.1952 148.361C85.6387 148.31 86.0313 148.238 86.4821 148.227L87.8344 148.161L90.5426 148.038C94.1524 147.871 97.7549 147.692 101.357 147.496C97.7259 147.602 94.1015 147.721 90.4845 147.863L87.7726 147.976L86.4167 148.034C85.9586 148.049 85.4897 148.107 85.0644 148.169C83.3413 148.419 81.6472 148.699 80.0041 149.041H80.0005Z" fill="#DBDBDB"/>
  <path d="M78.3687 148.342C80.1245 148.15 81.833 147.892 83.5525 147.663C83.9924 147.612 84.3886 147.535 84.8357 147.528L86.188 147.474L88.8999 147.375C92.5133 147.241 96.1267 147.095 99.7329 146.936C96.0977 147.005 92.4697 147.092 88.849 147.201L86.1335 147.288L84.7739 147.335C84.3086 147.346 83.8469 147.408 83.4216 147.466C81.7022 147.717 80.0118 147.997 78.3687 148.339V148.342Z" fill="#DBDBDB"/>
  <path d="M76.7358 147.645C78.488 147.452 80.1966 147.194 81.9124 146.969C82.3523 146.918 82.7521 146.842 83.192 146.834L84.5443 146.791L87.2598 146.718C90.8769 146.62 94.4976 146.518 98.111 146.395C94.4758 146.424 90.8405 146.474 87.2162 146.544L84.497 146.605L83.1375 146.642C82.6649 146.649 82.2105 146.714 81.7852 146.773C80.0693 147.023 78.379 147.3 76.7431 147.645H76.7358Z" fill="#DBDBDB"/>
  <path d="M75.104 146.947C76.8525 146.754 78.5575 146.499 80.2697 146.27C80.7059 146.223 81.1094 146.14 81.542 146.14L82.8943 146.118L85.6134 146.092C89.2414 146.056 92.8657 146.016 96.4901 145.961C92.8476 145.925 89.2123 145.911 85.5771 145.918L82.8543 145.932L81.4911 145.951C81.0076 145.954 80.5641 146.023 80.1388 146.081C78.4266 146.329 76.7399 146.609 75.104 146.95V146.947Z" fill="#DBDBDB"/>
  <path d="M67.9748 158.295C69.9269 158.098 71.8718 157.899 73.813 157.684L79.6221 157.033C80.5891 156.928 81.5597 156.804 82.5157 156.706L85.453 156.434C87.4088 156.244 89.3572 156.045 91.2985 155.83C89.3173 155.961 87.3433 156.11 85.373 156.266L82.4249 156.514C81.4324 156.612 80.4727 156.717 79.5021 156.833C77.5718 157.066 75.6379 157.288 73.7185 157.535C71.7955 157.775 69.8797 158.029 67.9712 158.291L67.9748 158.295Z" fill="#DBDBDB"/>
  <path d="M95.4429 155.369C97.4132 155.194 99.3798 155.016 101.336 154.823L107.203 154.234L110.126 153.94L113.088 153.7C115.062 153.533 117.029 153.355 118.988 153.162C116.989 153.271 115 153.398 113.016 153.537L110.042 153.755C109.039 153.842 108.072 153.94 107.094 154.042C105.145 154.253 103.193 154.453 101.252 154.678C99.3071 154.896 97.3732 155.132 95.4429 155.372V155.369Z" fill="#DBDBDB"/>
  <path d="M123.784 154.239L124.78 154.922L96.9592 157.74L65.5035 160.888L38.9082 150.295L39.817 149.295L66.565 159.99C66.565 159.99 79.5464 158.608 82.4255 158.136C85.301 157.663 90.5175 156.496 96.2503 157.005C96.2503 157.005 102.812 156.053 105.916 155.569C109.021 155.086 123.784 154.239 123.784 154.239Z" fill="#EBEBEB"/>
  <path d="M59.4906 53.17C58.9489 53.3118 58.4363 53.5517 57.9856 53.8934C55.9498 55.442 55.4009 58.1212 55.3791 60.5241C55.3646 63.0978 55.9426 65.8533 55.0665 68.3362C54.7248 69.3068 54.1359 70.2265 53.2234 70.7354C52.191 71.3062 51.0241 71.128 49.9626 70.7536C48.843 70.3646 47.5997 69.6558 46.3783 70.0375C45.3641 70.3501 44.7061 71.328 44.3935 72.2949C43.5792 74.8033 45.0405 77.4424 45.255 79.9435C45.4913 82.619 44.9024 85.32 43.5828 87.6647C42.3541 89.8531 40.4456 91.6271 38.2208 92.7758C37.1375 93.3356 35.9597 93.7573 34.7637 93.9864C33.4187 94.2372 32.0446 94.1936 30.6923 94.3826C29.4381 94.5644 28.0567 95.0151 27.3224 96.1202C26.7517 96.9745 26.6172 100.762 29.2891 104.554C29.4817 104.827 28.9765 105.154 28.6856 104.947C28.1149 104.561 27.5733 104.143 27.0571 103.692C22.7566 99.9481 20.4482 94.2626 21.0008 88.5771C21.2989 85.5381 22.3712 82.6444 24.0507 80.1107C24.985 78.7075 26.0501 77.3625 26.7408 75.8138C27.3551 74.4325 27.5296 72.9566 27.4497 71.4588C27.2861 68.6052 26.4427 65.8315 26.7735 62.9524C27.0752 60.3859 28.0895 57.9358 29.5726 55.8274C32.688 51.4251 37.6428 48.7096 42.983 48.197C48.2468 47.6954 59.785 53.0864 59.4869 53.17H59.4906Z" fill="#263238"/>
  <path d="M59.3192 53.2189C58.2941 53.626 57.2871 54.1459 56.5347 54.9711C55.8585 55.7163 55.4259 56.6542 55.1933 57.6284C54.6661 59.8205 55.0733 62.0198 55.4077 64.2046C55.7204 66.2585 55.9457 68.4469 54.9933 70.3735C54.5898 71.1878 53.99 71.9549 53.2048 72.4274C52.3142 72.9655 51.2999 73.0018 50.3039 72.7728C48.4899 72.3511 46.3342 71.2424 44.6075 72.5401C42.9389 73.7907 43.1934 76.3026 43.3606 78.1239C43.7714 82.5588 44.9601 88.2516 41.1685 91.6469C39.2491 93.3664 36.5482 94.3406 34.0798 94.9331C32.2986 95.3585 30.0411 95.8856 29.1686 97.6887C29.1359 97.7541 29.245 97.7904 29.2777 97.725C30.2301 95.831 32.5858 95.6965 34.4252 95.3367C36.5809 94.915 38.7766 94.1552 40.6196 92.941C42.5208 91.6905 43.7059 89.8075 44.2149 87.6045C44.7347 85.3652 44.5857 83.075 44.3239 80.8139C44.1894 79.6543 44.0295 78.4983 43.9313 77.335C43.8404 76.2881 43.7932 75.1757 44.1712 74.176C44.5711 73.1072 45.5017 72.5365 46.6287 72.5438C47.7338 72.551 48.7516 72.98 49.8022 73.2526C50.7437 73.4962 51.7143 73.6089 52.6522 73.2999C53.4047 73.0527 54.0627 72.5838 54.5898 72.0021C55.804 70.6644 56.3093 68.8613 56.2984 67.0837C56.2838 64.5608 55.4332 62.1216 55.4623 59.5987C55.4768 58.3119 55.7022 56.9705 56.3929 55.8617C57.1199 54.6984 58.2687 54.0986 59.4392 53.4697C59.5955 53.3861 59.4828 53.1571 59.3192 53.2225V53.2189Z" fill="#263238"/>
  <path d="M41.0668 46.8273C35.6794 47.2453 31.0699 50.9751 28.8488 55.7845C27.6019 58.4818 27.1257 61.4445 27.2456 64.4C27.3583 67.1591 27.8527 69.9619 27.362 72.7101C26.8203 75.7528 24.7119 77.9557 22.9924 80.3877C21.6001 82.3616 20.6513 84.5864 20.2078 86.9638C19.3572 91.5188 20.3714 96.4009 23.0215 100.211C23.3596 100.694 23.7158 101.163 24.1012 101.614C24.1484 101.672 24.2357 101.596 24.1884 101.537C21.193 97.964 20.0224 93.0783 20.6114 88.4943C20.9022 86.2368 21.6256 84.0411 22.7925 82.0817C24.232 79.6643 26.3696 77.6976 27.4892 75.0839C28.5398 72.6338 28.3944 69.9001 28.1763 67.3045C27.94 64.469 27.7219 61.6699 28.4416 58.8817C29.7794 53.7015 33.6945 49.2774 38.9365 47.8669C44.7856 46.2965 50.6129 48.6994 55.6513 51.5276C56.3238 51.9057 56.9964 52.2874 57.6652 52.6727C57.7416 52.7163 57.8179 52.6073 57.7452 52.56C52.765 49.4301 47.1594 46.3511 41.0704 46.8236L41.0668 46.8273Z" fill="#263238"/>
  <path d="M60.2789 50.0592C59.4356 49.7066 58.1014 49.8993 57.7379 50.3937C57.3744 50.888 57.5562 55.6538 58.4686 56.4099C59.3847 57.1661 61.0096 55.7011 61.0096 55.7011L60.2789 50.0592Z" fill="#B19CD9"/>
  <path d="M69.4799 81.6546C85.0423 100.322 100.67 121.391 99.9576 128.018C98.2672 143.77 88.2958 142.563 86.7617 142.17C76.2886 139.487 62.0858 105.658 58.1125 88.1689C54.5681 72.5629 60.7808 71.2215 69.4799 81.6546Z" fill="#B19CD9"/>
  <path d="M84.8343 101.005L64.7678 108.82C63.4301 105.454 62.2195 102.11 61.1689 98.9289L78.1491 92.3164C80.4684 95.2537 82.7186 98.1691 84.8343 101.005Z" fill="#B19CD9"/>
  <path opacity="0.5" d="M84.8343 101.005L64.7678 108.82C63.4301 105.454 62.2195 102.11 61.1689 98.9289L78.1491 92.3164C80.4684 95.2537 82.7186 98.1691 84.8343 101.005Z" fill="white"/>
  <path d="M89.1097 106.889L67.4874 115.308C67.0403 114.305 66.604 113.291 66.1787 112.273L87.1249 104.115C87.8047 105.053 88.4699 105.98 89.1097 106.889Z" fill="#B19CD9"/>
  <path opacity="0.5" d="M89.1097 106.889L67.4874 115.308C67.0403 114.305 66.604 113.291 66.1787 112.273L87.1249 104.115C87.8047 105.053 88.4699 105.98 89.1097 106.889Z" fill="white"/>
  <path opacity="0.1" d="M99.9574 128.023C98.2671 143.774 88.2956 142.568 86.7579 142.175C76.2848 139.488 62.082 105.666 58.1123 88.1736C55.7204 77.6424 57.7706 73.6073 62.0311 75.2976L96.115 117.695C98.7251 122.258 100.19 125.885 99.9611 128.019L99.9574 128.023Z" fill="black"/>
  <path d="M81.1596 144.425L77.8515 123.62C77.8515 123.62 82.6427 115.405 81.3268 109.763C80.189 104.884 68.7634 79.765 60.9513 74.2249C54.5352 69.6772 45.1563 72.7345 41.103 78.409C34.4832 87.6752 23.9556 109.305 19.208 144.443L81.1632 144.425H81.1596Z" fill="#B19CD9"/>
  <path d="M77.8987 100.977H29.7319C31.2078 97.0441 32.7128 93.5397 34.1887 90.457H72.6894C74.6488 94.0741 76.4483 97.7638 77.8987 100.977Z" fill="#B19CD9"/>
  <path opacity="0.5" d="M77.8987 100.977H29.7319C31.2078 97.0441 32.7128 93.5397 34.1887 90.457H72.6894C74.6488 94.0741 76.4483 97.7638 77.8987 100.977Z" fill="white"/>
  <path d="M80.7886 108.011H27.2744C27.6416 106.881 28.0124 105.776 28.3832 104.703H79.509C80.0361 105.979 80.4687 107.099 80.7886 108.011Z" fill="#B19CD9"/>
  <path opacity="0.5" d="M80.7886 108.011H27.2744C27.6416 106.881 28.0124 105.776 28.3832 104.703H79.509C80.0361 105.979 80.4687 107.099 80.7886 108.011Z" fill="white"/>
  <path d="M67.0769 118.374C63.7652 118.781 60.4426 119.305 57.2218 120.196C55.6186 120.639 54.0482 121.155 52.4814 121.708C51.6998 121.984 50.9146 122.231 50.1222 122.475C49.3115 122.726 48.439 122.962 47.5848 123.006C47.5084 123.009 47.5121 123.126 47.5884 123.126C48.4209 123.133 49.2134 123.136 50.0422 123.031C50.8274 122.933 51.609 122.748 52.3724 122.544C54.0009 122.108 55.6114 121.599 57.2363 121.144C60.5153 120.232 63.7906 119.319 67.1278 118.647C67.2804 118.614 67.2368 118.353 67.0805 118.374H67.0769Z" fill="#263238"/>
  <path d="M75.365 121.159C72.6313 120.934 69.8431 120.839 67.0985 120.927C65.7171 120.97 64.3502 121.094 62.9797 121.254C62.3254 121.33 61.6711 121.417 61.0204 121.516C60.3042 121.621 59.599 121.825 58.8792 121.919C58.8029 121.93 58.8065 122.046 58.8828 122.039C59.5626 121.97 60.257 122.014 60.9404 121.981C61.6274 121.952 62.3145 121.915 63.0015 121.886C64.3757 121.825 65.7498 121.781 67.1275 121.705C69.8794 121.556 72.6204 121.436 75.3759 121.385C75.5249 121.385 75.5104 121.17 75.3686 121.159H75.365Z" fill="#263238"/>
  <path d="M39.8085 79.6423C23.3155 97.0914 5.62645 131.506 9.73426 138.711C14.311 146.734 37.2748 122.28 37.1548 120.88C37.0639 119.826 42.106 99.796 48.0314 83.7828C53.9532 67.7842 43.8872 75.3309 39.8085 79.6459V79.6423Z" fill="#F7A9A0"/>
  <path d="M37.3111 120.906C37.9799 118.557 45.8502 91.504 48.8675 82.3324C51.5757 74.0986 49.9907 70.776 43.3056 75.9889C30.9967 85.5822 11.9335 113.628 7.66214 128.511C3.54342 142.848 13.0386 142.844 22.5738 136.076C30.3823 130.532 37.3111 120.906 37.3111 120.906Z" fill="#B19CD9"/>
  <path d="M44.7015 95.8059C43.7019 99.143 42.6622 102.636 41.6916 105.923L21.5088 101.691C23.6427 98.4851 25.8929 95.326 28.1685 92.3379L44.7015 95.8059Z" fill="#B19CD9"/>
  <path opacity="0.5" d="M44.7015 95.8059C43.7019 99.143 42.6622 102.636 41.6916 105.923L21.5088 101.691C23.6427 98.4851 25.8929 95.326 28.1685 92.3379L44.7015 95.8059Z" fill="white"/>
  <path d="M40.6332 109.511C40.3061 110.623 39.9934 111.688 39.699 112.695L17.4805 108.031C18.0803 107.039 18.6983 106.039 19.3308 105.043L40.6332 109.511Z" fill="#B19CD9"/>
  <path opacity="0.5" d="M40.6332 109.511C40.3061 110.623 39.9934 111.688 39.699 112.695L17.4805 108.031C18.0803 107.039 18.6983 106.039 19.3308 105.043L40.6332 109.511Z" fill="white"/>
  <path d="M35.897 124.97C38.7797 113.774 42.1423 102.705 45.9847 91.7988C43.1056 102.995 39.7358 114.065 35.897 124.97Z" fill="#263238"/>
  <path d="M44.145 98.2515C44.683 96.8083 45.461 95.5142 46.3516 94.2637C45.9154 95.7323 45.112 97.0628 44.145 98.2515Z" fill="#263238"/>
  <path d="M51.9393 74.833C51.7612 76.0617 55.7599 84.4627 61.0056 86.2367C62.7141 86.811 64.7935 78.6427 64.7935 78.6427L65.2115 78.0247L71.0534 69.3656L62.6996 57.8492L61.46 56.2715C61.46 56.2715 60.0168 58.7471 58.2537 61.8443C58.1701 61.9861 58.0901 62.1315 58.0029 62.2842C57.8975 62.455 57.7993 62.6186 57.7084 62.7858C57.4394 63.2439 57.1668 63.7164 56.905 64.189C56.7051 64.5489 56.5052 64.8979 56.3089 65.2832C56.1017 65.6649 55.909 66.0393 55.6981 66.421C53.7279 70.2308 52.0266 74.3095 51.943 74.8293L51.9393 74.833Z" fill="#EB9481"/>
  <path d="M58.2535 61.844C58.0172 70.4595 62.8484 75.9014 65.2149 78.0208L71.0568 69.3617L62.703 57.8453L61.4634 56.2676C61.4634 56.2676 60.0202 58.7432 58.2571 61.8404L58.2535 61.844Z" fill="#263238"/>
  <path d="M90.0873 62.2528C83.762 79.4547 72.7363 77.608 69.0248 76.2411C65.6549 75.0015 54.3457 70.3448 58.857 52.5831C63.372 34.8214 73.3761 32.3239 81.2282 34.7559C89.0839 37.1879 96.4126 45.0509 90.0836 62.2528H90.0873Z" fill="#EB9481"/>
  <path d="M58.8831 55.0472C63.3072 54.9017 65.1321 51.1211 65.1321 51.1211C70.5413 51.1393 74.5437 48.6492 74.9544 48.402C74.6927 48.6964 72.8206 50.823 71.8318 51.8772C83.2355 54.4619 89.9861 47.7985 89.9861 47.7985C91.9346 52.6915 91.6729 55.1708 91.6983 56.4758C91.6983 56.4758 94.5701 50.0342 93.1124 44.2651C91.3311 37.1982 85.3367 35.8059 85.3367 35.8059C85.3367 35.8059 78.1934 29.8259 68.8364 33.9992C58.7595 38.5069 58.8795 55.0508 58.8795 55.0508L58.8831 55.0472Z" fill="#263238"/>
  <path d="M80.607 53.5956C78.5167 53.8173 76.3719 53.6465 74.3362 53.2466C74.318 53.2466 74.3253 53.2175 74.3435 53.2211C77.6806 53.6646 81.0214 53.2575 84.1113 51.8834C85.4164 51.3017 86.6415 50.5711 87.7611 49.6841C88.9353 48.7571 90.1895 47.5938 90.902 46.2669C90.9565 46.1652 91.1128 46.2488 91.0583 46.3506C90.3058 47.7538 89.6005 49.0443 88.4264 50.1457C87.3103 51.1927 85.9908 52.047 84.573 52.6286C83.3043 53.1448 81.9702 53.4538 80.607 53.5956Z" fill="#263238"/>
  <path d="M85.34 35.802C80.6179 31.7269 73.4165 31.0326 68.04 34.1843C65.3863 35.762 63.4705 38.3249 62.1 41.0622C60.7259 43.8577 59.8026 46.8785 59.2827 49.954C59.5263 46.824 60.2824 43.7123 61.5911 40.8186C62.9034 37.9213 64.8991 35.2276 67.6656 33.5591C73.2129 30.2874 80.8578 31.1453 85.3364 35.7984L85.34 35.802Z" fill="#263238"/>
  <path d="M86.1548 36.0703C91.7603 37.2808 94.803 42.7228 94.3886 48.2083C94.3013 49.9751 93.9305 51.7054 93.3743 53.3595C93.9015 49.9787 94.1596 46.438 93.0326 43.1808C91.953 39.9237 89.3647 37.3245 86.1584 36.0703H86.1548Z" fill="#263238"/>
  <path d="M61.1076 54.9094C61.1076 54.9094 59.9152 48.0316 56.9561 48.2206C53.9971 48.4097 53.1973 57.1924 55.4766 59.5153C57.7559 61.8382 59.9479 59.7697 59.9479 59.7697L61.1076 54.9094Z" fill="#EB9481"/>
  <path d="M56.7925 50.7426C56.7489 50.7171 56.7126 50.7753 56.7416 50.808C58.3084 52.4984 58.4866 54.7704 58.3266 56.9661C58.0867 55.981 57.4869 55.2212 56.2073 55.4539C56.1382 55.4648 56.1527 55.5665 56.2109 55.5811C57.0834 55.7847 57.5923 56.1882 57.8286 57.0752C57.9958 57.7041 57.9885 58.3911 58.0176 59.0382C58.0285 59.2527 58.3811 59.3072 58.4102 59.0782C58.4102 59.06 58.4102 59.0418 58.4139 59.0273C59.6207 56.5844 59.3227 52.233 56.7889 50.7426H56.7925Z" fill="#263238"/>
  <path opacity="0.1" d="M76.161 57.5046C74.0198 56.2395 71.646 60.6163 73.6309 61.7905C75.583 62.9429 77.9568 58.566 76.161 57.5046Z" fill="black"/>
  <path opacity="0.1" d="M85.616 61.2917C83.6639 60.481 81.8972 65.1377 83.7075 65.8866C85.4888 66.6245 87.2518 61.9714 85.616 61.2917Z" fill="black"/>
  <path d="M88.8442 57.362C88.5752 57.0203 88.2662 56.7513 87.9645 56.4423C87.6227 56.0933 87.3865 55.777 86.8884 55.6753C86.6194 55.6171 86.2886 55.8425 86.2086 56.0969C86.0232 56.6895 86.3359 57.2239 86.7285 57.6601C87.1538 58.1363 87.6046 58.3908 88.2371 58.4926C88.8478 58.5871 89.2004 57.8164 88.8442 57.3656V57.362Z" fill="#263238"/>
  <path d="M75.2414 54.64C75.6704 54.5564 76.0775 54.5528 76.5101 54.5128C76.9973 54.4692 77.3789 54.3855 77.8261 54.6291C78.066 54.76 78.1714 55.1489 78.066 55.3925C77.8188 55.9632 77.2372 56.1632 76.6519 56.2395C76.0194 56.3231 75.5104 56.225 74.9652 55.8869C74.438 55.5634 74.6743 54.7454 75.2378 54.6364L75.2414 54.64Z" fill="#263238"/>
  <path d="M70.3811 68.1178C70.5047 68.5213 70.5737 69.0193 70.9554 69.2701C71.3226 69.51 71.8642 69.5828 72.2932 69.6373C72.3368 69.6446 72.3514 69.6991 72.3114 69.7209C71.7952 69.9863 71.0463 69.9245 70.5846 69.5573C70.1339 69.1974 70.123 68.634 70.2502 68.1105C70.2684 68.0378 70.3665 68.0596 70.3847 68.1178H70.3811Z" fill="#263238"/>
  <path d="M73.838 66.8667C76.0373 67.1648 77.1278 67.91 78.2802 68.5025C78.422 68.5316 78.7601 68.5461 78.8291 68.4298V68.4225C78.8473 68.3789 79.6652 65.9251 79.6652 65.9251C79.9306 66.2087 81.3156 67.561 81.4574 67.0884C82.6425 63.1551 83.9584 58.7856 84.3074 54.6232C84.3256 54.4851 84.122 54.4451 84.0857 54.576C82.7988 58.3093 82.1772 62.2463 80.9412 66.016C80.4868 65.6198 79.7597 64.9327 79.2908 64.7691C79.1527 64.7582 78.5456 67.4592 78.3529 67.8409C78.3529 67.8409 76.5935 66.4232 73.7653 66.5977C73.1364 66.6376 73.0273 66.7576 73.8307 66.8703L73.838 66.8667Z" fill="#263238"/>
  <path d="M75.3321 69.2836C75.9429 69.3673 77.7968 67.6987 76.9789 67.1243C76.161 66.5463 73.8235 66.0774 72.4094 67.0189C71.1698 67.8477 74.2016 68.3058 74.536 68.6911C74.8123 69.0146 74.8959 69.2255 75.3358 69.2836H75.3321Z" fill="#263238"/>
  <path d="M74.5357 68.6939C74.5975 68.7703 74.6411 68.8321 74.692 68.883C75.0592 68.2286 74.961 67.1817 73.7577 66.5273C73.2706 66.5964 72.8017 66.7455 72.4091 67.0108C71.1767 67.8433 74.2049 68.305 74.5357 68.6939Z" fill="#FF9ABB"/>
  <path d="M76.8222 59.0945C76.8331 59.0472 76.7058 59.1127 76.6877 59.1599C76.2369 60.3559 75.5207 61.6537 74.292 61.6028C74.2521 61.6028 74.2339 61.661 74.2739 61.6719C75.6553 62.0245 76.5895 60.2978 76.8222 59.0909V59.0945Z" fill="#263238"/>
  <path d="M76.2771 57.4256C74.4377 56.4986 72.7146 60.2465 74.4232 61.1081C76.1027 61.9551 77.8221 58.2035 76.2771 57.4256Z" fill="#263238"/>
  <path d="M75.4486 57.2825C75.0232 57.3443 74.5325 57.5733 74.1181 57.4279C73.6419 57.2643 73.4746 56.7118 73.351 56.1992C73.3365 56.1447 73.2892 56.1629 73.2674 56.2138C72.9257 56.9263 72.8639 57.7914 73.5873 58.2531C74.2453 58.6748 75.0414 58.2677 75.554 57.6279C75.6485 57.5079 75.623 57.2571 75.4522 57.2825H75.4486Z" fill="#263238"/>
  <path d="M83.8497 61.6966C83.8788 61.6566 83.9151 61.7948 83.8897 61.842C83.3117 62.9835 82.8391 64.3867 83.7079 65.2591C83.7333 65.2846 83.7079 65.3428 83.6679 65.3209C82.4756 64.543 83.119 62.6854 83.8497 61.7003V61.6966Z" fill="#263238"/>
  <path d="M85.4492 60.9724C87.3758 61.7031 85.7763 65.5055 83.9878 64.8294C82.2283 64.1641 83.8315 60.3617 85.4492 60.9724Z" fill="#263238"/>
  <path d="M86.1364 61.5559C86.3509 61.8831 86.4963 62.3739 86.8453 62.5484C87.2488 62.7519 87.7323 62.4684 88.1612 62.1885C88.2049 62.1594 88.223 62.203 88.2012 62.2539C87.914 62.9882 87.3578 63.6462 86.5981 63.4899C85.9074 63.3481 85.7038 62.5266 85.8347 61.7304C85.8601 61.5814 86.0492 61.4214 86.1328 61.5523L86.1364 61.5559Z" fill="#263238"/>
  <path d="M80.5745 76.4273C80.9998 75.4131 81.9595 74.6243 83.2428 74.5516C84.2606 74.4934 85.2821 74.9805 85.8638 75.8166C86.6344 76.9254 86.5908 78.245 85.9546 79.2301C86.3872 79.6663 86.6962 80.2443 86.838 80.9168C87.1288 82.3128 86.4708 83.8069 85.2421 84.5303C83.6317 85.4791 81.7269 84.9956 80.7199 83.6396L80.5927 83.6869C78.7751 84.3594 76.7248 83.1925 76.4958 81.1422C76.3795 80.1244 76.8266 79.0738 77.6336 78.4413C77.9971 78.1577 78.3861 77.9723 78.7823 77.8742" fill="white"/>
  <path d="M80.5745 76.427C82.4358 72.2138 88.4266 75.4055 86.1364 79.3461L86.1074 79.0735C88.4957 81.4691 86.3982 85.6787 83.0465 85.2279C82.0541 85.1079 81.1307 84.5627 80.5418 83.7665L80.7926 83.8392C76.5685 85.3951 74.3801 79.0844 78.7787 77.8702C74.7654 79.1643 76.8666 85.0571 80.789 83.3703C81.8069 84.9262 84.1225 85.2424 85.5184 84.021C86.9544 82.8723 87.0525 80.4912 85.6748 79.2552C88.034 75.6345 82.483 72.6064 80.5745 76.427Z" fill="#263238"/>
  <path d="M76.9353 76.7873C75.9393 75.1878 75.0923 73.5119 74.3979 71.7598C75.394 73.3593 76.241 75.0387 76.9353 76.7873Z" fill="#263238"/>
  <path d="M79.2908 74.7599C78.0512 73.5421 76.9388 72.2152 75.9609 70.7793C77.2006 71.9971 78.3093 73.324 79.2908 74.7599Z" fill="#263238"/>
  <path d="M78.7639 76.7411C77.5679 75.258 76.5064 73.6839 75.5903 72.0117C76.79 73.4913 77.8478 75.0726 78.7639 76.7411Z" fill="#263238"/>
  <path d="M85.5473 137.626C82.8717 130.853 82.6354 113.633 85.8817 89.4117C86.4124 85.4529 110.87 84.5732 110.754 88.841C110.605 94.2211 106.381 123.717 106.061 125.226C103.364 137.946 87.3212 142.123 85.5436 137.622L85.5473 137.626Z" fill="#EB9481"/>
  <path d="M110.263 91.234C110.263 91.234 115.101 82.4985 116.225 77.1256C117.726 69.9279 116.061 63.0936 115.192 60.2727C113.375 54.3836 104.905 41.3986 100.742 43.1871C96.9725 44.8048 106.297 57.6408 106.297 57.6408C106.297 57.6408 98.9464 42.9872 94.7659 45.7681C90.5854 48.5491 102.258 62.8319 102.258 62.8319C102.258 62.8319 94.3696 47.9457 90.509 51.4936C87.5936 54.1764 97.4378 67.7104 97.4378 67.7104C97.4378 67.7104 90.5672 54.9616 87.4518 57.5899C84.0056 60.4981 92.3085 73.5558 92.3085 73.5558C85.5106 81.5751 85.5542 88.1767 86.1431 92.8662C86.2849 94.0004 110.263 91.234 110.263 91.234Z" fill="#EB9481"/>
  <path d="M109.165 62.5404C108.365 60.7882 107.565 59.007 106.609 57.3311C105.657 55.6553 104.643 54.0122 103.538 52.4345C100.826 48.563 98.5209 46.56 98.6518 46.6981C101.698 49.988 105.206 55.9316 106.162 57.6111C107.115 59.2833 108.151 60.9082 109.103 62.5804C109.129 62.624 109.183 62.5804 109.165 62.5404Z" fill="#263238"/>
  <path d="M103.177 66.0959C102.058 63.9038 101.025 61.6827 99.8112 59.5379C98.6007 57.404 97.2629 55.4846 95.9106 53.438C95.8052 53.2817 95.7543 53.3871 95.8561 53.5507C97.1284 55.6482 98.1426 57.6876 99.3895 59.7997C100.633 61.9045 101.967 63.9765 103.13 66.125C103.148 66.1577 103.196 66.125 103.181 66.0959H103.177Z" fill="#263238"/>
  <path d="M98.5862 70.0722C97.0485 66.6332 94.8746 63.4815 92.668 60.4388C92.559 60.2861 92.5081 60.4352 92.6135 60.5951C94.642 63.7614 96.2524 66.2297 98.4662 70.1267C98.5026 70.1885 98.6189 70.1449 98.5862 70.0722Z" fill="#263238"/>
  <path d="M92.312 73.5556C90.1309 70.1312 88.0697 66.565 86.881 62.6535C86.383 60.9413 85.7904 57.6878 88.1388 57.1243C88.7204 57.088 89.2184 57.3534 89.6583 57.6224C90.9488 58.4548 91.9485 59.7053 93.0245 60.7341L92.7664 60.9559C91.3923 58.5566 89.9528 56.0192 89.7564 53.2056C89.6329 51.4934 91.0651 50.4537 92.6792 50.8608C94.0787 51.2825 94.9912 52.4603 95.9509 53.4637L95.74 53.6236C94.5041 51.5842 91.854 45.6479 95.9836 45.3789C97.0887 45.4662 98.0448 46.135 98.8336 46.8621C97.7358 45.8697 95.8273 44.7718 94.5477 46.0332C92.9009 47.8872 94.9294 51.6642 95.9654 53.4855L96.587 54.5179L95.7546 53.6454C94.824 52.7003 93.897 51.5515 92.5992 51.1589C91.9739 50.9772 91.2832 51.1298 90.7489 51.4825C90.2218 51.8423 90.0655 52.5439 90.0836 53.1983C90.2945 55.9283 91.7413 58.4294 93.0572 60.7741L93.6643 61.7883L92.7955 60.9959C91.694 59.9416 90.7598 58.7311 89.4802 57.895C89.0694 57.6369 88.6077 57.4115 88.1606 57.4406C86.114 57.9859 86.7101 61.0431 87.1209 62.5881C88.2587 66.4778 90.2327 70.0912 92.3084 73.5556H92.312Z" fill="#263238"/>
  <path d="M112.597 97.7012L80.9487 99.3516C80.9487 99.3516 79.3855 132.763 83.3297 139.056C87.9029 146.348 104.225 141.669 107.315 124.733L112.597 97.7048V97.7012Z" fill="#B19CD9"/>
  <path d="M109.827 105.416C96.5838 107.47 84.7693 107.299 82.2937 107.499C82.1774 107.51 82.1737 107.317 82.2937 107.314C84.7366 107.241 98.5577 105.631 109.827 105.209C109.958 105.205 109.954 105.391 109.827 105.413V105.416Z" fill="#263238"/>
  <path d="M81.4324 131.051C81.2834 126.918 81.1125 122.785 81.0071 118.652C80.9017 114.518 80.9162 110.389 80.9853 106.259C81.0253 103.98 81.2143 101.857 81.3125 99.5775C82.4975 99.363 83.1991 99.3921 84.6423 99.1595C84.8204 99.1304 84.7659 98.705 84.5878 98.7232C83.0101 98.9013 80.6327 98.7996 80.6254 98.905C80.3418 103.035 80.3273 107.466 80.3128 111.61C80.2982 115.772 80.4109 119.935 80.6836 124.086C80.8362 126.42 81.0725 128.743 81.3742 131.059C81.3779 131.099 81.436 131.091 81.436 131.051H81.4324Z" fill="#263238"/>
  <path d="M10.4654 139.767C15.9982 143.406 27.2602 140.189 53.0703 135.346C56.6401 134.678 57.418 108.562 53.5647 109.082C48.7153 109.736 30.0339 113.324 28.7034 113.76C17.4596 117.428 6.71387 137.299 10.4691 139.77L10.4654 139.767Z" fill="#EB9481"/>
  <path d="M61.3698 105.576C69.3674 104.726 71.5521 105.733 77.9174 101.429C82.0943 98.604 85.6932 100.062 83.2103 104.682C79.1534 112.24 69.0656 115.508 65.2414 115.631L61.3662 105.576H61.3698Z" fill="#EB9481"/>
  <path d="M59.014 131.154C59.014 131.154 54.5245 136.36 58.3197 139.134C62.1185 141.907 65.7101 136.047 65.7101 136.047L59.014 131.158V131.154Z" fill="#455A64"/>
  <path d="M85.6638 95.4042V95.3933H85.6711L91.7056 92.416L93.3705 93.6302L92.3745 100.283V100.29H92.3672L65.5537 136.264L58.854 131.371L85.6638 95.4005V95.4042Z" fill="#455A64"/>
  <path d="M67.1011 135.332L59.2803 129.621L58.1461 131.174L65.9669 136.885L67.1011 135.332Z" fill="#263238"/>
  <path d="M68.3569 133.62L60.5361 127.908L59.402 129.461L67.2228 135.173L68.3569 133.62Z" fill="#263238"/>
  <path d="M60.5264 127.906L63.0492 129.749L69.4145 118.073L68.4475 117.447L60.5264 127.906Z" fill="#263238"/>
  <path d="M93.1382 93.4745L93.2654 92.6566C93.309 92.3766 93.0182 92.1622 92.7601 92.2858L92.0112 92.6529L93.1382 93.4745Z" fill="#455A64"/>
  <path opacity="0.5" d="M93.1382 93.4745L93.2654 92.6566C93.309 92.3766 93.0182 92.1622 92.7601 92.2858L92.0112 92.6529L93.1382 93.4745Z" fill="black"/>
  <path opacity="0.2" d="M92.0257 100.059C89.7937 98.9609 87.7652 97.4669 86.0566 95.6602C88.2887 96.7544 90.3171 98.2557 92.0257 100.059Z" fill="black"/>
  <path d="M39.9761 112.56C39.9761 112.56 49.0823 107.881 57.5124 106.129C63.3433 104.918 76.3247 103.697 88.281 116.849C91.1165 119.968 92.945 126.424 86.4634 123.015C81.8575 120.59 79.6691 117.66 76.7355 116.74C76.7355 116.74 78.0878 125.228 74.8525 127.948C73.4056 129.162 69.3814 132.386 65.888 134.451C65.888 134.451 65.2336 133.811 64.5211 132.884C64.5211 132.884 58.0904 136.803 50.9472 135.749L39.9761 112.563V112.56Z" fill="#EB9481"/>
  <path d="M63.2638 105.859C65.9829 107.39 71.6939 110.734 75.4127 115.093C79.546 119.935 86.1984 130.375 82.5959 133.389C79.9531 135.599 77.0595 131.837 77.0595 131.837C77.0595 131.837 78.8989 136.733 76.0743 138.206C73.5006 139.547 71.4394 136.504 71.4394 136.504C71.4394 136.504 72.0465 139.667 69.3164 140.481C66.0338 141.463 65.3031 134.676 61.119 132.796C60.1811 132.375 63.2638 105.859 63.2638 105.859Z" fill="#EB9481"/>
  <path d="M69.5706 118.605C71.8935 120.466 76.0813 126.043 77.1064 131.71C77.1282 131.837 77.0446 131.924 76.9974 131.812C74.5436 125.81 71.1083 120.717 69.5233 118.641C69.5015 118.612 69.5415 118.583 69.5706 118.601V118.605Z" fill="#263238"/>
  <path d="M64.805 122.92C66.6444 124.73 70.705 130.67 71.5484 136.454C71.5665 136.585 71.4756 136.665 71.4357 136.548C69.1273 130.172 66.2191 125.123 64.7577 122.956C64.7396 122.927 64.7832 122.898 64.805 122.92Z" fill="#263238"/>
  <path d="M48.8536 107.166L37.3117 143.9C37.3117 143.9 12.8248 144.078 8.65156 139.469C5.66704 136.175 16.0856 117.068 28.5508 113.033L48.8499 107.166H48.8536Z" fill="#B19CD9"/>
  <path d="M15.5512 123.006C16.769 120.726 21.393 115.444 28.5616 113.005C28.6234 112.983 28.6743 113.078 28.6125 113.107C23.4469 115.441 17.0016 120.974 15.6384 123.068C15.6021 123.122 15.5221 123.064 15.5512 123.006Z" fill="#263238"/>
  <path d="M32.1494 138.566C32.9819 134.938 34.007 131.361 35.0431 127.784C36.0791 124.207 37.1079 120.626 38.2348 117.071C38.871 115.064 39.4962 113.05 40.2014 111.069C40.2196 111.018 40.3105 111.036 40.2996 111.091C39.4708 114.712 38.4565 118.3 37.4496 121.877C36.439 125.461 35.3884 129.038 34.3051 132.604C33.6944 134.618 33.0437 136.621 32.3384 138.606C32.3021 138.704 32.1312 138.671 32.1567 138.566H32.1494Z" fill="#263238"/>
  <path d="M48.748 106.855C47.3084 107.048 45.9198 107.455 44.5202 107.841C43.1206 108.222 41.732 108.629 40.3433 109.048C37.5842 109.88 31.6406 111.334 26.9221 113.646C26.8712 113.672 27.2601 113.795 27.311 113.766C29.5031 112.552 47.1921 107.917 48.5626 107.368C48.5517 107.481 47.8792 109.833 47.8828 109.949C47.8864 110.029 47.9918 110.08 48.0391 110C48.1518 109.807 48.8679 107.368 48.9661 107.172C49.0461 107.008 48.9334 106.834 48.748 106.859V106.855Z" fill="#263238"/>
  <path d="M39.1547 138.035C38.6349 140.078 38.0714 142.11 37.4971 144.139C34.2472 144.219 31.0009 144.146 27.7546 143.971C22.9925 143.67 18.1758 143.226 13.5773 141.878C13.072 141.707 12.5703 141.525 12.0723 141.347C16.1764 142.412 20.4151 142.706 24.6283 143.045C28.8488 143.343 33.0803 143.532 37.3117 143.655L37.079 143.826C37.7479 141.888 38.4313 139.955 39.1547 138.035Z" fill="#263238"/>
  <path d="M107.6 141.896H53.9653V144.463H107.6V141.896Z" fill="#455A64"/>
  <path d="M107.6 141.896V144.463H76.3623L78.3253 141.896H107.6Z" fill="#37474F"/>
  <path d="M86.4062 144.463H132.894L140.146 109.1H93.6585L86.4062 144.463Z" fill="#37474F"/>
  <path d="M88.7471 144.463H135.234L142.487 109.1H95.9994L88.7471 144.463Z" fill="#455A64"/>
  <path d="M118.374 126.782C118.134 128.428 116.968 129.763 115.764 129.763C114.561 129.763 113.779 128.428 114.019 126.782C114.259 125.135 115.426 123.801 116.629 123.801C117.833 123.801 118.614 125.135 118.374 126.782Z" fill="white"/>
  <path d="M21.6807 144.521H48.7231V138.338H21.6807V144.521Z" fill="#263238"/>
  <path d="M6.93254 144.521H21.6807V138.338H6.93254V144.521Z" fill="#263238"/>
  <path d="M21.6807 143.879H48.7231V138.979H21.6807V143.879Z" fill="white"/>
  <path d="M46.9712 142.872C44.8628 142.897 42.7544 142.915 40.6496 142.922L34.3279 142.937L28.0062 142.922C25.8978 142.912 23.7894 142.893 21.6846 142.868C23.793 142.842 25.9014 142.824 28.0062 142.813L34.3279 142.799L40.6496 142.813C42.758 142.824 44.8664 142.842 46.9712 142.864V142.872Z" fill="#DBDBDB"/>
  <path d="M46.9712 141.909C44.8628 141.934 42.7544 141.952 40.6496 141.96L34.3279 141.974L28.0062 141.96C25.8978 141.949 23.7894 141.93 21.6846 141.905C23.793 141.88 25.9014 141.861 28.0062 141.85L34.3279 141.836L40.6496 141.85C42.758 141.861 44.8664 141.88 46.9712 141.901V141.909Z" fill="#DBDBDB"/>
  <path d="M46.9712 140.948C44.8628 140.973 42.7544 140.991 40.6496 140.999L34.3279 141.013L28.0062 140.999C25.8978 140.988 23.7894 140.97 21.6846 140.944C23.793 140.919 25.9014 140.9 28.0062 140.89L34.3279 140.875L40.6496 140.89C42.758 140.9 44.8664 140.919 46.9712 140.94V140.948Z" fill="#DBDBDB"/>
  <path d="M46.9712 139.985C44.8628 140.01 42.7544 140.028 40.6496 140.036L34.3279 140.05L28.0062 140.036C25.8978 140.025 23.7894 140.007 21.6846 139.981C23.793 139.956 25.9014 139.938 28.0062 139.927L34.3279 139.912L40.6496 139.927C42.758 139.938 44.8664 139.956 46.9712 139.978V139.985Z" fill="#DBDBDB"/>
  <path d="M44.132 140.578V144.704L41.671 142.654L39.2099 144.704V140.578C39.2099 140.229 38.9264 139.949 38.5811 139.949H43.5032C43.8521 139.949 44.132 140.233 44.132 140.578Z" fill="#B19CD9"/>
  <path d="M48.8576 133.902H3.88623V138.334H48.8576V133.902Z" fill="#37474F"/>
  <path d="M44.0918 133.902H39.9004V138.334H44.0918V133.902Z" fill="#455A64"/>
  <path d="M37.1484 133.902H35.5234V138.334H37.1484V133.902Z" fill="#455A64"/>
  <path d="M26.6135 133.9H54.6011V127.048H26.6135V133.9Z" fill="#B19CD9"/>
  <path d="M5.23499 133.9H26.6138V127.048H5.23499V133.9Z" fill="#B19CD9"/>
  <path opacity="0.2" d="M5.23499 133.9H26.6138V127.048H5.23499V133.9Z" fill="black"/>
  <path d="M27.5332 133.189H54.6011V127.762H27.5332V133.189Z" fill="white"/>
  <path d="M52.8489 132.074C50.7405 132.114 48.6284 132.14 46.52 132.154L40.1911 132.18L33.8621 132.154C31.7537 132.14 29.6416 132.114 27.5332 132.074C29.6416 132.034 31.7537 132.009 33.8621 131.994L40.1911 131.969L46.52 131.994C48.6284 132.009 50.7405 132.034 52.8489 132.074Z" fill="#DBDBDB"/>
  <path d="M52.8489 131.008C50.7405 131.048 48.6284 131.073 46.52 131.088L40.1911 131.113L33.8621 131.088C31.7537 131.073 29.6416 131.048 27.5332 131.008C29.6416 130.968 31.7537 130.942 33.8621 130.928L40.1911 130.902L46.52 130.928C48.6284 130.942 50.7405 130.968 52.8489 131.008Z" fill="#DBDBDB"/>
  <path d="M52.8489 129.943C50.7405 129.983 48.6284 130.009 46.52 130.023L40.1911 130.049L33.8621 130.023C31.7537 130.009 29.6416 129.983 27.5332 129.943C29.6416 129.903 31.7537 129.878 33.8621 129.863L40.1911 129.838L46.52 129.863C48.6284 129.878 50.7405 129.903 52.8489 129.943Z" fill="#DBDBDB"/>
  <path d="M52.8489 128.877C50.7405 128.917 48.6284 128.942 46.52 128.957L40.1911 128.982L33.8621 128.957C31.7537 128.942 29.6416 128.917 27.5332 128.877C29.6416 128.837 31.7537 128.811 33.8621 128.797L40.1911 128.771L46.52 128.797C48.6284 128.811 50.7405 128.837 52.8489 128.877Z" fill="#DBDBDB"/>
  <path d="M32.6628 120.197H8.09961V127.05H32.6628V120.197Z" fill="#455A64"/>
  <path d="M46.5892 120.197H32.6626V127.05H46.5892V120.197Z" fill="#455A64"/>
  <path d="M32.6628 120.91H8.09961V126.338H32.6628V120.91Z" fill="white"/>
  <path d="M9.68799 122.025C11.6038 121.985 13.5159 121.96 15.4316 121.945L21.1753 121.92L26.919 121.945C28.8347 121.96 30.7469 121.985 32.6626 122.025C30.7469 122.065 28.8347 122.091 26.919 122.105L21.1753 122.131L15.4316 122.105C13.5159 122.091 11.6038 122.062 9.68799 122.025Z" fill="#DBDBDB"/>
  <path d="M9.68799 123.092C11.6038 123.052 13.5159 123.026 15.4316 123.012L21.1753 122.986L26.919 123.012C28.8347 123.026 30.7469 123.052 32.6626 123.092C30.7469 123.132 28.8347 123.157 26.919 123.172L21.1753 123.197L15.4316 123.172C13.5159 123.157 11.6038 123.132 9.68799 123.092Z" fill="#DBDBDB"/>
  <path d="M9.68799 124.156C11.6038 124.116 13.5159 124.091 15.4316 124.076L21.1753 124.051L26.919 124.076C28.8347 124.091 30.7469 124.116 32.6626 124.156C30.7469 124.196 28.8347 124.222 26.919 124.236L21.1753 124.262L15.4316 124.236C13.5159 124.222 11.6038 124.196 9.68799 124.156Z" fill="#DBDBDB"/>
  <path d="M9.68799 125.223C11.6038 125.183 13.5159 125.157 15.4316 125.143L21.1753 125.117L26.919 125.143C28.8347 125.157 30.7469 125.183 32.6626 125.223C30.7469 125.263 28.8347 125.288 26.919 125.303L21.1753 125.328L15.4316 125.303C13.5159 125.288 11.6038 125.263 9.68799 125.223Z" fill="#DBDBDB"/>
  <path d="M13.1489 122.654V128.787L15.61 126.737L18.071 128.787V122.654C18.071 122.305 18.3546 122.025 18.6999 122.025H13.7778C13.4288 122.025 13.1489 122.309 13.1489 122.654Z" fill="#263238"/>
  <path d="M130.064 128.323L129.693 129.699L138.505 132.079L138.877 130.703L130.064 128.323Z" fill="#EBEBEB"/>
  <path d="M138.876 130.699L138.553 132.088L138.542 132.135C135.946 131.535 132.257 130.561 129.643 129.871L129.465 129.823L129.512 129.649C129.53 129.572 129.937 128.118 129.937 128.107C132.918 128.922 135.943 129.809 138.869 130.699H138.876ZM138.876 130.699C135.877 129.983 132.966 129.274 130.017 128.485L130.228 128.362L129.865 129.74L129.737 129.518C132.333 130.234 135.979 131.241 138.517 132.023L138.455 132.059L138.876 130.696V130.699Z" fill="#263238"/>
  <path opacity="0.1" d="M130.066 128.318L129.82 129.227L138.633 131.606L138.878 130.697L130.066 128.318Z" fill="black"/>
  <path d="M120.606 121.796C121.253 123.54 122.812 125.089 124.993 125.256C125.302 125.282 125.622 125.278 125.957 125.242C126.411 125.195 126.88 125.093 127.378 124.922L126.706 122.959C126.437 123.057 126.182 123.119 125.942 123.155C123.587 123.54 122.707 121.527 122.547 121.079C121.798 119.055 122.412 115.063 124.037 113.9C124.146 113.813 124.55 113.733 125.888 114.416C126.135 114.547 126.411 114.692 126.724 114.874C127.069 115.081 127.273 115.201 127.484 115.267L127.789 114.282L128.156 113.315C128.069 113.275 127.938 113.195 127.763 113.089C127.265 112.802 126.597 112.409 125.873 112.133C124.859 111.744 123.728 111.573 122.834 112.217C120.188 114.114 119.664 119.258 120.602 121.796H120.606Z" fill="#EBEBEB"/>
  <path d="M120.606 121.795C121.613 124.576 124.605 125.961 127.367 124.885L127.342 124.936L126.655 122.98L126.731 123.017C126.404 123.137 126.059 123.227 125.706 123.253C122.736 123.54 121.831 120.334 122.173 117.938C122.362 116.484 122.711 114.877 123.874 113.87C124.092 113.63 124.474 113.718 124.728 113.79C125.735 114.07 126.6 114.746 127.524 115.157L127.371 115.237L127.68 114.248L128.051 113.281L128.109 113.423C126.524 112.514 124.325 111.028 122.642 112.46C120.228 114.543 119.686 118.872 120.606 121.802V121.795ZM120.606 121.795C119.795 119.247 120.112 116.324 121.315 113.95C121.936 112.791 123.027 111.569 124.467 111.722C125.852 111.824 127.062 112.576 128.204 113.216L128.294 113.267L128.262 113.358L127.902 114.325C127.88 114.405 127.578 115.375 127.564 115.426C126.411 115.023 125.444 114.056 124.198 113.987C124.118 113.994 124.103 114.034 124.041 114.081C122.958 115.026 122.598 116.582 122.413 117.967C122.078 120.236 122.849 123.358 125.692 123.118C126.052 123.1 126.404 123.009 126.746 122.889L126.764 122.948L127.418 124.914L127.433 124.954C126.757 125.18 126.048 125.314 125.335 125.3C123.202 125.3 121.304 123.776 120.606 121.799V121.795Z" fill="#263238"/>
  <path opacity="0.1" d="M126.71 122.963C126.441 123.061 126.186 123.123 125.946 123.159L125.957 125.242C126.412 125.195 126.881 125.093 127.379 124.922L126.706 122.959L126.71 122.963Z" fill="black"/>
  <path opacity="0.1" d="M125.874 112.137L125.888 114.423C126.135 114.554 126.412 114.7 126.724 114.881C127.07 115.089 127.273 115.208 127.484 115.274L127.789 114.289L128.156 113.322C128.069 113.282 127.938 113.202 127.764 113.096C127.266 112.809 126.597 112.417 125.874 112.14V112.137Z" fill="black"/>
  <path d="M150.684 116.05C150.684 116.05 147.201 124.745 144.355 128.035C141.509 131.318 138.848 131.052 137.263 130.627C135.678 130.198 135.823 130.238 134.384 129.849C132.94 129.46 133.089 129.5 131.501 129.071C129.916 128.642 127.484 127.533 126.677 123.262C125.873 118.987 127.24 109.721 127.24 109.721L150.684 116.05Z" fill="#EBEBEB"/>
  <path d="M150.684 116.049C149.924 117.954 149.099 119.83 148.216 121.68C146.729 124.614 145.282 127.842 142.523 129.809C139.673 131.812 137.346 130.721 134.355 129.947C131.105 129.056 128.662 128.878 127.164 125.381C126.317 123.334 126.259 121.081 126.306 118.899C126.386 115.78 126.713 112.672 127.153 109.586C133.053 111.196 144.795 114.414 150.684 116.049ZM150.684 116.049C144.828 114.515 133.057 111.382 127.211 109.822L127.342 109.735C126.932 112.774 126.626 115.839 126.561 118.907C126.532 121.175 126.575 123.542 127.553 125.628C128.975 128.729 131.501 128.918 134.406 129.743L137.372 130.55C138.841 130.961 140.436 130.805 141.774 130.067C144.039 128.824 145.457 126.548 146.693 124.356C148.198 121.677 149.488 118.881 150.68 116.046L150.684 116.049Z" fill="#263238"/>
  <g opacity="0.1">
    <path d="M147.415 123.172C147.012 123.95 146.59 124.714 146.161 125.426L126.426 120.097C126.415 119.268 126.437 118.396 126.477 117.52L147.415 123.172Z" fill="black"/>
    <path d="M145.645 126.264C145.394 126.657 145.143 127.024 144.896 127.358L126.553 122.403C126.505 121.989 126.476 121.545 126.455 121.08L145.645 126.264Z" fill="black"/>
    <path d="M148.485 121.023C148.306 121.398 148.121 121.779 147.925 122.168L126.546 116.396C126.571 115.963 126.604 115.538 126.64 115.127L148.485 121.027V121.023Z" fill="black"/>
  </g>
  <path d="M140.494 143.035H131.366V144.46H140.494V143.035Z" fill="#B19CD9"/>
  <path d="M131.366 143.032L131.402 144.457L131.362 144.417C132.882 144.377 134.405 144.366 135.925 144.34L140.487 144.319L140.352 144.453L140.359 143.028L140.49 143.159C137.869 143.159 134.027 143.079 131.362 143.024L131.366 143.032ZM131.366 143.032C134.074 142.981 137.818 142.901 140.494 142.904H140.625V143.035L140.632 144.46V144.598H140.498C137.789 144.584 134.001 144.569 131.33 144.497V144.46L131.37 143.035L131.366 143.032Z" fill="#263238"/>
  <path opacity="0.1" d="M140.494 143.037H131.366V143.979H140.494V143.037Z" fill="black"/>
  <path d="M151.327 139.21C150.247 140.726 148.335 141.812 146.187 141.405C145.881 141.347 145.576 141.26 145.26 141.14C144.834 140.976 144.405 140.755 143.969 140.46L145.129 138.741C145.365 138.904 145.594 139.032 145.812 139.13C147.986 140.115 149.364 138.403 149.633 138.01C150.883 136.251 151.334 132.237 150.066 130.692C149.982 130.58 149.615 130.398 148.146 130.71C147.873 130.772 147.568 130.841 147.219 130.936C146.834 131.045 146.605 131.107 146.383 131.114L146.347 130.082L146.245 129.053C146.339 129.035 146.488 128.995 146.681 128.94C147.237 128.791 147.983 128.587 148.757 128.511C149.837 128.398 150.971 128.529 151.669 129.384C153.726 131.906 152.89 137.007 151.323 139.213L151.327 139.21Z" fill="#B19CD9"/>
  <path d="M151.327 139.209C150.135 140.932 147.906 141.91 145.845 141.354C145.154 141.179 144.504 140.867 143.911 140.474L143.933 140.438L145.078 138.708L145.111 138.657C145.409 138.86 145.725 139.042 146.067 139.155C148.75 140.129 150.306 137.315 150.575 135.036C150.756 133.655 150.818 132.055 150.018 130.859C149.971 130.797 149.967 130.754 149.891 130.728C148.67 130.47 147.485 131.15 146.263 131.237C146.263 131.201 146.23 130.161 146.227 130.085L146.132 129.06L146.125 128.965L146.227 128.94C147.495 128.62 148.862 128.213 150.226 128.474C151.658 128.707 152.388 130.168 152.687 131.448C153.228 134.054 152.77 136.959 151.323 139.206L151.327 139.209ZM151.327 139.209C152.977 136.625 153.584 132.302 151.8 129.659C150.549 127.835 148.037 128.7 146.27 129.161L146.361 129.041L146.467 130.074L146.507 131.11L146.383 130.994C147.383 130.841 148.393 130.412 149.437 130.405C149.698 130.405 150.095 130.416 150.24 130.706C151.098 131.982 151.018 133.625 150.818 135.076C150.458 138.06 148.143 140.881 145.093 138.791L145.176 138.777L144.002 140.485L143.991 140.427C144.562 140.816 145.187 141.129 145.856 141.31C147.899 141.881 150.127 140.918 151.327 139.209Z" fill="#263238"/>
  <path opacity="0.1" d="M145.133 138.744C145.369 138.908 145.598 139.035 145.816 139.133L145.26 141.143C144.834 140.98 144.405 140.758 143.969 140.464L145.129 138.744H145.133Z" fill="black"/>
  <path opacity="0.1" d="M148.764 128.512L148.153 130.715C147.881 130.776 147.575 130.846 147.226 130.94C146.841 131.049 146.612 131.111 146.39 131.118L146.354 130.086L146.252 129.057C146.346 129.039 146.496 128.999 146.688 128.944C147.244 128.795 147.99 128.592 148.764 128.515V128.512Z" fill="black"/>
  <path d="M123.794 125.811C123.794 125.811 124.885 135.113 126.775 139.032C128.665 142.943 131.304 143.383 132.944 143.383C134.583 143.383 134.434 143.383 135.925 143.383C137.422 143.383 137.266 143.383 138.913 143.383C140.552 143.383 143.192 142.947 145.085 139.036C146.979 135.117 148.077 125.818 148.077 125.818L123.794 125.811Z" fill="#B19CD9"/>
  <path d="M123.794 125.811C124.205 128.857 124.721 131.893 125.473 134.874C126.095 137.313 126.869 139.879 128.731 141.672C129.828 142.733 131.33 143.3 132.857 143.286H135.932C138.949 143.238 141.439 143.718 143.62 141.097C145.111 139.338 145.769 137.066 146.332 134.866C147.07 131.889 147.576 128.85 147.972 125.807L148.077 125.924C142.025 125.916 129.847 125.851 123.794 125.811ZM123.794 125.811C129.908 125.775 142.083 125.72 148.197 125.713C147.812 128.81 147.318 131.893 146.583 134.925C146.063 137.044 145.416 139.203 144.064 140.959C141.712 143.94 139.295 143.482 135.932 143.489C132.842 143.453 130.316 143.907 128.084 141.224C125.935 138.603 125.379 135.11 124.71 131.889C124.339 129.872 124.034 127.843 123.798 125.807L123.794 125.811Z" fill="#263238"/>
  <g opacity="0.1">
    <path d="M125.088 133.539C125.277 134.393 125.484 135.24 125.71 136.04L146.15 136.047C146.379 135.248 146.587 134.401 146.776 133.546L125.088 133.539Z" fill="black"/>
    <path d="M125.99 136.99C126.132 137.434 126.273 137.855 126.43 138.241L145.431 138.248C145.584 137.863 145.729 137.441 145.871 136.998L125.99 136.99Z" fill="black"/>
    <path d="M124.619 131.184C124.692 131.591 124.772 132.009 124.859 132.434L147.001 132.441C147.088 132.016 147.168 131.598 147.245 131.191L124.619 131.184Z" fill="black"/>
  </g>
  <path d="M124.146 134.982H91.8945V144.463H124.146V134.982Z" fill="#EBEBEB"/>
  <path d="M136.404 134.982H124.146V144.463H136.404V134.982Z" fill="#C7C7C7"/>
  <path d="M124.146 140.719H91.8945L117.083 141.518L124.146 140.719Z" fill="#C7C7C7"/>
  <path d="M124.146 136.156H103.716L121.877 136.807L124.146 136.156Z" fill="#C7C7C7"/>
  <path d="M91.8945 139.004H114.938L111.096 139.397L91.8945 139.004Z" fill="#C7C7C7"/>
  <path d="M109.264 138.857H124.208L126.88 139.901L109.264 138.857Z" fill="#EBEBEB"/>
  <path d="M109.351 137.223H124.295L126.967 138.262L109.351 137.223Z" fill="#C7C7C7"/>
  <path d="M106.955 137.186H92.0108L89.3389 138.229L106.955 137.186Z" fill="#EBEBEB"/>
  <path d="M124.146 137.705H136.15L138.818 138.748L124.146 137.705Z" fill="#C7C7C7"/>
  <path d="M128.334 141.442H137.644L136.404 140.588L128.334 141.442Z" fill="#C7C7C7"/>
  <path d="M26.4254 158.29C25.6439 158.479 24.6224 158.574 24.5242 158.127C24.4261 157.679 24.7605 157.399 24.626 157.185C24.4915 156.971 23.8117 156.614 23.4809 156.338C23.1501 156.065 22.8738 155.556 22.8629 155.444C22.852 155.331 22.6448 155.16 22.812 154.917C22.9792 154.673 23.0556 154.32 23.1937 154.139C23.3319 153.953 23.3827 153.761 23.1319 153.477C22.8811 153.197 22.9865 152.31 23.2991 151.976C23.6118 151.641 24.6587 152.267 24.9568 152.165C25.2513 152.059 25.2767 151.907 25.5239 151.692C25.7711 151.478 26.3709 150.965 27.0507 150.9C27.7305 150.834 28.1267 151.409 28.5666 151.634C29.0064 151.859 29.3881 151.863 29.7807 151.976C30.1734 152.092 30.6205 152.394 30.7114 152.536C30.8023 152.681 31.0676 152.692 30.9949 153.117C30.9222 153.543 30.7405 153.673 30.7732 154.015C30.8059 154.357 30.8059 154.415 30.8459 154.8C30.8859 155.186 31.2494 155.836 31.0131 156.164C30.7768 156.491 30.6314 156.96 30.2133 157C29.7989 157.04 28.4539 156.934 28.4539 156.934C28.4539 156.934 28.3158 157.098 28.1231 157.461C27.9268 157.821 27.5524 158.087 27.2579 158.076C26.9598 158.065 26.4291 158.286 26.4291 158.286L26.4254 158.29Z" fill="white"/>
  <path d="M26.4252 158.29C25.7127 158.453 24.0441 158.788 24.593 157.508C24.633 157.392 24.6766 157.257 24.5894 157.163C24.2331 156.81 23.7387 156.621 23.357 156.272C23.0699 155.996 22.8881 155.669 22.7463 155.301C22.6773 155.185 22.6736 155 22.7645 154.887C22.899 154.683 22.9572 154.436 23.0771 154.196C23.1498 154.065 23.2262 153.989 23.2335 153.884C23.2625 153.713 23.0808 153.567 23.0044 153.426C22.8081 152.928 22.899 152.28 23.2589 151.873C23.7678 151.528 24.4331 152.099 24.942 152.041C25.0474 152.001 25.1201 151.946 25.2001 151.852C25.7345 151.281 26.4179 150.746 27.2686 150.768C27.8684 150.826 28.2319 151.314 28.6281 151.524C29.3406 151.859 30.2785 151.797 30.8093 152.491C31.3764 152.862 30.9729 153.407 30.8602 153.855C30.8456 154.044 30.8856 154.393 30.9001 154.596C30.8856 155.127 31.26 155.57 31.1037 156.112C30.8747 156.428 30.7475 156.839 30.3694 157.006C29.7623 157.104 29.0316 156.988 28.4682 156.952C28.1519 157.37 27.9556 157.977 27.3703 158.079C27.0432 158.079 26.7305 158.17 26.4288 158.293L26.4252 158.29ZM26.4252 158.29C26.7233 158.166 27.0395 158.068 27.3631 158.064C27.9411 157.951 28.1265 157.348 28.4391 156.926C28.9408 156.941 29.4642 156.995 29.9732 156.981C30.5475 157.061 30.7547 156.461 31.0019 156.068C31.1037 155.727 30.8892 155.338 30.8056 154.992C30.7511 154.767 30.7329 154.454 30.7075 154.225C30.6966 154.102 30.6711 153.974 30.6857 153.825C30.7366 153.535 30.8711 153.335 30.8929 153.091C30.9474 152.818 30.7984 152.779 30.6311 152.615C30.0895 151.982 29.2534 152.091 28.5045 151.739C28.0574 151.503 27.7375 151.07 27.2358 151.026C26.6651 150.99 26.0762 151.364 25.6327 151.75C25.4291 151.91 25.291 152.175 25.022 152.259C24.4731 152.364 24.0368 151.939 23.5097 151.986C23.088 152.077 22.9317 153.215 23.2444 153.487C23.3243 153.593 23.397 153.738 23.3752 153.898C23.357 154.054 23.2407 154.167 23.1898 154.258C23.0735 154.469 23.0081 154.727 22.8518 154.945C22.7209 155.109 22.8627 155.265 22.9063 155.439C23.1607 156.276 24.0041 156.585 24.6112 157.134C24.7784 157.373 24.5167 157.624 24.5167 157.875C24.4222 158.755 25.9126 158.369 26.4179 158.286L26.4252 158.29Z" fill="#C7C7C7"/>
  <path d="M23.4257 153.863C23.8438 153.416 24.2945 153.016 24.7199 152.594L25.0507 152.293L25.2179 152.14C25.3633 152.027 25.4615 152.009 25.5523 151.976C25.894 151.889 26.203 151.875 26.5193 151.856C27.1482 151.824 27.7662 151.867 28.3987 151.962C28.7259 152.024 29.0094 152.06 29.4057 152.275C29.6711 152.434 29.8019 152.696 29.8528 152.893C29.9146 153.103 29.9292 153.292 29.9255 153.467C29.9037 154.172 29.7183 154.776 29.5002 155.372C29.3839 155.666 29.2494 155.953 29.0967 156.241C29.0167 156.382 28.9331 156.524 28.8277 156.67C28.7477 156.793 28.4969 157.022 28.3224 157.062C27.6062 157.302 27.0101 157.222 26.3884 157.186C25.7777 157.109 25.1743 157.029 24.5817 156.866C25.1925 156.822 25.7959 156.811 26.3884 156.739C26.9664 156.684 27.6099 156.615 28.0279 156.415C28.1443 156.353 28.1115 156.357 28.2024 156.233C28.2642 156.128 28.3297 156.004 28.3878 155.877C28.5005 155.623 28.6059 155.354 28.6895 155.081C28.864 154.543 29.0167 153.965 29.0167 153.46C29.0349 153.209 29.2203 153.005 29.2203 153.027C29.093 152.94 28.4896 152.86 28.2315 152.802C27.6789 152.671 27.0864 152.613 26.5084 152.562C26.2212 152.54 25.9231 152.536 25.6723 152.558C25.6178 152.562 25.5669 152.584 25.5851 152.558L25.3924 152.682L25.0034 152.933C24.4727 153.245 23.9601 153.58 23.4185 153.863H23.4257Z" fill="#DBDBDB"/>
  <path d="M25.3018 152.707C25.3345 153.289 25.32 153.845 25.3563 154.354C25.3781 154.59 25.4327 154.881 25.4945 154.895C25.5017 154.91 25.4945 154.877 25.4726 154.877C25.4872 154.866 25.4726 154.877 25.5235 154.877C25.6035 154.877 25.7235 154.859 25.8362 154.841C26.3233 154.761 26.8504 154.616 27.3848 154.503C27.9192 154.383 28.4681 154.274 29.0497 154.23C28.6135 154.623 28.13 154.917 27.6211 155.168C27.1121 155.423 26.5814 155.619 25.9779 155.735C25.818 155.753 25.6617 155.772 25.4654 155.761C25.3781 155.761 25.2291 155.724 25.1128 155.681C24.971 155.604 24.8438 155.503 24.7856 155.39C24.542 154.935 24.6111 154.63 24.6475 154.325C24.7492 153.729 24.971 153.198 25.2982 152.711L25.3018 152.707Z" fill="#DBDBDB"/>
  <path d="M144.998 139.474C145.9 138.729 147.172 137.954 147.587 138.474C148.001 138.994 147.743 139.576 148.055 139.772C148.368 139.968 149.484 139.997 150.091 140.143C150.698 140.288 151.382 140.775 151.469 140.917C151.556 141.059 151.934 141.15 151.872 141.575C151.811 142 151.938 142.506 151.872 142.836C151.807 143.164 151.869 143.451 152.374 143.658C152.883 143.865 153.308 145.09 153.116 145.726C152.923 146.363 151.153 146.214 150.833 146.541C150.513 146.864 150.582 147.079 150.397 147.519C150.211 147.955 149.757 149.009 148.91 149.529C148.063 150.045 147.179 149.551 146.46 149.54C145.74 149.525 145.242 149.769 144.657 149.867C144.071 149.965 143.293 149.86 143.086 149.729C142.875 149.598 142.519 149.751 142.345 149.147C142.17 148.544 142.319 148.26 142.061 147.835C141.803 147.413 141.763 147.333 141.465 146.853C141.167 146.373 140.272 145.759 140.374 145.181C140.472 144.603 140.363 143.894 140.883 143.578C141.399 143.262 143.221 142.538 143.221 142.538C143.221 142.538 143.293 142.237 143.319 141.64C143.341 141.044 143.664 140.459 144.057 140.284C144.449 140.11 145.002 139.481 145.002 139.481L144.998 139.474Z" fill="white"/>
  <path d="M144.999 139.474C145.602 139.02 147.329 137.547 147.776 138.78C147.936 139.085 147.776 139.598 148.114 139.779C148.808 140.016 149.572 139.947 150.291 140.165C150.837 140.339 151.284 140.659 151.698 141.044C151.858 141.15 151.971 141.375 151.931 141.575C151.884 141.931 151.964 142.295 151.96 142.677C151.949 142.88 151.895 143.044 151.953 143.2C152.025 143.458 152.353 143.531 152.556 143.669C153.105 144.163 153.4 145.09 153.192 145.81C153.062 146.105 152.702 146.21 152.429 146.286C151.942 146.439 151.298 146.37 150.895 146.65C150.637 146.908 150.648 147.304 150.488 147.624C150.113 148.486 149.626 149.373 148.692 149.78C147.95 150.074 147.176 149.7 146.456 149.66C145.304 149.674 144.173 150.361 143.01 149.802C142.89 149.747 142.752 149.754 142.614 149.682C142.403 149.576 142.305 149.362 142.254 149.18C142.134 148.831 142.181 148.428 142.087 148.089C141.978 147.82 141.709 147.406 141.556 147.141C141.382 146.806 141.149 146.548 140.891 146.275C140.654 145.999 140.364 145.716 140.316 145.309C140.4 144.763 140.316 144.138 140.691 143.684C141.443 143.146 142.37 142.895 143.21 142.52C143.323 141.84 143.225 140.848 143.904 140.357C144.33 140.146 144.679 139.827 144.995 139.474H144.999ZM144.999 139.474C144.686 139.827 144.333 140.154 143.915 140.365C143.228 140.881 143.374 141.79 143.232 142.535C142.418 142.924 141.472 143.182 140.742 143.727C140.4 144.156 140.495 144.785 140.418 145.298C140.56 146.006 141.374 146.414 141.68 147.061C141.858 147.355 142.112 147.711 142.25 148.031C142.316 148.224 142.323 148.42 142.341 148.598C142.385 148.995 142.461 149.544 142.948 149.558C143.014 149.569 143.105 149.602 143.166 149.638C144.261 150.067 145.348 149.416 146.46 149.402C147.194 149.427 147.899 149.791 148.594 149.522C149.394 149.187 149.913 148.318 150.255 147.522C150.437 147.137 150.444 146.621 150.855 146.37C151.335 146.163 151.887 146.181 152.374 146.057C152.698 145.977 153.043 145.883 153.051 145.487C153.072 144.847 152.865 143.953 152.225 143.673C152.055 143.585 151.876 143.451 151.811 143.244C151.738 143.04 151.811 142.829 151.822 142.669C151.836 142.313 151.76 141.939 151.818 141.557C151.887 141.252 151.597 141.128 151.422 140.928C150.553 139.994 149.237 140.136 148.099 139.808C147.736 139.608 147.914 139.107 147.75 138.787C147.325 137.573 145.595 139.034 144.999 139.47V139.474Z" fill="#C7C7C7"/>
  <path d="M142.058 147.828C142.919 147.727 143.777 147.588 144.628 147.439C145.482 147.305 146.336 147.163 147.183 146.996C148.023 146.818 148.885 146.669 149.663 146.403C149.844 146.341 150.055 146.247 150.124 146.189L150.411 145.727C150.626 145.364 150.826 144.996 150.975 144.622C151.124 144.251 151.24 143.862 151.229 143.502C151.233 143.412 151.215 143.328 151.207 143.241L151.175 143.117L151.16 143.063C151.149 143.026 150.957 142.917 150.786 142.859C150.037 142.601 149.157 142.532 148.314 142.437C147.46 142.357 146.598 142.321 145.736 142.314C145.304 142.303 144.871 142.299 144.442 142.314C144.228 142.321 144.01 142.332 143.799 142.354C143.69 142.361 143.584 142.375 143.479 142.394C143.388 142.419 143.235 142.419 143.217 142.528C143.217 142.408 143.377 142.383 143.464 142.339C143.57 142.303 143.675 142.274 143.781 142.245C143.995 142.194 144.21 142.157 144.424 142.121C144.857 142.052 145.289 142.001 145.726 141.957C146.598 141.892 147.47 141.867 148.347 141.877C149.226 141.896 150.099 141.947 151.011 142.205C151.24 142.292 151.484 142.346 151.738 142.659C151.767 142.699 151.796 142.75 151.818 142.804L151.851 142.906L151.902 143.099C151.92 143.226 151.945 143.357 151.942 143.484C151.956 143.997 151.815 144.458 151.647 144.891C151.473 145.32 151.251 145.713 151.018 146.094L150.84 146.374L150.749 146.512L150.699 146.589C150.662 146.632 150.626 146.676 150.586 146.716C150.31 146.927 150.102 146.978 149.877 147.054C148.997 147.305 148.143 147.443 147.271 147.545C145.537 147.745 143.803 147.901 142.058 147.828Z" fill="#DBDBDB"/>
  <path d="M145.646 147.393C145.653 146.593 145.74 145.801 145.875 145.019C145.936 144.626 146.027 144.238 146.122 143.849C146.169 143.652 146.234 143.46 146.3 143.263C146.38 143.06 146.427 142.882 146.594 142.634C146.616 142.602 146.638 142.576 146.667 142.543C146.722 142.493 146.791 142.449 146.863 142.416C147.001 142.354 147.107 142.391 147.209 142.398C147.332 142.434 147.452 142.474 147.547 142.514C147.747 142.602 147.928 142.689 148.107 142.791C148.456 142.994 148.801 143.198 149.124 143.43C149.771 143.889 150.422 144.361 150.949 144.975L148.837 143.918C148.485 143.747 148.143 143.561 147.794 143.401C147.623 143.321 147.449 143.234 147.285 143.172C147.198 143.136 147.129 143.118 147.063 143.1C147.071 143.111 147.063 143.1 147.121 143.092C147.15 143.089 147.18 143.071 147.194 143.045C147.194 143.049 147.187 143.063 147.18 143.074C147.118 143.147 147.034 143.343 146.972 143.507L146.787 144.045L146.431 145.154C146.194 145.902 145.954 146.651 145.653 147.393H145.646Z" fill="#DBDBDB"/>
  <path d="M20.7904 142.953C20.3868 141.728 20.4595 140.31 19.0782 140.459C17.7004 140.608 16.8716 138.885 16.25 138.47C15.6283 138.056 13.4217 138.47 12.9419 138.885C12.4584 139.299 12.2512 140.103 11.7714 140.459C11.2879 140.815 10.6008 141.368 9.97918 141.917C9.35756 142.469 8.46329 143.225 8.73957 144.607C9.01585 145.985 9.63747 146.457 10.0483 147.151C10.4627 147.846 9.77198 149.089 10.3245 150.674C10.8771 152.259 13.5635 152.881 14.2542 152.604C14.9449 152.328 16.7843 151.157 17.7949 151.157C18.8055 151.157 19.0818 151.986 19.9761 151.503C20.874 151.019 22.1826 149.987 22.2517 149.572C22.3208 149.158 21.492 148.795 21.7682 148.151C22.0445 147.504 23.146 146.294 23.0078 145.486C22.8697 144.679 21.0993 143.894 20.7904 142.956V142.953Z" fill="white"/>
  <path d="M20.7901 142.953C20.4557 142.138 20.5648 140.822 19.5723 140.495C19.107 140.415 18.5945 140.557 18.1619 140.292C17.5075 139.957 17.0749 139.346 16.5915 138.816C16.4315 138.641 16.2606 138.463 16.0316 138.405C15.1119 138.216 14.1013 138.434 13.2434 138.768C12.56 139.081 12.4473 139.932 11.9238 140.422C11.1204 141.139 9.90627 141.971 9.25193 142.803C8.18317 144.207 9.2592 145.893 10.1571 147.082C10.3243 147.369 10.328 147.729 10.3098 148.035C10.2298 148.972 10.1317 149.939 10.5279 150.808C11.1713 152.008 12.7926 152.6 14.0941 152.528C14.9556 152.211 15.8099 151.637 16.686 151.328C17.1331 151.165 17.6348 151.001 18.1364 151.106C18.6417 151.186 19.0234 151.586 19.4706 151.579C19.9286 151.55 20.3321 151.205 20.7174 150.972C21.2046 150.63 21.6953 150.274 22.0734 149.816C22.3824 149.492 22.0843 149.212 21.8734 148.918C21.7317 148.722 21.6299 148.46 21.7135 148.22C22.0479 147.268 23.5747 146.039 22.7568 145.021C22.157 144.287 21.1682 143.858 20.7865 142.949L20.7901 142.953ZM20.7901 142.953C21.1791 143.858 22.1679 144.276 22.775 145.01C22.9277 145.192 23.0549 145.425 23.0294 145.672C22.9604 146.402 22.466 147.002 22.0988 147.606C21.8335 147.995 21.5535 148.46 21.9243 148.885C22.037 149.063 22.2879 149.285 22.2879 149.518C22.2879 149.656 22.2079 149.769 22.1388 149.863C21.7608 150.339 21.27 150.706 20.7829 151.063C20.3721 151.321 19.9904 151.673 19.4778 151.717C18.9653 151.732 18.5872 151.335 18.1073 151.266C17.1731 151.139 16.2825 151.728 15.4609 152.117C15.0538 152.302 14.5848 152.64 14.134 152.757C12.709 152.859 10.9932 152.222 10.288 150.921C9.85538 150.009 9.95353 148.972 10.048 148.02C10.0735 147.667 10.0517 147.344 9.84447 147.068C8.33222 145.134 7.89599 143.254 10.1353 141.669L11.2658 140.764C11.6294 140.481 12.0256 140.186 12.2401 139.757C12.4873 139.354 12.7236 138.856 13.1962 138.67C14.0977 138.336 15.0974 138.139 16.0498 138.347C16.4715 138.47 16.8059 139.03 17.0968 139.332C17.4094 139.692 17.7511 140.041 18.1764 140.262C18.6126 140.531 19.1107 140.386 19.5796 140.473C20.5829 140.804 20.463 142.127 20.7938 142.949L20.7901 142.953Z" fill="#C7C7C7"/>
  <path d="M18.2347 140.314C16.5443 140.903 14.8248 141.489 13.2617 142.296C13.0763 142.401 12.88 142.514 12.7636 142.623C12.7018 142.637 12.6582 142.939 12.6219 143.128C12.5455 143.561 12.4946 144.004 12.4474 144.444C12.3565 145.327 12.2911 146.218 12.2838 147.101C12.2765 147.541 12.2947 147.985 12.3529 148.381C12.3747 148.596 12.4546 148.748 12.4437 148.726C12.5128 148.777 12.7382 148.839 12.9309 148.875C13.7524 149.017 14.654 149.028 15.5264 149.003C15.9626 148.988 16.4061 148.959 16.8206 148.901C17.1914 148.839 17.7003 148.715 18.1183 148.639C18.9981 148.461 19.8778 148.294 20.7212 148.076C20.9247 148.021 21.1428 147.967 21.3137 147.901C21.3646 147.887 21.3973 147.868 21.4155 147.858C21.4155 147.858 21.4627 147.836 21.4337 147.85C21.4046 147.868 21.3791 147.901 21.3682 147.938C21.3137 147.996 21.3028 148.214 21.3355 148.265C21.3464 148.323 21.4009 148.399 21.4228 148.417C21.4409 148.443 21.4846 148.468 21.4773 148.465C21.4918 148.472 21.4773 148.465 21.4664 148.457L21.3464 148.41C20.9647 148.283 20.5176 148.181 20.0886 148.079L17.464 147.498C16.5879 147.305 15.7082 147.109 14.8285 146.887C14.3886 146.774 13.9487 146.662 13.5052 146.505C13.2689 146.403 13.0908 146.385 12.7636 146.12C12.7418 146.102 12.7091 146.058 12.6873 146.025C12.6619 145.989 12.6255 145.891 12.6219 145.858C12.6182 145.804 12.6182 145.749 12.6219 145.695C12.6219 145.571 12.6509 145.524 12.6728 145.444C12.7164 145.295 12.7745 145.193 12.8327 145.077C13.3162 144.23 13.9087 143.557 14.5413 142.885C14.7012 142.721 14.8648 142.557 15.0393 142.405C15.1265 142.328 15.2138 142.248 15.3119 142.176C15.3592 142.139 15.4065 142.099 15.461 142.067C15.5337 142.03 15.5228 142.001 15.6864 141.95C15.9481 141.903 16.0862 142.012 16.1953 142.074C16.308 142.147 16.4025 142.227 16.4898 142.31C16.6642 142.474 16.8206 142.645 16.966 142.823C18.0929 144.262 19.0235 145.796 19.896 147.37C18.8527 145.913 17.8348 144.415 16.6315 143.121C16.4788 142.961 16.3262 142.808 16.1699 142.67C16.039 142.536 15.7736 142.419 15.8172 142.445C15.8681 142.412 15.7772 142.474 15.7518 142.492C15.7154 142.517 15.6755 142.55 15.6355 142.586C15.5555 142.652 15.4792 142.728 15.4028 142.801C15.2501 142.95 15.1011 143.114 14.9557 143.277C14.385 143.935 13.8251 144.655 13.4507 145.393C13.4143 145.48 13.3671 145.578 13.3525 145.647C13.3489 145.676 13.3271 145.735 13.338 145.724C13.338 145.724 13.338 145.724 13.3344 145.727C13.3344 145.72 13.3126 145.647 13.298 145.636C13.2944 145.626 13.2762 145.607 13.2762 145.607C13.3017 145.629 13.567 145.738 13.7488 145.789C14.1559 145.916 14.5849 146.029 15.0175 146.131C15.8827 146.334 16.7588 146.516 17.6385 146.694L21.0047 147.338C21.4518 147.44 21.161 147.429 21.63 147.574C21.6881 147.592 21.7536 147.618 21.8263 147.647C21.8663 147.665 21.899 147.679 21.9644 147.719C21.9826 147.727 22.0444 147.774 22.0844 147.818C22.1134 147.847 22.1752 147.938 22.1934 148.003C22.2298 148.068 22.2152 148.297 22.1571 148.37C22.1062 148.443 22.0407 148.516 21.9717 148.574C21.9026 148.625 21.8917 148.625 21.8444 148.65C21.7645 148.694 21.699 148.723 21.6409 148.745C21.3937 148.843 21.1756 148.901 20.9465 148.963C20.0486 149.181 19.1653 149.333 18.2783 149.497C17.813 149.573 17.4495 149.664 16.9332 149.744C16.457 149.802 16.0026 149.824 15.5446 149.835C14.6249 149.846 13.7197 149.828 12.7745 149.653C12.531 149.595 12.3056 149.566 11.9966 149.37C11.8512 149.286 11.6876 148.995 11.6803 148.897C11.6294 148.752 11.6149 148.625 11.6004 148.501C11.5495 148.01 11.5604 147.552 11.5858 147.094C11.6331 146.178 11.7421 145.284 11.8766 144.386C11.9457 143.939 12.0184 143.492 12.1202 143.041C12.2038 142.812 12.1493 142.605 12.4219 142.299C12.6437 142.114 12.8473 142.012 13.0581 141.914C13.9015 141.54 14.7594 141.274 15.6209 141.012C16.4825 140.754 17.3513 140.511 18.231 140.329L18.2347 140.314Z" fill="#DBDBDB"/>
  <path d="M129.32 140.405C128.549 140.66 127.662 140.612 127.753 141.478C127.848 142.343 126.764 142.863 126.506 143.252C126.248 143.641 126.506 145.026 126.764 145.327C127.023 145.629 127.528 145.76 127.753 146.062C127.979 146.363 128.324 146.796 128.669 147.189C129.015 147.578 129.491 148.141 130.356 147.966C131.221 147.792 131.516 147.403 131.952 147.145C132.388 146.887 133.166 147.319 134.162 146.97C135.158 146.621 135.547 144.935 135.373 144.502C135.198 144.07 134.464 142.914 134.464 142.281C134.464 141.648 134.984 141.474 134.682 140.91C134.38 140.347 133.73 139.525 133.471 139.482C133.213 139.438 132.984 139.958 132.577 139.784C132.174 139.609 131.41 138.918 130.905 139.006C130.4 139.093 129.905 140.205 129.316 140.398L129.32 140.405Z" fill="white"/>
  <path d="M129.32 140.406C128.811 140.617 127.982 140.552 127.782 141.17C127.735 141.46 127.822 141.784 127.659 142.057C127.455 142.456 127.059 142.755 126.735 143.045C126.346 143.34 126.43 143.849 126.484 144.278C126.532 144.572 126.601 144.867 126.721 145.132C126.906 145.539 127.455 145.626 127.76 145.95C128.218 146.455 128.724 147.197 129.258 147.615C129.992 148.175 130.959 147.753 131.606 147.237C131.737 147.146 131.835 147.051 132.021 146.979C132.49 146.851 132.955 147.015 133.41 146.975C134.664 147.033 135.351 145.721 135.293 144.616C135.096 144.085 134.74 143.54 134.551 142.991C134.449 142.707 134.344 142.387 134.416 142.06C134.475 141.733 134.722 141.493 134.718 141.228C134.704 140.951 134.486 140.693 134.344 140.457C134.093 140.13 133.838 139.668 133.45 139.519C133.184 139.559 132.955 139.952 132.632 139.828C132.079 139.599 131.646 139.087 131.032 139.018C130.883 139.003 130.741 139.076 130.629 139.17C130.167 139.545 129.898 140.166 129.327 140.403L129.32 140.406ZM129.32 140.406C129.887 140.159 130.149 139.541 130.61 139.159C131.29 138.632 132.014 139.581 132.639 139.788C133.181 139.897 133.257 139.065 133.842 139.701C135.881 141.878 134.049 141.242 134.718 142.929C134.933 143.503 135.311 143.991 135.514 144.576C135.62 145.837 134.809 147.299 133.41 147.251C132.962 147.288 132.512 147.131 132.097 147.226C131.447 147.622 130.865 148.135 130.021 148.12C129.033 148.109 128.487 147.059 127.924 146.404L127.648 146.055C127.342 145.725 126.815 145.645 126.615 145.183C126.408 144.609 126.288 143.983 126.423 143.38C126.466 143.224 126.59 143.114 126.703 143.013C127.033 142.729 127.43 142.435 127.633 142.046C127.8 141.773 127.709 141.464 127.764 141.166C127.978 140.533 128.804 140.613 129.32 140.406Z" fill="#C7C7C7"/>
  <path d="M127.662 142.008C128.033 143.07 128.4 144.15 128.906 145.131C128.971 145.247 129.044 145.371 129.113 145.444C129.124 145.484 129.309 145.509 129.429 145.535C129.698 145.582 129.978 145.615 130.254 145.644C130.81 145.702 131.37 145.742 131.919 145.745C132.195 145.749 132.472 145.738 132.723 145.702C132.857 145.687 132.952 145.64 132.937 145.644C132.97 145.6 133.01 145.458 133.028 145.338C133.115 144.822 133.122 144.255 133.108 143.71C133.097 143.437 133.082 143.157 133.042 142.899C133.006 142.666 132.926 142.347 132.879 142.085C132.77 141.532 132.661 140.98 132.526 140.449C132.49 140.322 132.457 140.184 132.417 140.078C132.406 140.045 132.399 140.024 132.392 140.013C132.392 140.013 132.377 139.984 132.388 140.002C132.399 140.02 132.421 140.038 132.443 140.042C132.479 140.075 132.613 140.082 132.646 140.064C132.683 140.056 132.73 140.02 132.741 140.009C132.755 139.998 132.773 139.969 132.77 139.976C132.773 139.965 132.77 139.976 132.77 139.984L132.741 140.06C132.661 140.3 132.595 140.58 132.533 140.849L132.166 142.496C132.046 143.048 131.923 143.597 131.785 144.15C131.712 144.426 131.643 144.702 131.545 144.982C131.479 145.131 131.468 145.244 131.305 145.447C131.294 145.462 131.265 145.48 131.247 145.495C131.225 145.513 131.163 145.535 131.141 145.535C131.108 145.535 131.072 145.535 131.039 145.535C130.963 145.535 130.93 145.516 130.883 145.502C130.789 145.473 130.723 145.436 130.65 145.404C130.12 145.102 129.694 144.728 129.276 144.331C129.175 144.23 129.073 144.128 128.975 144.019C128.927 143.964 128.876 143.91 128.833 143.848C128.811 143.819 128.786 143.79 128.764 143.753C128.742 143.71 128.724 143.713 128.691 143.612C128.662 143.448 128.731 143.361 128.771 143.292C128.818 143.219 128.869 143.161 128.92 143.106C129.025 142.997 129.131 142.899 129.244 142.808C130.149 142.103 131.108 141.518 132.097 140.969C131.181 141.623 130.243 142.263 129.429 143.019C129.331 143.114 129.233 143.208 129.145 143.31C129.062 143.39 128.989 143.557 129.004 143.532C128.985 143.499 129.022 143.557 129.033 143.572C129.047 143.597 129.069 143.619 129.091 143.644C129.131 143.695 129.178 143.742 129.225 143.79C129.32 143.888 129.422 143.979 129.524 144.07C129.938 144.426 130.389 144.778 130.85 145.015C130.905 145.037 130.967 145.066 131.01 145.077C131.028 145.077 131.065 145.095 131.058 145.084C131.054 145.084 131.007 145.098 130.999 145.106C130.992 145.106 130.981 145.12 130.981 145.12C130.996 145.106 131.065 144.938 131.094 144.826C131.174 144.571 131.243 144.299 131.308 144.03C131.436 143.488 131.548 142.935 131.661 142.387L132.065 140.274C132.126 139.995 132.119 140.176 132.214 139.882C132.224 139.845 132.239 139.805 132.257 139.758C132.268 139.733 132.279 139.711 132.301 139.671C132.308 139.66 132.337 139.62 132.363 139.595C132.381 139.576 132.435 139.54 132.479 139.526C132.519 139.5 132.664 139.511 132.708 139.547C132.755 139.58 132.799 139.62 132.835 139.664C132.868 139.707 132.868 139.715 132.882 139.744C132.912 139.795 132.93 139.835 132.941 139.871C133.002 140.027 133.039 140.165 133.075 140.307C133.213 140.871 133.308 141.427 133.413 141.979C133.46 142.27 133.519 142.499 133.57 142.823C133.606 143.121 133.62 143.408 133.624 143.695C133.631 144.273 133.62 144.84 133.508 145.433C133.471 145.586 133.453 145.727 133.33 145.924C133.279 146.014 133.093 146.116 133.032 146.12C132.941 146.153 132.861 146.164 132.784 146.171C132.475 146.204 132.188 146.196 131.901 146.182C131.327 146.153 130.763 146.084 130.2 146C129.92 145.956 129.64 145.909 129.356 145.847C129.211 145.796 129.084 145.829 128.891 145.658C128.775 145.52 128.713 145.393 128.647 145.258C128.415 144.728 128.248 144.19 128.08 143.648C127.917 143.106 127.764 142.565 127.651 142.008H127.662Z" fill="#DBDBDB"/>
  <path d="M68.6509 21.8754C69.0472 22.4061 69.5234 22.8315 70.0432 23.1877C70.3777 24.5582 71.5591 25.4997 72.6279 26.0777C73.882 26.7539 75.238 27.1647 76.6121 27.361C78.8805 27.6881 81.1925 27.5064 83.4609 27.1247C83.9007 29.1095 83.828 31.2725 83.7226 33.3118C83.7226 33.3627 83.7917 33.3627 83.7917 33.3118C83.908 31.287 84.0352 29.1095 83.6717 27.0883C84.1188 27.0083 84.5623 26.9284 85.0022 26.8339C85.6783 26.6921 86.369 26.5249 87.0525 26.314C88.2557 26.0341 89.4553 25.6779 90.5968 25.1835C91.9309 24.6055 93.2033 23.7185 93.9376 22.2716C94.6392 20.8866 94.6065 19.298 93.8867 17.9312C93.5777 17.3459 93.1851 16.8224 92.7452 16.3462C92.4653 16.0009 92.1636 15.681 91.8546 15.3974C90.8076 14.4341 89.5826 13.7616 88.3139 13.2708C87.9794 13.1399 87.6414 13.0236 87.296 12.9146C87.2488 12.8891 87.2015 12.86 87.1506 12.8346C85.8419 12.133 84.4242 11.7367 82.9955 11.5114C79.9928 11.0352 76.9102 11.3223 74.0093 12.3257C72.5515 12.831 71.1302 13.518 69.8069 14.3832C68.6473 15.143 67.5894 16.1863 67.4259 17.793C67.3095 18.9309 67.6076 20.0651 68.1529 21.0139C68.2874 21.3156 68.451 21.6028 68.6509 21.8718V21.8754ZM85.831 26.0014C85.0676 26.1577 84.2933 26.2813 83.5154 26.3685C83.4899 26.2668 83.4645 26.165 83.4354 26.0632C83.6063 26.0305 83.7771 25.9941 83.948 25.9505C84.097 25.9141 84.2533 25.8669 84.406 25.816C85.8346 25.5615 87.2379 25.1507 88.5938 24.5655C89.8007 24.042 90.9603 23.3804 92.0509 22.5879C90.6441 24.2928 88.4993 25.2489 86.5871 25.8014C86.3363 25.8742 86.0855 25.936 85.831 26.0014ZM77.281 13.3617C77.6845 13.3035 78.0916 13.2526 78.4951 13.2127C77.51 13.6016 76.5794 14.1396 75.7614 14.8521C74.8708 15.6301 74.1038 16.6625 73.7293 17.8876C73.264 18.2438 72.8205 18.6546 72.4534 19.1344C72.348 19.1853 72.2425 19.2362 72.1371 19.2944C71.7663 19.5089 71.3883 19.7815 71.0574 20.1087C71.0356 20.0505 71.0102 19.9996 70.992 19.9378C70.5921 18.5673 71.2865 17.2841 72.1371 16.3753C73.0786 15.3683 74.2783 14.6195 75.4633 14.0597C76.0522 13.7797 76.6593 13.5507 77.2737 13.3581L77.281 13.3617ZM72.0317 22.2135C72.1953 22.3443 72.3661 22.4716 72.5406 22.5806C72.4497 22.7442 72.3734 22.9223 72.3189 23.1041C72.188 22.8242 72.0862 22.5261 72.0353 22.2098L72.0317 22.2135ZM83.1809 26.1068C83.2136 26.2013 83.2391 26.2958 83.2682 26.394C82.1703 26.5103 81.0652 26.5576 79.9638 26.5176C80.629 26.4631 81.2906 26.3867 81.9522 26.2922C82.3594 26.234 82.7702 26.1795 83.1809 26.1104V26.1068ZM82.3521 24.3183C79.5566 24.6927 76.6811 24.6491 73.9147 24.0493C73.5585 23.9729 73.195 23.882 72.8387 23.7766C72.8387 23.4713 72.9296 23.1586 73.0823 22.8896C74.3982 23.5658 75.8705 23.853 77.2955 24.002C78.8296 24.162 80.3709 24.1256 81.9086 24.0929C82.0104 24.0929 82.0758 24.0238 82.1049 23.9402C82.1194 23.9584 82.134 23.9766 82.1485 23.9984C82.2212 24.1038 82.283 24.2092 82.3485 24.3146L82.3521 24.3183ZM73.8711 22.6606C73.7221 22.6024 73.573 22.537 73.4203 22.4643C73.8602 22.0535 74.4637 21.8899 75.0162 21.8136C76.3104 21.6355 77.7099 21.5555 78.9968 21.8318C80.0874 22.0681 81.058 22.657 81.8141 23.5585C79.1604 23.613 76.4121 23.6567 73.8675 22.657L73.8711 22.6606ZM82.6684 24.8781C82.7483 25.038 82.8247 25.2016 82.8974 25.3652C82.8901 25.3652 82.8792 25.3652 82.8719 25.3689C82.6684 25.3979 82.4684 25.4197 82.2649 25.4488C81.974 25.467 81.6869 25.4815 81.396 25.4888C79.9092 25.5252 78.4261 25.387 76.9611 25.1035C78.5497 25.2198 80.1455 25.1907 81.7268 25.009C82.0431 24.9726 82.3557 24.9254 82.6684 24.8781ZM82.9992 24.8272C83.8462 24.6891 84.6859 24.5073 85.5184 24.2856C85.2421 24.6164 84.8604 24.8345 84.4896 24.9835C84.0679 25.1507 83.6353 25.2453 83.1955 25.318C83.1337 25.1544 83.0719 24.9908 82.9992 24.8308V24.8272ZM77.0447 25.7469C76.972 25.7396 76.8993 25.7397 76.8266 25.7324C76.1795 25.6706 75.536 25.5506 74.9072 25.3689C74.7254 25.3143 74.5255 25.2634 74.3292 25.2016C74.231 25.1435 74.1292 25.0853 74.0347 25.0199C73.9765 24.9799 73.9184 24.9326 73.8566 24.889C74.8999 25.2525 75.965 25.5433 77.0447 25.7433V25.7469ZM71.9953 21.5046C72.0353 20.8503 72.2643 20.2577 72.6061 19.7415C72.9805 19.5489 73.3731 19.3998 73.7766 19.2835C73.9438 19.5452 74.2056 19.7452 74.54 19.8869C75.2052 20.1705 75.8959 20.3922 76.5903 20.5704C79.1204 21.232 81.7705 21.2792 84.3224 20.7376C84.8604 21.1447 85.3366 21.6427 85.6529 22.2571C85.8637 22.6715 85.9619 23.155 85.8637 23.6058C84.8313 23.8966 83.7808 24.1147 82.7265 24.271C82.6393 24.1074 82.5484 23.9475 82.4466 23.7912C81.6469 22.5297 80.5199 21.69 79.1895 21.3483C77.8444 21.0029 76.3685 21.0357 75.0017 21.192C74.2419 21.2792 73.4458 21.4864 72.8787 22.1081C72.8642 22.1226 72.8533 22.1371 72.8423 22.1553C72.5443 21.9736 72.2571 21.7591 71.999 21.5155L71.9953 21.5046ZM89.608 17.6949C89.4699 17.9603 89.2554 18.1638 89.0155 18.3347C88.0703 17.335 86.7907 16.6879 85.5875 16.219C83.1082 15.2484 80.3782 15.1357 77.8335 15.8446C76.6811 16.1645 75.5615 16.6734 74.5255 17.335C74.5473 17.2914 74.5691 17.2478 74.5873 17.2114C74.8708 16.6552 75.2416 16.1681 75.6596 15.7391C77.2701 14.0851 79.5239 13.329 81.665 13.0854C81.7196 13.0854 81.7741 13.0854 81.8286 13.0854C84.1297 13.1618 86.4417 13.6053 88.5974 14.5431C88.6265 14.5722 88.6592 14.6013 88.6919 14.6304C89.3645 15.3284 90.1569 16.6443 89.6044 17.6985L89.608 17.6949ZM74.1837 18.1529C75.0744 17.4913 76.0559 16.9787 77.0665 16.6116C79.3712 15.7791 81.8686 15.681 84.2206 16.3171C85.4093 16.6407 86.5544 17.1496 87.6159 17.8476C87.9176 18.0475 88.2557 18.302 88.5611 18.6037C88.3648 18.7055 88.1721 18.7927 87.9903 18.88C87.3615 19.1817 86.7144 19.4471 86.06 19.6652C85.562 19.8324 85.0531 19.9705 84.5441 20.0869C84.526 20.0723 84.5042 20.0578 84.486 20.0432C82.1776 18.3819 79.3276 18.1166 76.6666 18.2293C75.816 18.2656 74.9544 18.3456 74.1147 18.5383C74.1183 18.4147 74.1438 18.2802 74.1801 18.1493L74.1837 18.1529ZM75.038 19.0145C76.3358 18.8291 77.6699 18.8036 78.975 18.9091C80.2255 19.0072 81.4906 19.2617 82.6611 19.7851C82.9737 19.9233 83.2973 20.0905 83.6172 20.2759C81.8141 20.5885 79.9747 20.6031 78.1716 20.3013C77.5282 20.1923 76.8884 20.0469 76.2558 19.8578C75.9105 19.7561 75.5651 19.6434 75.2271 19.5161C74.9508 19.4144 74.62 19.3198 74.3728 19.1344C74.5982 19.0872 74.8199 19.0472 75.0417 19.0145H75.038ZM89.4299 21.3301C89.0191 22.4171 87.8704 22.9478 86.9507 23.2641C86.8162 23.3113 86.6817 23.3477 86.5472 23.3913C86.6199 22.2426 85.911 21.2647 85.1221 20.5558H85.1294C86.4199 20.2141 87.765 19.7415 88.9464 19.029C89.459 19.6725 89.7643 20.4613 89.4335 21.3338L89.4299 21.3301ZM71.5773 21.0502C71.4864 20.9339 71.4064 20.8139 71.3301 20.6867C71.4828 20.5267 71.6427 20.3813 71.8136 20.2505C71.7736 20.3522 71.73 20.4504 71.6972 20.5594C71.6464 20.723 71.61 20.8903 71.5809 21.0538L71.5773 21.0502ZM92.9924 21.0575C92.7489 21.3192 92.4544 21.5373 92.1854 21.7445C91.1385 22.5588 90.0152 23.2422 88.841 23.7839C87.9067 24.2165 86.9434 24.5618 85.9619 24.8272C86.1545 24.6018 86.3109 24.3365 86.4127 24.0275C86.4272 24.0238 86.4417 24.0202 86.4563 24.0166C87.5541 23.6785 88.7974 23.2386 89.539 22.1808C89.8988 21.6646 90.0951 21.0175 90.0297 20.3522C89.9679 19.7415 89.7062 19.2035 89.3645 18.7455C89.8043 18.4147 90.1642 17.9494 90.2587 17.3386C90.3532 16.7388 90.2151 16.1426 89.9861 15.6083C89.9025 15.412 89.8007 15.2302 89.6916 15.0521C90.6804 15.5574 91.6837 16.1681 92.4544 17.0187C92.9379 17.5531 93.3196 18.2329 93.385 19.0145C93.4396 19.687 93.2941 20.3522 93.0397 20.9521C93.0251 20.9884 93.007 21.0211 92.9924 21.0538V21.0575ZM71.7191 23.3804C71.3046 23.1768 70.9011 22.9478 70.5158 22.6897C70.4576 22.0935 70.6612 21.541 70.9847 21.0829C71.1447 21.3265 71.3265 21.5519 71.53 21.7591C71.5446 22.3662 71.7082 22.9514 71.9735 23.4858C71.8863 23.4531 71.8027 23.4167 71.7191 23.3804ZM68.9163 21.2029C68.4837 20.5267 68.2292 19.7233 68.3238 18.8364C68.4728 17.4659 69.2944 16.299 70.2831 15.5646C71.49 14.6704 72.9296 14.285 74.3182 13.9397C74.391 13.9215 74.4637 13.907 74.5364 13.8888C73.5548 14.4268 72.6388 15.103 71.8427 15.9318C70.9448 16.8697 70.2177 18.1747 70.4286 19.6179C70.4758 19.9342 70.5703 20.2286 70.6903 20.5049C70.2904 21.0066 70.0069 21.6028 69.9596 22.2716C69.5743 21.959 69.2217 21.6028 68.9199 21.2029H68.9163ZM83.4499 12.1693C82.174 12.0639 80.8944 12.0857 79.6439 12.2566C78.9277 12.3547 78.2007 12.5038 77.4809 12.7037C76.6848 12.8128 75.8923 12.9509 75.1144 13.1181C72.4716 13.6889 69.0981 14.4886 68.0039 17.7167C67.9675 17.8221 67.9457 17.9312 67.9166 18.0366C67.9348 17.7276 67.982 17.4222 68.0729 17.1314C68.2983 16.4298 68.7636 15.8736 69.2835 15.4374C70.3995 14.5032 71.7372 13.8415 73.0314 13.2963C75.6596 12.1948 78.477 11.7113 81.2761 11.8858C82.0031 11.9331 82.7338 12.0239 83.4536 12.1621L83.4499 12.1693ZM91.2112 24.2492C91.1421 24.2892 91.0694 24.3219 90.9967 24.3619C91.6365 23.8711 92.2254 23.2931 92.7307 22.6061C92.9888 22.2535 93.2214 21.8645 93.4141 21.4501C93.5668 21.2792 93.7049 21.0902 93.8103 20.8757C93.8322 20.8321 93.8394 20.7885 93.8576 20.7448C93.8394 20.8793 93.814 21.0139 93.7776 21.1484C93.4032 22.5915 92.349 23.6058 91.2075 24.2492H91.2112ZM71.5155 24.5364C71.261 24.2856 71.0211 23.9947 70.8393 23.6676C71.2647 23.8857 71.7009 24.0638 72.1407 24.2165C72.1698 24.231 72.2025 24.2456 72.2316 24.2565C72.2389 24.2565 72.2462 24.2637 72.2534 24.2637C72.4025 24.8854 72.846 25.3289 73.3622 25.5979C74.0202 25.9432 74.7399 26.1577 75.4524 26.3104C75.7251 26.4085 75.9977 26.4958 76.274 26.5721C76.6084 26.663 76.9465 26.7321 77.2846 26.7939C76.4994 26.7139 75.7178 26.5758 74.9508 26.3504C73.7512 25.9978 72.4716 25.4706 71.5228 24.5328L71.5155 24.5364Z" fill="#263238"/>
</svg>