<svg xmlns="http://www.w3.org/2000/svg" width="250" height="187" viewBox="0 0 250 187" fill="none">
  <path d="M125 186.392C178.541 186.392 221.945 183.858 221.945 180.732C221.945 177.606 178.541 175.072 125 175.072C71.4584 175.072 28.0547 177.606 28.0547 180.732C28.0547 183.858 71.4584 186.392 125 186.392Z" fill="#F5F5F5"/>
  <path d="M115.065 179.426C115.115 179.581 115.128 179.745 115.101 179.905C115.073 180.065 115.008 180.216 114.909 180.344C114.811 180.473 114.683 180.576 114.536 180.645C114.388 180.713 114.227 180.745 114.065 180.736H44.4149C42.2399 180.736 42.2399 166.571 44.4149 166.571H114.085C114.246 166.564 114.407 166.595 114.554 166.663C114.7 166.731 114.828 166.834 114.927 166.962C115.025 167.09 115.091 167.241 115.118 167.4C115.146 167.559 115.134 167.723 115.085 167.876C114.215 170.576 114.215 176.731 115.065 179.426Z" fill="#4F3C8E"/>
  <path opacity="0.8" d="M114.965 168.225H72.6999C71.0349 168.225 71.0349 179.08 72.6999 179.08H114.965C114.25 176.355 114.25 170.945 114.965 168.225Z" fill="white"/>
  <path opacity="0.2" d="M70.5949 179.426C70.6454 179.581 70.6577 179.745 70.6306 179.905C70.6035 180.065 70.5379 180.216 70.4395 180.344C70.3411 180.473 70.2127 180.576 70.0656 180.645C69.9185 180.713 69.757 180.745 69.5949 180.736H44.4149C42.2399 180.736 42.2399 166.571 44.4149 166.571H69.6149C69.7764 166.564 69.9373 166.595 70.0839 166.663C70.2305 166.731 70.3584 166.834 70.4567 166.962C70.555 167.09 70.6208 167.241 70.6483 167.4C70.6759 167.559 70.6644 167.723 70.6149 167.876C69.7449 170.576 69.7449 176.731 70.5949 179.426Z" fill="black"/>
  <path d="M55.1548 166.57H49.3998C47.2248 166.57 47.2248 180.735 49.3998 180.735H55.1548C52.9998 180.735 52.9998 166.57 55.1548 166.57Z" fill="#4F3C8E"/>
  <path d="M59.6901 166.57H57.4301C55.2551 166.57 55.2551 180.735 57.4301 180.735H59.6901C57.5001 180.735 57.5001 166.57 59.6901 166.57Z" fill="#4F3C8E"/>
  <path d="M40.355 165.396C40.115 165.976 40.705 166.571 41.505 166.571H104.145C106.7 166.571 106.7 153.836 104.145 153.836H41.5C40.7 153.836 40.11 154.426 40.35 155.011C41.35 157.436 41.35 162.971 40.355 165.396Z" fill="#263238"/>
  <path opacity="0.2" d="M40.355 165.396C40.115 165.976 40.705 166.571 41.505 166.571H72.22C74.775 166.571 74.775 153.836 72.22 153.836H41.5C40.7 153.836 40.11 154.426 40.35 155.011C41.35 157.436 41.35 162.971 40.355 165.396Z" fill="black"/>
  <path opacity="0.8" d="M40.4653 155.32H70.9653C72.9203 155.32 72.9203 165.08 70.9653 165.08H40.4653C41.3053 162.615 41.3053 157.77 40.4653 155.32Z" fill="white"/>
  <path opacity="0.2" d="M81.0944 156.676C80.9044 156.111 81.4544 155.561 82.2144 155.561H99.7494C101.609 155.561 101.609 164.841 99.7494 164.841H82.2144C81.4544 164.841 80.9044 164.296 81.0944 163.731C81.6945 161.417 81.6945 158.989 81.0944 156.676Z" fill="white"/>
  <path d="M207.864 159.709C207.92 159.879 207.936 160.058 207.911 160.234C207.886 160.41 207.821 160.579 207.721 160.726C207.621 160.873 207.489 160.995 207.334 161.084C207.18 161.172 207.007 161.223 206.829 161.234H133.229C130.929 161.234 130.929 144.734 133.229 144.734H206.829C207.004 144.746 207.174 144.798 207.326 144.884C207.478 144.971 207.609 145.091 207.708 145.235C207.808 145.379 207.873 145.544 207.9 145.717C207.927 145.89 207.915 146.067 207.864 146.234C206.969 149.409 206.969 156.574 207.864 159.709Z" fill="#4F3C8E"/>
  <path opacity="0.5" d="M207.864 159.709C207.92 159.879 207.936 160.058 207.911 160.234C207.886 160.41 207.821 160.579 207.721 160.726C207.621 160.873 207.489 160.995 207.334 161.084C207.18 161.172 207.007 161.223 206.829 161.234H133.229C130.929 161.234 130.929 144.734 133.229 144.734H206.829C207.004 144.746 207.174 144.798 207.326 144.884C207.478 144.971 207.609 145.091 207.708 145.235C207.808 145.379 207.873 145.544 207.9 145.717C207.927 145.89 207.915 146.067 207.864 146.234C206.969 149.409 206.969 156.574 207.864 159.709Z" fill="white"/>
  <path opacity="0.8" d="M207.765 146.676H163.11C161.35 146.676 161.35 159.306 163.11 159.306H207.765C207 156.141 207 149.846 207.765 146.676Z" fill="white"/>
  <path opacity="0.6" d="M160.884 159.709C160.94 159.879 160.956 160.058 160.931 160.234C160.906 160.41 160.841 160.579 160.741 160.726C160.641 160.873 160.509 160.995 160.354 161.084C160.2 161.172 160.027 161.223 159.849 161.234H133.229C130.929 161.234 130.929 144.734 133.229 144.734H159.849C160.024 144.746 160.194 144.798 160.346 144.884C160.498 144.971 160.629 145.091 160.728 145.235C160.828 145.379 160.893 145.544 160.92 145.717C160.948 145.89 160.935 146.067 160.884 146.234C159.999 149.409 159.999 156.574 160.884 159.709Z" fill="#4F3C8E"/>
  <path opacity="0.5" d="M150.084 145.972C150.137 145.843 150.158 145.703 150.146 145.564C150.134 145.426 150.09 145.291 150.017 145.173C149.944 145.054 149.845 144.954 149.726 144.881C149.607 144.808 149.473 144.764 149.334 144.752H139.184C136.884 144.752 136.884 161.252 139.184 161.252H149.334C149.473 161.239 149.608 161.195 149.726 161.121C149.845 161.047 149.944 160.947 150.017 160.828C150.09 160.709 150.134 160.574 150.146 160.435C150.158 160.296 150.137 160.156 150.084 160.027C149.059 156.962 149.059 149.027 150.084 145.972Z" fill="white"/>
  <path d="M202.585 178.922C202.644 179.141 202.65 179.371 202.603 179.593C202.555 179.815 202.456 180.023 202.312 180.199C202.168 180.375 201.985 180.514 201.777 180.605C201.568 180.696 201.342 180.736 201.115 180.722H124.645C121.38 180.722 121.375 161.222 124.645 161.222H201.145C201.372 161.207 201.598 161.247 201.807 161.338C202.015 161.429 202.198 161.568 202.342 161.744C202.486 161.92 202.585 162.128 202.633 162.35C202.68 162.572 202.674 162.802 202.615 163.022C201.31 166.737 201.315 175.212 202.585 178.922Z" fill="#4F3C8E"/>
  <path opacity="0.2" d="M202.585 178.922C202.644 179.141 202.65 179.371 202.603 179.593C202.555 179.815 202.456 180.023 202.312 180.199C202.168 180.375 201.985 180.514 201.777 180.605C201.568 180.696 201.342 180.736 201.115 180.722H124.645C121.38 180.722 121.375 161.222 124.645 161.222H201.145C201.372 161.207 201.598 161.247 201.807 161.338C202.015 161.429 202.198 161.568 202.342 161.744C202.486 161.92 202.585 162.128 202.633 162.35C202.68 162.572 202.674 162.802 202.615 163.022C201.31 166.737 201.315 175.212 202.585 178.922Z" fill="white"/>
  <path opacity="0.8" d="M202.435 163.5H156.2C153.7 163.5 153.7 178.44 156.2 178.44H202.44C201.37 174.695 201.37 167.25 202.435 163.5Z" fill="white"/>
  <path opacity="0.6" d="M153.04 178.929C153.1 179.148 153.107 179.378 153.06 179.601C153.014 179.823 152.915 180.031 152.771 180.207C152.628 180.383 152.445 180.522 152.236 180.613C152.028 180.704 151.802 180.744 151.575 180.729H124.645C121.38 180.729 121.375 161.229 124.645 161.229H151.575C151.802 161.215 152.028 161.255 152.237 161.346C152.445 161.437 152.628 161.576 152.772 161.752C152.916 161.928 153.015 162.136 153.063 162.358C153.11 162.58 153.104 162.81 153.045 163.029C151.77 166.744 151.77 175.214 153.04 178.929Z" fill="#4F3C8E"/>
  <path opacity="0.5" d="M136.91 161.909C136.952 161.838 136.973 161.756 136.971 161.674C136.97 161.591 136.945 161.51 136.901 161.441C136.856 161.371 136.794 161.315 136.719 161.278C136.645 161.242 136.562 161.227 136.48 161.234H131.905C128.645 161.234 128.645 180.734 131.905 180.734H136.5C136.582 180.742 136.665 180.727 136.739 180.69C136.814 180.654 136.876 180.598 136.921 180.528C136.965 180.458 136.99 180.378 136.991 180.295C136.993 180.212 136.972 180.131 136.93 180.059C134.945 177.044 134.945 164.919 136.91 161.909Z" fill="white"/>
  <path opacity="0.5" d="M144.05 161.912C144.091 161.84 144.112 161.758 144.11 161.676C144.109 161.593 144.084 161.512 144.04 161.442C143.996 161.372 143.933 161.316 143.859 161.279C143.785 161.242 143.703 161.225 143.62 161.232H139.045C135.785 161.232 135.785 180.732 139.045 180.732H143.62C143.702 180.738 143.784 180.722 143.858 180.686C143.931 180.649 143.993 180.593 144.037 180.523C144.081 180.453 144.105 180.373 144.106 180.291C144.108 180.209 144.086 180.128 144.045 180.057C142.085 177.047 142.085 164.917 144.05 161.912Z" fill="white"/>
  <path d="M201.835 134.375C201.746 132.986 201.42 131.623 200.87 130.345L201.32 130.125C201.891 131.457 202.229 132.878 202.32 134.325L201.835 134.375Z" fill="#4F3C8E"/>
  <path d="M198.7 128.18H186.28V128.68H198.7V128.18Z" fill="#4F3C8E"/>
  <path d="M117.755 143.385C117.5 144.065 118.125 144.75 118.97 144.75H198.7C201.395 144.75 201.395 129.93 198.7 129.93H118.97C118.125 129.93 117.5 130.62 117.755 131.3C118.805 134.115 118.805 140.56 117.755 143.385Z" fill="#4F3C8E"/>
  <path opacity="0.2" d="M117.755 143.385C117.5 144.065 118.125 144.75 118.97 144.75H164.97C167.67 144.75 167.67 129.93 164.97 129.93H118.97C118.125 129.93 117.5 130.62 117.755 131.3C118.805 134.115 118.805 140.56 117.755 143.385Z" fill="black"/>
  <path opacity="0.8" d="M117.875 131.664H163.635C165.705 131.664 165.705 143.019 163.635 143.019H117.875C118.76 140.169 118.76 134.514 117.875 131.664Z" fill="white"/>
  <path opacity="0.2" d="M174.345 133.233C174.145 132.578 174.725 131.943 175.525 131.943H194.055C196.02 131.943 196.02 142.738 194.055 142.738H175.525C174.725 142.738 174.145 142.103 174.345 141.443C175 139.368 175 135.313 174.345 133.233Z" fill="white"/>
  <path d="M110.3 21.6145C108.045 24.0295 102.54 21.6145 101.7 28.2645C100.79 35.4345 104.24 38.8795 99.7848 40.7645C92.7848 43.6895 87.7848 55.3795 97.5048 59.7645C107.225 64.1495 127.925 59.5545 125.595 50.6195C123.265 41.6845 123.725 36.8895 126.475 32.6795C130.1 27.1145 129.325 19.9645 126.37 17.3745C121.77 13.3245 115.415 16.1145 110.3 21.6145Z" fill="#263238"/>
  <path d="M122.33 50.3791C122.292 50.3805 122.255 50.3674 122.226 50.3423C122.197 50.3172 122.179 50.2821 122.175 50.2441C122.172 50.224 122.172 50.2034 122.177 50.1835C122.182 50.1636 122.19 50.1449 122.202 50.1286C122.215 50.1122 122.23 50.0984 122.248 50.0882C122.265 50.078 122.285 50.0715 122.305 50.0691C124.235 49.8041 125.385 49.3291 125.925 48.5691C126.595 47.6241 126.305 46.2191 125.925 44.4391C125.335 41.5441 124.52 37.5791 127.12 32.5691C130.275 26.4941 129.12 19.8341 126.165 17.6541C126.132 17.63 126.11 17.594 126.103 17.5537C126.097 17.5135 126.107 17.4723 126.13 17.4391C126.155 17.4058 126.192 17.3835 126.233 17.377C126.274 17.3705 126.316 17.3802 126.35 17.4041C129.43 19.6591 130.62 26.4991 127.395 32.7141C124.85 37.6241 125.65 41.5291 126.23 44.3791C126.61 46.2291 126.91 47.6941 126.16 48.7491C125.57 49.5841 124.355 50.0991 122.335 50.3791H122.33Z" fill="#263238"/>
  <path d="M97.12 41.7191C96.8041 41.7178 96.4886 41.6977 96.175 41.6591C96.1546 41.6566 96.1349 41.6501 96.117 41.64C96.0991 41.6298 96.0834 41.6162 96.0709 41.5999C96.0583 41.5836 96.0491 41.565 96.0438 41.5451C96.0385 41.5252 96.0372 41.5045 96.04 41.4841C96.0425 41.4637 96.049 41.4439 96.0592 41.4261C96.0693 41.4082 96.0829 41.3925 96.0992 41.3799C96.1155 41.3674 96.1341 41.3582 96.154 41.3529C96.1739 41.3476 96.1946 41.3463 96.215 41.3491C97.635 41.5241 98.665 41.3141 99.36 40.7041C100.66 39.5591 100.68 37.1641 100.695 34.3891C100.695 31.2491 100.74 27.6941 102.775 25.2691C102.788 25.2533 102.804 25.2403 102.822 25.2308C102.841 25.2213 102.86 25.2154 102.881 25.2135C102.901 25.2117 102.922 25.2139 102.941 25.22C102.961 25.2261 102.979 25.236 102.995 25.2491C103.011 25.2622 103.024 25.2783 103.033 25.2965C103.043 25.3147 103.049 25.3345 103.051 25.355C103.052 25.3754 103.05 25.396 103.044 25.4156C103.038 25.4351 103.028 25.4533 103.015 25.4691C101.05 27.8091 101.015 31.3041 101.015 34.3941C101.015 37.2391 100.98 39.6991 99.575 40.9391C98.8823 41.4956 98.0069 41.7737 97.12 41.7191Z" fill="#263238"/>
  <path d="M146.195 129.92C142.86 129.88 141.55 129.67 140.015 129.695C138.48 129.72 138.115 129.99 136.515 129.92C135.435 129.875 135.43 128.59 135.845 127.71C136.17 127.02 136.57 126.325 136.94 125.465L141.17 125.775C141.74 127.385 144.57 128.075 147.05 128.645C148.035 128.88 147.53 129.935 146.195 129.92Z" fill="#4F3C8E"/>
  <path d="M124.14 68.4916C124.14 68.4916 135.33 78.1166 146.64 88.3266C151.42 92.6516 141.395 125.627 141.395 125.627C141.185 126.332 137.455 125.327 136.895 124.772C136.895 124.772 136.325 99.1766 138.75 94.0216C113.67 87.6816 109.75 75.3666 109.75 75.3666L111.55 67.7266L124.14 68.4916Z" fill="#263238"/>
  <path opacity="0.2" d="M111.405 78.4041C112.809 80.3663 114.472 82.1291 116.35 83.6441C118.85 80.7191 118.15 75.9941 118.15 75.9941L111.405 78.4041Z" fill="black"/>
  <path d="M142.264 124.205C142.194 124.705 142.074 125.59 142.009 126.245C141.999 126.351 141.949 126.449 141.869 126.52C141.79 126.591 141.686 126.628 141.579 126.625C139.906 126.494 138.249 126.206 136.629 125.765C136.551 125.744 136.482 125.697 136.433 125.633C136.383 125.569 136.356 125.491 136.354 125.41L136.319 123.585C136.319 123.526 136.331 123.467 136.355 123.413C136.379 123.358 136.414 123.31 136.458 123.269C136.501 123.229 136.553 123.199 136.609 123.18C136.666 123.161 136.725 123.155 136.784 123.16L141.944 123.785C141.993 123.791 142.041 123.806 142.084 123.83C142.127 123.855 142.164 123.887 142.194 123.927C142.224 123.966 142.246 124.011 142.258 124.059C142.27 124.107 142.272 124.156 142.264 124.205Z" fill="#263238"/>
  <path opacity="0.3" d="M142.264 124.205C142.194 124.705 142.074 125.59 142.009 126.245C141.999 126.351 141.949 126.449 141.869 126.52C141.79 126.591 141.686 126.628 141.579 126.625C139.906 126.494 138.249 126.206 136.629 125.765C136.551 125.744 136.482 125.697 136.433 125.633C136.383 125.569 136.356 125.491 136.354 125.41L136.319 123.585C136.319 123.526 136.331 123.467 136.355 123.413C136.379 123.358 136.414 123.31 136.458 123.269C136.501 123.229 136.553 123.199 136.609 123.18C136.666 123.161 136.725 123.155 136.784 123.16L141.944 123.785C141.993 123.791 142.041 123.806 142.084 123.83C142.127 123.855 142.164 123.887 142.194 123.927C142.224 123.966 142.246 124.011 142.258 124.059C142.27 124.107 142.272 124.156 142.264 124.205Z" fill="white"/>
  <path d="M97.235 153.835C93.845 153.835 92.735 152.56 90.84 152.21C89.24 151.91 88.815 152.05 87.525 151.825C86.445 151.635 86.36 150.895 87.025 149.8C87.4588 149.043 87.8268 148.25 88.125 147.43L93.265 147.77C93.8 149.145 95.035 151.94 96.92 152.27C98.695 152.615 98.585 153.835 97.235 153.835Z" fill="#4F3C8E"/>
  <path d="M123.365 68.463C123.365 68.463 111.54 89.488 106.78 102.493C101.78 116.153 93.82 138.493 93.245 147.768C92.395 148.173 89.605 148.018 88.105 147.428C88.105 147.428 86.715 115.428 96.34 102.608C98.635 75.153 102.445 70.763 106.495 67.418L123.365 68.463Z" fill="#263238"/>
  <path d="M93.8649 145.873C93.8036 146.506 93.7869 147.143 93.8149 147.778C93.8218 147.889 93.7847 147.997 93.7116 148.081C93.6386 148.164 93.5355 148.215 93.4249 148.223C91.5099 148.398 88.8399 147.783 87.9949 147.573C87.9164 147.553 87.8465 147.508 87.7959 147.445C87.7453 147.382 87.7169 147.304 87.7149 147.223L87.6499 145.433C87.6491 145.374 87.6605 145.316 87.6834 145.262C87.7063 145.207 87.7402 145.158 87.783 145.118C87.8258 145.078 87.8765 145.047 87.9319 145.027C87.9873 145.007 88.0462 144.999 88.1049 145.003L93.5249 145.468C93.5741 145.472 93.6219 145.485 93.6657 145.508C93.7095 145.53 93.7484 145.561 93.7801 145.599C93.8118 145.637 93.8356 145.68 93.8501 145.727C93.8647 145.775 93.8697 145.824 93.8649 145.873Z" fill="#263238"/>
  <path opacity="0.3" d="M93.8649 145.873C93.8036 146.506 93.7869 147.143 93.8149 147.778C93.8218 147.889 93.7847 147.997 93.7116 148.081C93.6386 148.164 93.5355 148.215 93.4249 148.223C91.5099 148.398 88.8399 147.783 87.9949 147.573C87.9164 147.553 87.8465 147.508 87.7959 147.445C87.7453 147.382 87.7169 147.304 87.7149 147.223L87.6499 145.433C87.6491 145.374 87.6605 145.316 87.6834 145.262C87.7063 145.207 87.7402 145.158 87.783 145.118C87.8258 145.078 87.8765 145.047 87.9319 145.027C87.9873 145.007 88.0462 144.999 88.1049 145.003L93.5249 145.468C93.5741 145.472 93.6219 145.485 93.6657 145.508C93.7095 145.53 93.7484 145.561 93.7801 145.599C93.8118 145.637 93.8356 145.68 93.8501 145.727C93.8647 145.775 93.8697 145.824 93.8649 145.873Z" fill="white"/>
  <path d="M126.5 47.8394C127 48.7844 127.54 49.8394 128.09 50.8394C128.64 51.8394 129.195 52.8394 129.755 53.8144C130.885 55.7794 132.065 57.7044 133.33 59.5194L132.65 58.9144C133.152 59.2671 133.705 59.5403 134.29 59.7244C134.998 59.9618 135.723 60.1424 136.46 60.2644C137.23 60.4044 138.03 60.4994 138.845 60.5744C139.66 60.6494 140.515 60.6944 141.295 60.7444H141.4C141.725 60.7631 142.033 60.8942 142.271 61.1154C142.51 61.3365 142.664 61.6338 142.707 61.9562C142.75 62.2787 142.68 62.6061 142.508 62.8822C142.336 63.1583 142.073 63.366 141.765 63.4694C140.871 63.7667 139.957 63.9973 139.03 64.1594C138.098 64.3251 137.156 64.427 136.21 64.4644C135.206 64.5029 134.202 64.4427 133.21 64.2844C132.091 64.1158 131.008 63.7573 130.01 63.2244C129.802 63.111 129.617 62.9601 129.465 62.7794L129.33 62.6194C128.535 61.6694 127.76 60.6994 127.05 59.7044C126.34 58.7094 125.645 57.7044 125 56.7044C124.355 55.7044 123.73 54.6394 123.14 53.5844C122.55 52.5294 121.99 51.4844 121.455 50.3294C121.174 49.6731 121.154 48.9343 121.4 48.264C121.646 47.5937 122.138 47.0426 122.777 46.7233C123.415 46.4041 124.152 46.3408 124.835 46.5464C125.519 46.752 126.098 47.2109 126.455 47.8294L126.5 47.8394Z" fill="#FFB573"/>
  <path d="M123.74 43.8047C127.005 44.8797 127.535 46.3447 129.325 51.7547C128.135 54.9997 123.325 56.6447 123.325 56.6447C123.325 56.6447 117.645 47.3947 123.74 43.8047Z" fill="#4F3C8E"/>
  <path d="M128.209 50.8433C128.024 52.6333 127.564 54.7683 126.599 58.9633C125.849 62.5233 125.839 69.4633 124.639 69.8283C122.334 70.9683 116.564 70.5283 106.494 67.4183C106.814 62.2183 107.419 58.6883 105.689 46.7583C105.58 46.1328 105.612 45.491 105.783 44.8795C105.953 44.268 106.258 43.7021 106.675 43.2232C107.091 42.7442 107.609 42.3642 108.191 42.1108C108.774 41.8574 109.405 41.737 110.039 41.7583C110.769 41.7583 111.539 41.8183 112.324 41.8883C115.094 42.0548 117.847 42.4208 120.564 42.9833C121.449 43.1833 122.364 43.4183 123.234 43.6583C124.766 44.0959 126.1 45.051 127.007 46.3611C127.914 47.6711 128.339 49.2551 128.209 50.8433Z" fill="#4F3C8E"/>
  <path d="M92.9602 71.5234L93.9602 70.6084C94.1463 70.4382 94.2889 70.2259 94.3759 69.9893C94.4629 69.7526 94.4918 69.4985 94.4602 69.2484L94.1852 66.8634C94.1326 66.3946 93.9691 65.9451 93.7083 65.5521C93.4475 65.1591 93.0967 64.8339 92.6852 64.6034L92.1852 64.3184C90.4002 65.7234 89.5052 68.5534 89.5052 68.5534L89.1602 69.3334C89.0844 69.491 89.0406 69.6622 89.0316 69.837C89.0225 70.0117 89.0482 70.1865 89.1073 70.3512C89.1664 70.5159 89.2577 70.6673 89.3757 70.7964C89.4938 70.9255 89.6364 71.0298 89.7952 71.1034L91.3302 71.8034C91.6001 71.9184 91.8974 71.9532 92.1865 71.9035C92.4756 71.8538 92.7442 71.7219 92.9602 71.5234Z" fill="#FFB573"/>
  <path d="M145.445 59.5142L144.165 59.0142C143.928 58.9246 143.673 58.8933 143.421 58.9229C143.17 58.9525 142.929 59.0421 142.72 59.1842L140.72 60.5242C140.327 60.7882 140.004 61.1426 139.776 61.5577C139.549 61.9727 139.425 62.4362 139.415 62.9092V63.5042C141.48 64.4442 144.415 63.9342 144.415 63.9342L145.265 63.8842C145.439 63.8784 145.611 63.838 145.771 63.7653C145.93 63.6927 146.073 63.5892 146.192 63.4609C146.311 63.3326 146.404 63.182 146.464 63.0178C146.525 62.8536 146.552 62.679 146.545 62.5042L146.465 60.8192C146.441 60.5255 146.332 60.2452 146.151 60.0131C145.97 59.781 145.724 59.6075 145.445 59.5142Z" fill="#FFB573"/>
  <path d="M108.67 48.3692L108.03 48.6642L107.33 48.9842C106.865 49.2092 106.405 49.4442 105.945 49.6842C105.02 50.1842 104.12 50.6842 103.235 51.2092C102.35 51.7342 101.495 52.3192 100.665 52.9142C99.835 53.5092 99.065 54.1592 98.315 54.8242L98.645 54.4042C98.4013 54.7628 98.1872 55.1407 98.005 55.5342C97.785 55.9892 97.58 56.4842 97.38 56.9892C96.98 57.9892 96.59 59.0592 96.23 60.1342C95.87 61.2092 95.505 62.2992 95.15 63.3892L94.07 66.6742C93.9653 66.9968 93.747 67.2705 93.4557 67.4443C93.1644 67.6181 92.8199 67.6803 92.4862 67.6192C92.1525 67.558 91.8523 67.3778 91.6415 67.1121C91.4307 66.8463 91.3236 66.513 91.34 66.1742C91.395 64.9692 91.505 63.7992 91.64 62.6192C91.775 61.4392 91.945 60.2642 92.14 59.0842C92.335 57.9042 92.59 56.7192 92.915 55.5192C93.075 54.9192 93.25 54.3192 93.47 53.6892C93.7024 52.9957 94.0004 52.326 94.36 51.6892C94.4231 51.5848 94.495 51.4861 94.575 51.3942L94.695 51.2692C95.5186 50.3611 96.4005 49.5076 97.335 48.7142C98.256 47.9314 99.2209 47.2019 100.225 46.5292C101.216 45.8575 102.242 45.2399 103.3 44.6792C103.83 44.3992 104.365 44.1342 104.91 43.8742C105.185 43.7492 105.455 43.6192 105.74 43.4992C106.025 43.3792 106.285 43.2742 106.64 43.1392C107.321 42.867 108.082 42.8732 108.758 43.1567C109.434 43.4401 109.972 43.978 110.255 44.6543C110.539 45.3306 110.545 46.0913 110.273 46.7722C110.001 47.453 109.472 47.9997 108.8 48.2942L108.67 48.3692Z" fill="#FFB573"/>
  <path d="M113.5 43.0591C111.05 41.3041 109.56 41.1141 103.63 43.6891C102.925 47.4191 105.235 52.8941 105.235 52.8941C105.235 52.8941 113.125 48.7841 113.5 43.0591Z" fill="#4F3C8E"/>
  <path d="M114.14 32.668C114.505 35.413 114.74 40.388 112.78 41.928C112.78 41.928 115.34 41.883 120.235 45.888C122.07 43.888 121.02 43.023 121.02 43.023C118.105 41.918 118.31 39.713 118.945 37.698L114.14 32.668Z" fill="#FFB573"/>
  <path d="M119.2 45.0792C117.415 45.0792 116.51 47.6742 116.51 47.6742C116.51 47.6742 112.22 44.2542 111.635 41.8492C112.204 41.6195 112.762 41.3609 113.305 41.0742C113.305 41.0742 118.31 43.9292 119.2 45.0792Z" fill="white"/>
  <path d="M120.909 45.0161C120.909 45.0161 122.259 45.5161 122.704 47.5161C123.619 43.7061 121.834 43.1061 121.834 43.1061C121.387 42.7707 120.831 42.6139 120.274 42.6661C120.639 42.9209 120.903 43.296 121.019 43.7257C121.135 44.1553 121.096 44.6122 120.909 45.0161Z" fill="white"/>
  <path opacity="0.2" d="M116.1 34.7207L118.94 37.7207C118.785 38.1897 118.673 38.6716 118.605 39.1607C117.485 38.8457 116.005 37.3907 115.955 36.1607C115.914 35.6759 115.963 35.1877 116.1 34.7207Z" fill="black"/>
  <path d="M111.059 28.6732C112.059 32.9432 112.424 34.7682 114.989 36.7182C118.844 39.6482 123.849 37.7482 124.119 33.3282C124.359 29.3282 122.649 23.0282 118.119 21.8282C117.16 21.5396 116.14 21.5126 115.166 21.7498C114.192 21.9871 113.299 22.48 112.58 23.1778C111.86 23.8755 111.34 24.7527 111.072 25.7188C110.805 26.6849 110.801 27.7048 111.059 28.6732Z" fill="#FFB573"/>
  <path d="M111.894 31.7437C113.464 30.9737 115.129 27.1887 112.894 25.3987C114.739 25.7437 116.854 25.2487 118.809 23.7387C121.359 21.7387 125.114 26.7037 123.879 23.7887C122.099 19.5887 116.734 18.5387 111.879 22.0287C107.024 25.5187 107.369 29.7637 111.894 31.7437Z" fill="#263238"/>
  <path d="M110.565 30.8895C110.548 30.8878 110.532 30.8806 110.519 30.8691C110.507 30.8576 110.498 30.8424 110.495 30.8256C110.491 30.8088 110.493 30.7914 110.501 30.7759C110.508 30.7604 110.52 30.7476 110.535 30.7395C111.785 30.1995 117.09 29.0695 117.315 29.0245C117.325 29.0215 117.336 29.0207 117.347 29.0222C117.357 29.0237 117.367 29.0274 117.376 29.0331C117.385 29.0387 117.393 29.0463 117.399 29.0551C117.405 29.064 117.408 29.074 117.41 29.0845C117.413 29.1043 117.409 29.1245 117.398 29.1412C117.387 29.1578 117.37 29.1697 117.35 29.1745C117.295 29.1745 111.85 30.3495 110.595 30.8845L110.565 30.8895Z" fill="white"/>
  <path opacity="0.2" d="M117 29.1155C116.464 28.8798 115.856 28.8654 115.31 29.0755C115.865 29.1985 116.439 29.212 117 29.1155Z" fill="black"/>
  <path opacity="0.2" d="M116.955 29.4945C116.695 29.4396 116.426 29.4421 116.167 29.5016C115.908 29.5612 115.665 29.6765 115.455 29.8395C115.973 29.8312 116.484 29.7137 116.955 29.4945Z" fill="black"/>
  <path d="M117.93 29.0534C118 29.4184 118.245 29.6884 118.48 29.6584C118.715 29.6284 118.845 29.3134 118.775 28.9484C118.705 28.5834 118.455 28.3184 118.225 28.3434C117.995 28.3684 117.86 28.6934 117.93 29.0534Z" fill="#263238"/>
  <path d="M122.32 28.5794C122.39 28.9394 122.64 29.2094 122.87 29.1844C123.1 29.1594 123.235 28.8344 123.165 28.4744C123.095 28.1144 122.85 27.8394 122.615 27.8694C122.38 27.8994 122.25 28.2144 122.32 28.5794Z" fill="#263238"/>
  <path d="M122.5 27.9049L123.31 27.5449C123.31 27.5449 123 28.2799 122.5 27.9049Z" fill="#263238"/>
  <path d="M121.5 29.2734C121.932 30.0891 122.467 30.8468 123.09 31.5284C122.919 31.6716 122.719 31.775 122.504 31.8312C122.288 31.8874 122.063 31.895 121.845 31.8534L121.5 29.2734Z" fill="#ED893E"/>
  <path d="M119.925 33.4702C120.126 33.4873 120.328 33.4873 120.53 33.4702C120.543 33.4684 120.556 33.4638 120.568 33.4567C120.58 33.4496 120.59 33.4401 120.598 33.4288C120.606 33.4175 120.612 33.4047 120.615 33.3912C120.618 33.3777 120.617 33.3637 120.615 33.3502C120.61 33.3215 120.594 33.2957 120.571 33.278C120.548 33.2604 120.519 33.2522 120.49 33.2552C120.037 33.31 119.578 33.2635 119.146 33.1191C118.713 32.9747 118.318 32.736 117.99 32.4202C117.98 32.4102 117.968 32.4023 117.955 32.3969C117.942 32.3915 117.929 32.3887 117.915 32.3887C117.901 32.3887 117.887 32.3915 117.874 32.3969C117.861 32.4023 117.849 32.4102 117.84 32.4202C117.821 32.4406 117.81 32.4674 117.81 32.4952C117.81 32.523 117.821 32.5498 117.84 32.5702C118.402 33.1138 119.143 33.4338 119.925 33.4702Z" fill="#263238"/>
  <path d="M110.045 32.5011C110.286 32.8449 110.595 33.1349 110.954 33.3527C111.313 33.5704 111.713 33.7112 112.13 33.7661C113.17 33.8511 113.395 32.6411 112.865 31.5661C112.39 30.6011 111.275 29.3861 110.365 29.8061C109.455 30.2261 109.37 31.6161 110.045 32.5011Z" fill="#FFB573"/>
  <path d="M116.525 26.2992C116.553 26.2992 116.58 26.2929 116.605 26.2808C116.63 26.2687 116.653 26.2511 116.67 26.2292C116.831 26.0233 117.04 25.8602 117.279 25.7547C117.518 25.6491 117.779 25.6043 118.04 25.6242C118.067 25.6284 118.095 25.627 118.121 25.6201C118.148 25.6132 118.172 25.601 118.194 25.5841C118.215 25.5672 118.233 25.5461 118.246 25.522C118.259 25.498 118.267 25.4715 118.27 25.4442C118.272 25.3868 118.254 25.3305 118.218 25.2855C118.182 25.2406 118.131 25.2099 118.075 25.1992C117.746 25.1701 117.415 25.2228 117.111 25.3528C116.808 25.4828 116.541 25.686 116.335 25.9442C116.311 25.9783 116.297 26.0185 116.294 26.0602C116.291 26.102 116.3 26.1436 116.32 26.1805C116.34 26.2173 116.369 26.248 116.406 26.269C116.442 26.2899 116.483 26.3004 116.525 26.2992Z" fill="#263238"/>
  <path d="M123.129 26.1134C123.156 26.1164 123.183 26.114 123.209 26.1062C123.235 26.0985 123.259 26.0856 123.279 26.0684C123.299 26.0489 123.315 26.0255 123.326 25.9998C123.337 25.974 123.342 25.9464 123.342 25.9184C123.342 25.8905 123.337 25.8628 123.326 25.8371C123.315 25.8113 123.299 25.788 123.279 25.7684C123.063 25.4971 122.788 25.2793 122.474 25.1318C122.16 24.9844 121.816 24.9114 121.469 24.9184C121.442 24.9207 121.415 24.9288 121.391 24.9422C121.366 24.9556 121.345 24.9741 121.329 24.9963C121.312 25.0186 121.3 25.0441 121.295 25.0712C121.289 25.0983 121.289 25.1263 121.294 25.1534C121.303 25.21 121.332 25.2612 121.377 25.2973C121.421 25.3333 121.477 25.3516 121.534 25.3484C121.809 25.3455 122.081 25.4057 122.329 25.5245C122.577 25.6432 122.794 25.8174 122.964 26.0334C122.984 26.0581 123.009 26.0781 123.038 26.0919C123.066 26.1057 123.098 26.1131 123.129 26.1134Z" fill="#263238"/>
  <path d="M119.284 31.3201C118.229 31.3201 117.314 30.2001 117.214 28.7651C117.154 28.0893 117.31 27.4116 117.659 26.8301C117.797 26.5836 117.993 26.3738 118.228 26.2181C118.464 26.0624 118.734 25.9653 119.014 25.9351C120.119 25.8601 121.089 27.0051 121.194 28.4901C121.299 29.9751 120.484 31.2401 119.389 31.3151L119.284 31.3201ZM119.119 26.1151H119.029C118.772 26.1446 118.526 26.2348 118.31 26.3782C118.094 26.5217 117.916 26.7142 117.789 26.9401C117.457 27.4932 117.31 28.1377 117.369 28.7801C117.464 30.1751 118.369 31.2501 119.369 31.1851C120.369 31.1201 121.124 29.9201 121.029 28.5251C120.934 27.1301 120.094 26.1151 119.119 26.1151Z" fill="white"/>
  <path d="M123.96 31.0495C122.905 31.0495 121.985 29.9345 121.885 28.4995C121.827 27.8238 121.982 27.1469 122.33 26.5645C122.469 26.3179 122.665 26.1081 122.902 25.9524C123.138 25.7967 123.408 25.6998 123.69 25.6695C124.785 25.5945 125.765 26.7395 125.865 28.2195C125.923 28.8952 125.767 29.5721 125.42 30.1545C125.281 30.4016 125.086 30.6119 124.849 30.7676C124.612 30.9234 124.342 31.02 124.06 31.0495H123.96ZM123.795 25.8245H123.7C123.443 25.854 123.196 25.9442 122.981 26.0876C122.765 26.231 122.587 26.4236 122.46 26.6495C122.132 27.2044 121.986 27.8474 122.04 28.4895C122.135 29.8395 122.985 30.8945 123.96 30.8945H124.05C124.308 30.8662 124.555 30.7765 124.77 30.6329C124.986 30.4894 125.164 30.2962 125.29 30.0695C125.619 29.5172 125.766 28.8751 125.71 28.2345C125.615 26.8795 124.765 25.8245 123.795 25.8245Z" fill="white"/>
  <path d="M122 28.7061C121.986 28.7054 121.973 28.7014 121.962 28.6944C121.951 28.6874 121.941 28.6777 121.935 28.6661C121.745 28.3661 121.19 28.6911 121.185 28.6911C121.176 28.6966 121.167 28.7002 121.157 28.7019C121.147 28.7036 121.137 28.7033 121.127 28.7009C121.117 28.6986 121.108 28.6943 121.1 28.6883C121.092 28.6824 121.085 28.6748 121.08 28.6661C121.067 28.6516 121.06 28.6329 121.06 28.6136C121.06 28.5943 121.067 28.5757 121.08 28.5611C121.11 28.5611 121.77 28.1511 122.04 28.5611C122.046 28.5694 122.05 28.5789 122.052 28.589C122.054 28.5991 122.054 28.6095 122.052 28.6195C122.05 28.6295 122.045 28.6389 122.039 28.647C122.032 28.655 122.024 28.6616 122.015 28.6661C122.015 28.6735 122.014 28.6808 122.011 28.6876C122.009 28.6945 122.005 28.7008 122 28.7061Z" fill="white"/>
  <path d="M118.125 28.3784L118.93 28.0234C118.93 28.0234 118.625 28.7584 118.125 28.3784Z" fill="#263238"/>
</svg>